<mxfile host="app.diagrams.net" agent="Mozilla/5.0 (Windows NT 10.0; Win64; x64) AppleWebKit/537.36 (KHTML, like Gecko) Chrome/135.0.0.0 Safari/537.36" version="26.2.8">
  <diagram name="Page-1" id="qYS1jFeQlSL4eUYXhgjL">
    <mxGraphModel dx="2720" dy="2756" grid="1" gridSize="10" guides="1" tooltips="1" connect="1" arrows="1" fold="1" page="1" pageScale="1" pageWidth="850" pageHeight="1100" math="0" shadow="0">
      <root>
        <mxCell id="0" />
        <mxCell id="1" parent="0" />
        <mxCell id="4mB-E_8tkrWjStZip_CA-1" value="" style="rounded=1;whiteSpace=wrap;html=1;strokeWidth=1;shadow=1;fontFamily=Times New Roman;labelBackgroundColor=none;textShadow=1;spacingTop=6;fontSize=9;fontStyle=1" vertex="1" parent="1">
          <mxGeometry x="-1670" y="-2170" width="140" height="360" as="geometry" />
        </mxCell>
        <mxCell id="4mB-E_8tkrWjStZip_CA-3" value="" style="rounded=1;whiteSpace=wrap;html=1;strokeWidth=1;shadow=1;fontFamily=Times New Roman;labelBackgroundColor=none;textShadow=1;spacingTop=6;fontSize=9;fontStyle=1" vertex="1" parent="1">
          <mxGeometry x="-1120.75" y="-2165" width="240" height="360" as="geometry" />
        </mxCell>
        <mxCell id="4mB-E_8tkrWjStZip_CA-11" value="IQ raw data&amp;nbsp;" style="shape=cube;whiteSpace=wrap;html=1;boundedLbl=1;backgroundOutline=1;darkOpacity=0.05;darkOpacity2=0.1;fontSize=9;fontFamily=Times New Roman;fontStyle=1" vertex="1" parent="1">
          <mxGeometry x="-1633.25" y="-2150" width="63" height="63" as="geometry" />
        </mxCell>
        <mxCell id="4mB-E_8tkrWjStZip_CA-13" value="" style="edgeStyle=orthogonalEdgeStyle;rounded=0;orthogonalLoop=1;jettySize=auto;html=1;fontSize=9;fontFamily=Times New Roman;fontStyle=1" edge="1" parent="1" source="4mB-E_8tkrWjStZip_CA-11">
          <mxGeometry relative="1" as="geometry">
            <mxPoint x="-1601.75" y="-2050" as="targetPoint" />
          </mxGeometry>
        </mxCell>
        <mxCell id="4mB-E_8tkrWjStZip_CA-99" value="" style="edgeStyle=orthogonalEdgeStyle;rounded=0;orthogonalLoop=1;jettySize=auto;html=1;fontSize=9;fontFamily=Times New Roman;" edge="1" parent="1" source="4mB-E_8tkrWjStZip_CA-14" target="4mB-E_8tkrWjStZip_CA-26">
          <mxGeometry relative="1" as="geometry" />
        </mxCell>
        <mxCell id="4mB-E_8tkrWjStZip_CA-14" value="&lt;font&gt;Range Slow time matrix&lt;/font&gt;" style="shape=cube;whiteSpace=wrap;html=1;boundedLbl=1;backgroundOutline=1;darkOpacity=0.05;darkOpacity2=0.1;fontSize=9;fontFamily=Times New Roman;fontStyle=1" vertex="1" parent="1">
          <mxGeometry x="-1633.25" y="-1990" width="70" height="60" as="geometry" />
        </mxCell>
        <mxCell id="4mB-E_8tkrWjStZip_CA-23" value="" style="edgeStyle=orthogonalEdgeStyle;rounded=0;orthogonalLoop=1;jettySize=auto;html=1;exitX=0.5;exitY=0.88;exitDx=0;exitDy=0;exitPerimeter=0;fontSize=9;fontFamily=Times New Roman;fontStyle=1" edge="1" parent="1" source="4mB-E_8tkrWjStZip_CA-19">
          <mxGeometry relative="1" as="geometry">
            <mxPoint x="-1601.25" y="-1985" as="targetPoint" />
          </mxGeometry>
        </mxCell>
        <mxCell id="4mB-E_8tkrWjStZip_CA-19" value="" style="strokeWidth=2;html=1;shape=mxgraph.flowchart.multi-document;whiteSpace=wrap;fontSize=9;fontFamily=Times New Roman;fontStyle=1" vertex="1" parent="1">
          <mxGeometry x="-1645.75" y="-2070" width="88" height="60" as="geometry" />
        </mxCell>
        <mxCell id="4mB-E_8tkrWjStZip_CA-24" value="Realtime Range Profile&amp;nbsp;" style="strokeWidth=2;html=1;shape=mxgraph.flowchart.multi-document;whiteSpace=wrap;fontSize=9;fontFamily=Times New Roman;fontStyle=1" vertex="1" parent="1">
          <mxGeometry x="-1651.25" y="-2060" width="88" height="60" as="geometry" />
        </mxCell>
        <mxCell id="4mB-E_8tkrWjStZip_CA-26" value="Range Bin Selection&amp;nbsp;" style="rounded=1;whiteSpace=wrap;html=1;absoluteArcSize=1;arcSize=14;strokeWidth=2;fontSize=9;fontFamily=Times New Roman;fontStyle=1" vertex="1" parent="1">
          <mxGeometry x="-1647.75" y="-1900" width="99" height="40" as="geometry" />
        </mxCell>
        <mxCell id="4mB-E_8tkrWjStZip_CA-93" value="" style="endArrow=classic;html=1;rounded=0;exitX=1;exitY=0.5;exitDx=0;exitDy=0;dashed=1;fontSize=9;entryX=0.5;entryY=0;entryDx=0;entryDy=0;fontFamily=Times New Roman;" edge="1" parent="1" source="4mB-E_8tkrWjStZip_CA-26" target="4mB-E_8tkrWjStZip_CA-102">
          <mxGeometry width="50" height="50" relative="1" as="geometry">
            <mxPoint x="-1530.75" y="-1980" as="sourcePoint" />
            <mxPoint x="-1320" y="-2170" as="targetPoint" />
            <Array as="points">
              <mxPoint x="-1510" y="-1880" />
              <mxPoint x="-1510" y="-2190" />
              <mxPoint x="-1450" y="-2190" />
            </Array>
          </mxGeometry>
        </mxCell>
        <mxCell id="4mB-E_8tkrWjStZip_CA-97" value="" style="shape=image;verticalLabelPosition=bottom;labelBackgroundColor=default;verticalAlign=top;aspect=fixed;imageAspect=0;image=data:image/png,iVBORw0KGgoAAAANSUhEUgAABLAAAAJYCAYAAABy5h8aAAAAOXRFWHRTb2Z0d2FyZQBNYXRwbG90bGliIHZlcnNpb24zLjkuMCwgaHR0cHM6Ly9tYXRwbG90bGliLm9yZy80BEi2AAAACXBIWXMAAA9hAAAPYQGoP6dpAAEAAElEQVR4nOzdd3hUZfo+8Hsy6YSEEDqE0HsvIoIiKGDv4OpaWRuIyH5d12XdXbuoP3ftdV0BO3ZF0UUQEJQm0ntCS0IPJKSXmfP7I/uenJlMkpnJKe85c3+uy0syKXMymTlzzn2e53ldiqIoICIiIiIiIiIiklSU1RtARERERERERERUHwZYREREREREREQkNQZYREREREREREQkNQZYREREREREREQkNQZYREREREREREQkNQZYREREREREREQkNQZYREREREREREQkNQZYREREREREREQkNQZYREREREREREQkNQZYREREREREREQkNQZYREREREREREQkNQZYREREREREREQkNQZYREREREREREQkNQZYREREREREREQkNQZYREREOnvrrbfQtm1buFwunHPOOVizZo3P55csWYKuXbuiVatW+Oqrr0L++WvXrkXz5s2Rk5MT9jY+99xzGDx4cNjf35CHH34YTZs2xbhx43DBBRegefPmSE1NxQUXXIDzzjsPycnJuOWWWwy7f62DBw9i1qxZaNmyZcDPHz58GE888QSio6MRHx+P48eP1/mz/t//+39wuVw4//zz8cMPP+i+LeHQ42du3rwZM2bMgMvlQlpaGi666CJcd911GD16NMaOHYtXXnkFHo9Ht23Ww44dO3D33XdjwIABuvy83bt3Y8aMGbr9PABYvHgxrrzyStx22211fo3H48GTTz6JSy65BBdddBGaNm0Kl8vl8z1lZWVo3749PvvsM922rT4nT57E008/jYyMDOzfv9+U+yQiImoIAywiIiKd3XbbbXj55ZcBAJdeeilGjBjh8/nzzjsPF154IV577TVcfvnlIf/8tm3b4oILLkCzZs2C/p4tW7b4fNy3b19MmDAh5PsOVkxMDNasWYMff/wR33//PQYMGIC+ffvi+++/x5IlS7Bt27aQtr+x21JWVoYTJ04E/Hzbtm3x4IMPYtCgQSgvL8e///3vgF/n9Xrx+uuvAwBmzpyJ8ePHB3X/hYWFagjQ0LaEQ4+fOWDAADz11FMAgKlTp2LhwoX48MMPsXLlStxxxx24//77ce6556K0tFSvzW60pk2b4ujRozh9+rQuPy8+Ph65ubm1fl52djby8/PD+pkdO3bEb7/9hqqqqjq/5tFHH0VmZiYWLFiAhQsX4sCBAzj33HN9viYuLg4XXHABunTpEtZ2hMrj8SAqKgoHDx405f6IiIiCwQCLiIjIAFdccQXat2+PL774IuDnt23bhiuvvDKsn52eno4PPvgASUlJQX19QUEBHn/8cZ/bJkyYgKeffjqs+w/G2WefjT59+tT5+fT09LB//1C1bdsW/fv3b/DrkpKScO655+L1118PWG303XffISMjA0B12BGsV155RQ2wgt2WUOj1MxMTEwPeft111+Htt9/GypUrcf/99zf6fvTSoUOHep9joerYsWPAn/fEE0+EHWD16NFDfc7U5d///jeuuuoquFwuAEDz5s3x7rvvIjo6Wv0al8uF//znP4ZWTWq1bNkSQ4YMMeW+iIiIgsUAi4iIyAButxu33XYbVq1aha1bt/p8bvny5TjnnHMQFWX823BZWRmuv/56HD161PD70jrnnHMa/JoxY8aYsCXVgn2sp0+fjuzsbHz55Ze1Pvfvf/8bd9xxR0j3u2TJEvzjH/8Ia1tCYfRz6Xe/+x0GDBiAt956C6dOnTL0vkKh9+/tdrt9Pn7nnXfwxhtvNOpnNrSNZWVleOWVV1BWVqbe1qFDB9PCqrr4PxZERERWY4BFRERkkNtvvx1ut7vWCfDcuXNx6623AqiekXPddddh1qxZGDx4MF566SUAQF5eHp555hl07twZq1atwuDBg9G/f3/k5eXh//2//4fOnTurVT1erxcPPvggZsyYgVtuuQUjRoxQQ7N33nkHmZmZ2L17N+666y589913yMzMxMyZMzFw4ECf7friiy8wbdo03HXXXTjzzDPxzTffAAAqKirw3nvv4cwzz8TcuXPxz3/+Ey1atEDfvn1x4MCBsB+f4uJivPbaa+jXrx+++eYbnH/++ejYsSNOnjwJj8eDZ555Bvfeey/OOOMMXHnllTh06BCKi4vx6quvom/fvli8eDEeeOABJCcnY9SoUT5VMiUlJZg+fTqmT5+O66+/Hh999FFQ23TFFVegQ4cO6t9ByMrKQpMmTdCmTZta31PXtubk5GDevHmorKzEv/71L9x9990+33f8+HFccsklaNKkSa3Pbd26FXfccQf++Mc/4qyzzsJTTz0FRVHC/v1KSkqQkZGBF198MajHIZALL7wQ5eXlWLx4cb2/t/ZvtHTpUjzyyCNo2bIl+vbti927d2P16tUYOHAgkpKSalUBrlixAnfeeSfuuecenHnmmXj77bdrPWa33HIL7r33XkyaNAlLly5VP/f555+jXbt2avvd3r17cd1118HlcqmvlRMnTuDGG2/Egw8+iIkTJ+Lqq6+uswVxy5Yt6sypBx98UA0i6/q9hQ0bNmDy5Mn44x//iEmTJiE3N7fex/UPf/gDvv/+ewwbNgwrV65Ub7/zzjsBAJWVlfjggw8wcuRIzJs3T/18YWEhZsyYgRdffBH33nsvvvvuO/VzOTk5ePDBB9G6dWucOHECl19+OZo0aaL+TKD+/QYREZGUFCIiIjLM5ZdfrqSkpCjFxcWKoijK6dOnlUsvvVRRFEUpKSlREhMTlf/+97+KoijKG2+8oURFRSmnT59WDh8+rDz++OMKAOWPf/yj8sknnyh33XWXcvToUWX27NkKAGXfvn2KoijK3LlzlbZt26r3OXLkSGXSpEnqxzfffLMyZswY9eP9+/crV1xxhZKRkaHetnDhQmXEiBGKx+NRFEVRFixYoLjdbmXFihVKUVGRsmbNGgWAcskllyhLlixRMjMzldatWyvTpk0L6nEYM2aMMmrUKJ/bTpw4obz99tsKAOX6669Xvv32W+XGG29USktLlUceeUTZsGGDoiiKUlpaqvTr108577zzlJMnTypffvmlAkC54YYblLVr1yobNmxQ4uLilGeeeUb92VdeeaXy9NNPK4qiKF6vV5k4caLS0GGPeIwee+wxBYCyefNm9XP33XefsmLFCmXp0qUKAOWHH35QP1fXtiqKouzbt08BoCxdulT9+jlz5igAlNmzZyv79u1TXn31VQWAsmnTJkVRFOXQoUNKenq6cuTIEfXjpKQk5cknnwz79ystLVXOPPNMZe7cufU+BgCUBx98MODnxHY+++yz9f7eJ0+eVH/Hu+++W1m3bp2yZ88epXXr1sro0aOVV199VTl69Kjy6KOPKm63Wzl06JCiKIqyadMmpVu3bkpJSYmiKIqyceNGJSoqSvnggw8URVGUyspKZfjw4cr8+fMVRVGU8vJypV+/fj7P4xtvvNHnub5kyRKf18ott9yiXHfddYqiVL8WY2NjlVdeeUX9+oceesjn54m/t/j++n5vRal+bbVt21Y5cOCA+nFMTIxy88031/mYV1ZWKrfffrsCQAGg/O53v1NycnLUz5eUlCg//PCDAkCZM2eOevtNN92k/PGPf1QUpfo5MGDAAGXQoEHKZZddphw+fFh54IEHFADKE088oezdu1d58803FQDK2rVrFUVpeL8R6HcnIiKyEiuwiIiIDHTXXXehoKBArZCZP38+rr32WgDVw7cnT56MoUOHAgDatGkDr9eLU6dOoU2bNhg5ciQA4Oabb8Y111yD1157Da1atcLw4cN97qNHjx6YOnWq+nGbNm3qHeidkZGBfv36+dz2t7/9DZdffrna7nTJJZegb9+++Pvf/44mTZpg2LBhAIArr7wS48aNQ9euXXH22Wdjz549YT82aWlpahvh5MmTcdFFF+Gdd96By+XCq6++iu+//x5PPfUUnn/+eQwcOBDR0dFISUlR5z3deuutGD58OAYNGoT+/fur27J8+XK1mgyonh90xRVXBL1dd9xxB2JjY9VB/KWlpVi/fj1Gjx5d62vLy8vr3Fav11vv/fz5z39Gp06dcPPNNwMAdu7cCQB49tln0bt3b7Ru3RpA9YyrKVOm4Mknn0RxcXFYv198fDxWrVql3lc4xIwmRVHq/b1TUlLUx+qaa67BsGHD0K1bN4wZMwZutxtTp05Fq1atMHnyZHg8HuzduxcA8Mgjj2DcuHFISEgAAAwcOBCXXHIJ/vrXvwIA3n//fezbtw+TJk0CAMTGxuLiiy/22Ub/dj3/j0eOHInJkycDqB6MnpqaGtLw+4b+3g8//DDOOussdOzYEUD1a62hWVLR0dF488038f3336Nbt2746KOP0K9fP/z3v/8FACQkJGDs2LG1vu/LL79Ez549AVT/bUaPHo22bdviq6++Qps2bdCjRw8AwF/+8hd07twZ119/PQCor5NQ9xtERERWi274S4iIiChcEydOROfOnfH6669jypQp+Pzzz9W2pOjoaMyZMwerVq3CggULUFBQAABq8CFOvlNSUnx+pv9smpEjR2Lo0KF48803kZ2djaNHjyImJqbe7dL+jNOnT+O3337DH/7wB5+vGTp0KD755BOfbdEGAk2aNMHx48eDeyDqEOh3zMrKQkFBAR544AE1NAn0Pf7bUlFRAQBYuHAh0tLSfIbchzJ0vVWrVrjmmmvw3nvv4emnn8bnn3+O6667LuDXNrSt9RHbLwIbMQNp6dKl6Natm8/XDh06FC+++CJ27NjR6N8vXGJFui5dujT4e2sHkAvi9xTi4uIAVLfIAdW/92233ebzNUOHDsXXX3+NEydOYOHChcjIyPC5v1B/7zvuuAPHjx/H7Nmz4fV61f+C1dDvvXDhQtx4440+twW7jRMnTsTWrVvx5JNP4vHHH8ekSZOwd+9etGjRIuA8qhYtWuDYsWPqx0lJST6tjP6vkyZNmgCA+joJZ79BRERkJVZgERERGcjlcuGOO+7AunXr8OGHH6JTp04+J/L33nsvPv/8czz22GNqZUmosrOzMWbMGPTt2xePPfYYunfvHtL3K/+breQ/6L1NmzYBgwijlZeXo6ysDNu3b/e5PS8vz2cOVF2Kiopw+vTpkIIJf9OnT0dJSQnefvttvP/++7jhhhsM2VagprJJbK+iKAH/FkB11Z4ev184/vvf/6rVQHr83v7q+72jo6NRVFTU6AHyS5YswdVXX42bbroJDz74YJ0rL9alod87nG3UzrWKi4vDI488gscffxyFhYVYtmxZnd/33HPP4csvv0RZWRm8Xi9++ukn3HLLLUHfb2P3G0RERGZjgEVERGSwKVOmIDY2Frfddps6vB2oHuD+4osv4uGHH27Uil+zZs1Chw4dMGrUqICfb6gyKCUlBT169Kh1spyXl4dx48aFvV3h6t69O2JiYvDQQw/53P7vf/87qCqnnj17orKyEsuXL6/1uWBDn5EjR2LIkCF47LHHMGDAgDqDjoa2NdSqLAA444wz8Ouvv6KoqEi9LS8vD61atUK/fv10+f1C9eWXX+K3337Dvffei9TU1Eb/jQI544wzsHz5cp8ALC8vD0OGDEGzZs3Qs2dP7N+/H5mZmT7fp/2dY2NjUVpaWutz4v8333wzrr32WrRv3z6obfL/XRr6vXv27Illy5ahqqqqzm3098UXX9S6bcKECQAQcNEAoWvXrujYsSOeeuopPPfcc3jggQcwc+bMhn4lVUP7DSIiItkwwCIiIjJYq1atcOWVV6JLly4+86tEy9g777yDzZs3Y86cOQCqVz/btGmTetJbXl7u8/M8Ho/P/8vKyvDLL79g8+bN+OKLL7Bu3TqcOHECixcvhsfjQZMmTXDgwAGcOnUKixYtUr9XfD8APPTQQ1ixYgV++eUXANWr1i1evBh///vfAdS0efmfiGt/Rn1KS0t9ggUh0O+YlJSE6dOn47PPPsNFF12E119/HX/4wx/QsmXLoLblxhtvRFpaGqZNm4adO3eqvwtQPR+ruLg4qG28++67UVBQoM6aEl+j/X9D2yratnbt2oUlS5agqKhI3c66tv/++++HoijqDC4A+PTTT9WgM5zfr7y8HKNGjcK7774b8HcHqv/mgXz77be46aabcPXVV+ORRx4J6vf2f46K31f7O4ugSnzN3/72N2RnZ2P+/Pnq7V9++SUeffRRAMC0adMQHR2NW265Bbm5uTh58iRWrlyJ48ePY8OGDaiqqkLXrl2xefNmLF++HD/88IO6iuGqVatw6tQplJWV4auvvkJWVhZeeeUV5Ofn49ChQ+pqhv6vC/H327lzJxYsWIDExMR6f+8//vGP2Lt3L2bOnIni4mJs374dWVlZ2L17d63gTfj111/x17/+1ed+33//fYwcOVKdgxfo8bzrrrvQuXNn9OzZE+np6ep2Cg29ThrabwS6TyIiIktZNDyeiIgooixdulT517/+5XNbRUWFcskllyhNmzZVrr/+emX79u1K8+bNlRtuuEHZuXOnMmnSJAWAMmnSJGX37t2KoijKwYMHlWuvvVYBoMyYMUM5ceKEsm7dOiUjI0Np37698sYbbygvv/yy0rx5c3W1tt9++01p166dMmLECOXIkSPKunXrlP79+ytut1t5/fXX1e157bXXlP79+ytTpkxRbrrpJnXlvOLiYuXhhx9WACjnn3++snHjRmXRokVKp06dlKZNmyqffPJJnb/3oUOHlBdffFGJi4tTYmJilBdffFHJzc1VFEVRDh8+rEybNk0BoIwbN05Zv369+n1lZWXKjBkzlGbNmint2rVTV9w7fvy4cvfddysAlOuuu07Zs2eP8sknnygpKSlKenq6ujrgmjVrlMGDByuxsbHKxIkTlUceeUQZPny48t577ykVFRV1buPMmTPV1QdLSkrUFesURVEWL16sTJgwQQGgjB8/Xr2vurZVuO2225RmzZopL7/8srJx40bl3HPPVVeHO3jwoPLUU0+pP3PHjh2KoijK8uXLleHDhyvXXHON8oc//EF57bXXfH5mKL+foihKUVGR0qFDB+W5554L+HfatGmT+ri2bdtWmTRpknLbbbcpF110kXLxxRcrH3/8ca3vqe9vNH36dJ+/0cKFC5X27dsrKSkpyrvvvqscOnRIueuuuxQAyuTJk5X9+/criqIon332mTJw4EDlhhtuUG6++Wbl008/9bnPb7/9VunRo4eSkJCgTJ48WZkxY4Zy3nnnKV9//bXi9XqVkydPKiNHjlSSkpKU+++/X1myZInSu3dv5eWXX1YKCwuVt956S2nWrJkyYMAAZeXKlcrkyZOVHj16KFu3blV+/fVXZcCAAYrb7VZeeeUVpby8XKmsrFQuvvhipWXLlspnn30W1N979uzZSsuWLZUWLVoof/3rX5Xzzz9fuemmm5Tffvst4GPfvn17BYDSrl075eKLL1bGjx+v3H777UpeXp6iKNUrHT766KPq6088R5544gmlRYsWSpMmTZSoqCh1FcPnn39e2bZtmzJ27FgFgPL4448rOTk56vPs/PPPV7Zu3VrvfiM7O1vdz9xzzz3qa5aIiMhKLkUJc1ABERERERGZzuv14vbbb8dLL72ktrdWVlZi//79uOeee/D9999bvIVERET6YwshEREREZGN/Oc//0FUVJTPbLaYmBh06tQJvXv3tnDLiIiIjMMAi4iIiIjIRg4fPoxPPvkEb7zxBnJyclBcXIwtW7Zg6tSpmD59utWbR0REZAi2EBIRERER2UhlZSVefPFFvP3229i7dy+aNm2KiRMn4tFHH0Xnzp2t3jwiIiJDMMAiIiIiIiIiIiKpsYWQiIiIiIiIiIikxgCLiIiIiIiIiIikFm31BsjA6/Xi0KFDaNq0KVwul9WbQ0RERERERETkKIqioLCwEO3atUNUVOj1VAywABw6dAjp6elWbwYRERERERERkaNlZ2ejQ4cOIX8fAywATZs2BVD9ICYnJ1u8NUREREREREREznL69Gmkp6erGUyoGGABattgcnIyAywiIiIiIiIiIoOEO7qJQ9yJiIiIiIiIiEhqDLCIiIiIiIiIiEhqDLCIiIiIiIiIiEhqDLCIiIiIiIiIiEhqDLCIiIiIiIiIiEhqDLCIiIiIiIiIiEhqDLCIiIiIiIiIiEhqDLCIiIiIiIiIiEhqDLCIiIiIiIiIiEhqDLCIiIiIiIiIiEhqDLCIiIiIiIiIiEhqDLCIiIiIiIiIiEhqDLCIiIiIiIiIiEhqDLCIiIiIiIiIiEhqDLCIiIiIiIiIiEhqDLCIiIiIiIiIiEhqtguwFi5ciG7duqF58+a45557UFVVBQA4evQo7rjjDvz5z3/Ggw8+CEVRLN5SIiIiIiIiIiLSg60CrBMnTuD999/Hhx9+iJdeeglz5szB888/DwCYNGkSpk6dimeeeQZxcXF46aWXrN1YIiIiIiIiIiLSRbTVGxCKzMxMvPXWW0hISMDw4cOxefNmLF26FKNHj8b+/fsxePBgAMCFF16Iq666Cvfccw9cLpfFW01ERERERERERI1hqwDrzDPP9Pm4ffv2yM/Px48//oiMjAz19h49eiAnJwd79+5F165da/2c8vJylJeXqx+fPn3auI0mIiIiIiIiIgpCRUUF/vKXv+Dcc89F//794fF40K1bN6s3Swq2aiH0t27dOtx5553Izc1F8+bN1duTkpIAAIcOHQr4fbNnz0ZKSor6X3p6uinbS0RERERERERUl3feeQfPPfccLr/8cgwcOBC9evXCG2+8YfVmScG2Ada+ffuQmpqKIUOGwOVyIT4+Xv1cRUUFACAmJibg986aNQsFBQXqf9nZ2aZsMxERERERERFRXb755hv134WFhfB4PLjrrrvwwQcfWLhVcrBVC6Hg9Xrx2muv4ZlnngEAtGvXDpmZmernCwsL1dsDiYuLQ1xcnPEbSkRERERERETUgKqqKixduhRfffWVz+2XXXYZjh8/jiuvvNKiLZOHLQOs559/HjNnzlSrrs477zz85z//UT+fmZmJLl26oGPHjlZtIhERERERERFRUN566y1MnToVAJCeno5bbrkFHTp0wB133IGKigrExsZavIXWs12A9a9//Qs9e/ZERUUF9u7di2XLluGcc85Bamoq9uzZg+7du2PRokX4v//7P6s3lYiIiIiIiIioQVu2bFH//be//Q133HGH+jHDq2q2CrBefPFF3HfffT639e7dG1OmTMH8+fPx5JNPqlVX06ZNs2ITiYiIiIiIiIhCcuzYMQDASy+95BNeUQ1bBVgzZszAjBkzAn6ua9euPm2ERERERERERER2IAKsli1bWrwl8rLtKoRERERERERERE5w/PhxAECrVq0s3hJ5McAiIiIiIiIiIrKQqMBigFU3BlhERERERERERBapqqpCXl4eAAZY9WGARURERERERERkkRMnTgAAXC4XmjdvbvHWyIsBFhERERERERGRRcT8qxYtWsDtdlu8NfJigEVEREREREREZBHOvwoOAywiIiIiIiIiIouIAKtly5YWb4ncGGAREREREREREVmEFVjBYYBFRERERERERGQRMQOLAVb9GGAREREREREREVnk6NGjANhC2BAGWEREREREREREFtm4cSMAoFu3btZuiOQYYBERERERERERWaCoqAgbNmwAAJx99tkWb43cGGARka3s2bMHV111FZYtW2b1phARERERETXKmjVr4PF40LFjR6Snp1u9OVJjgEVEtjJv3jx88cUXGDt2LDZt2mT15hAREREREYVt5cqVAIDRo0dbvCXyY4BFRLZSWFio/vtvf/ubhVtCRERERETUOKtWrQIAjBo1yuItkR8DLCKylcrKSvXfW7ZssXBLiIiIiIiIGic7OxsA0LNnT4u3RH4MsIjIVkpKStR/Hzx4EKWlpRZuDRFRZKqoqMCcOXNw4MABqzeFiIjI1o4dOwYAaN26tcVbIj8GWERkK8XFxeq/FUXBnj17LNwaIqLING/ePEyZMgW9evWyelOIiIhsq6qqCnl5eQAYYAWDARYR2Yq2AgsAdu3aZdGWEBFFrt9++w0AUFZWhoqKCou3hoiIyJ6OHz8ORVEQFRWF5s2bW7050mOARUS2IiqwEhISAAA7d+60cnOIiCJS586d1X+vXbvWwi0hIiKyL9E+2LJlS7jdbou3Rn4MsIjIVkQF1uDBgwGwAouIyAra+YPLli2zbkOIiIhs7OjRowCAVq1aWbwl9sAAi4hsRVRgDRkyBAADLCIiK2jnES5dutTCLSEiIrIvDnAPDQMsIrKVQAGWoihWbhIRUcTRziPcvn27hVtCRERkX6zACg0DLCKSVnl5OTwej89t4qRpwIABiIqKQmFhIY4cOWLF5hERRSxtgHXkyBGflkIiIiIKDiuwQsMAi4ikVFZWhvbt22P48OE+t4sKrNTUVHWIMAe5ExGZy39F2IMHD1q0JURERPbFCqzQMMAiIimtX78eeXl52LBhg9oiqCiKetLUpEkT9OzZEwDnYBERmU07AwsA9u/fb82GEBER2ZgIsFiBFRwGWEQab775JhYsWGD1ZhCAqqoq9d+VlZUAfFe9SkxMZIBFRGQR/wosBlhEREShEy2ErMAKTrTVG0Aki+3bt+POO+8EAA4Fl4B29lVpaSliY2N9TpgYYBERWUfsj9PT05Gdnc0Ai4iIKAyswAoNK7CI/ic3N1f9NwMs61VUVKj/LisrA1DTshIXFwe3280Ai4jIIiLA6tOnDwBWYBEREYVKURRWYIWIARbR/3i9XvXf5eXlFm4JAb7zVUTroHb+FVBz4rRv3z7k5+ebu4FERBFM7KP79u0LgAEWERFRqPLz89VRKQywgsMAi+h//FvWyFpFRUXqv/0rsBITEwFU7+i7du0KRVGwatUq8zeSiChCsQKLiIiocUT7YEpKCuLj4y3eGntggEX0P9qqK//htGQ+bYBVVwUWAIwePRoA8PPPP5u4dUREkU3sj3v16gUAOHLkCKuXyRJHjhzBrbfeih9++MHqTSEiCgnbB0PHAIvofwK1rJF1tH+PuiqwAGDUqFEAgJUrV5q4dUREkU0EWB07dlSvGmtnSRKZ5V//+hfmzp2LCRMm4NNPP7V6c4iIgsYB7qFjgEX0P4Eqfsg6gVoI66vAWrt2rdpDTkRExqmsrFT3t0lJSejQoQMAICcnx8rNogikKAo+/vhj9ePZs2dbuDVERKFhBVboGGAR/Q8DLLkE+nsEqsDq1asX4uLiUFpaikOHDpm7kUREEUjbZp+YmKgGWNnZ2VZtEkWo9evX48CBA+rHmZmZXEmaiGyDFVihY4BF9D9sIZRLsBVYLpcLzZs3BwCcOnXKxC0kIopMYl8cFRWF2NhYpKenA2CAReb76quvAAAXX3wxAOD06dM8FqAGLVmyBO+++y7DTrIcK7BCxwCL6H+0gQmHuFsv2AosAGqAdfLkSZO2jogocon3yMTERLhcLp8A64UXXkC/fv2wb98+KzdRat999x2uueYa9cSFwrd582YAwAUXXIA2bdoAAJ971KBJkybhpptuwmOPPWb1plCEYwVW6BhgEf0PK7DkEqgCS/yNtBVYQE2AlZeXZ9LWERFFLv99sQiwcnJyMHPmTGzbtg3XXXedZdsnu4suugifffYZ/vWvf9X7dT/++CPOOussbNq0yaQts5+dO3cCqB4n0LlzZwAMsKh+Ho9HrdJ76KGHkJmZafEWUSQTARYrsILHAIvofzgDSy6B/h7aq/5arMAiIjKP/7440AysNWvWwOv1mr9xEvjqq6/Qpk0b3HnnnTh+/LjP58QFGQCoqKio9+ecd955WLVqFX7/+98bsp12V1FRgaysLABA79691QBr7969Vm4WSc6/y+K3336zaEuIaloIWYEVPAZYRP/DAEsu4VRgMcAiIjKef4ClbSGMiqo5tFy5cqX5GyeBhQsX4ujRo3jzzTfxt7/9zedzGzduVP8d7AkLZ4sFlpmZCY/Hg6ZNm6Jdu3bo0qULAFZgUf20HRcAfBYBIDIbK7BCxwCL6H+0b2icgWU9zsAiIpJTXQHWiRMnfKqu1qxZY/7GSUD7/rVnzx6fz61du1b9d7DHGvHx8fpsmMNo2wddLhdbCCko2tcnwACLrFNWVqY+HxlgBY8BFtH/sAJLLoEqsMTMgtTUVJ+vZYBFRGQe/2rY1NTUWhcWtF8XabTvX/7VU9pQr74Aq7y8XP03A6zAduzYAaC6fRCAWoHFFkKqDyuwSBZidq/b7UZKSorFW2MfDLCI/ocBllwCBVgioEpLS/P5WvExAywiIuP5V2C5XC51DpYWA6zqAEtRFPXj9evXq/+u6/EpLS3FunXr1I89Ho8BW2l/27dvB1BdgQUAGRkZAGo/5kRarMAiWYgAq3nz5nC5XBZvjX0wwCL6H65CKJdAgaIIqETFlcAKLCIi8wRaUEO0EQb6ukijff8qLy9XB7l7PB6f6qBAj4/H48G4ceNw9tlnq7cdO3aMgYwfRVHw008/AQCGDRsGAGjXrh2A6otePB6guojj/ZiYGAAMsMg6IsDyvzBP9WOARfQ/rMCSR0VFBSorK9WPRQWW9kqFln+A9fPPP6Nr166YN2+eGZtLRBRRgg2wWIFV7eDBgwCAnJwcn/e2QI/Pv//9b6xevdrntsrKSrWFnqplZmYiJycHsbGxGDVqFAAgLi5OnSOTk5Nj5eaRxMTrs0+fPgCA06dPIz8/38ItokjFACs8DLCI/kd7wBmpV41l4X9QX1paCkVRgq7AmjdvHvbu3YtbbrkFK1asMGGLiYgix+nTpwH4rgjLCqwa4njC7XYDqAmwsrKyfL7O//Hxer14+OGHA/5MsVIVVVuyZAkAYOTIkT5BqmhlZYBFdRHHmK1bt1aDA/EaJTITA6zwMMAiQvVBo/ZAkhVY1vK/el1WVobS0lJ1qK3/jt4/wNIGYE899ZSRm0pEFHHEYHLt3Cvtv5OSkgCwAksMFxePV0MBVlZWVp1B1ZEjR/TeTFsTAdZ5553nczsDLGqIeH02adJEnZvGNkKyAgOs8DDAIkJNhY+wZcsW/PDDDxZuUWTzD7BKS0vVcCo6Olo9ORJEgCWCrsOHD6ufE6sUERGRPvbv3w8A6Ny5s3qbtgKrU6dOAFiBJQIs/woscdLsH/D99ttvAIDhw4fj4osv9vkcK7B8idUcx4wZ43M7AyxqiHh9JiUloWfPngCAtWvXWrlJFKEYYIWHARYRagcmW7ZswYQJE7Bx40YAwKFDhzBx4kQsWLDAgq2LPIEqsOpbqSMpKQnR0dEAqquwDh06pH7uwIEDqKioMHiLiYgihwiwRFAF+AZYdQU0kaCiokJ9zxEzdvwrsPr37w+gdsAnVigcOnQoPvnkE2zduhWTJ08GwABLKy8vT31MBw0a5PM5BljUELFfSkpKwsSJEwEA3333nZWbRBGKAVZ4GGARoe6DbFG98/vf/x6LFi3CZZddZuZmRax9+/b5fKytwAq0k3e5XGoV1okTJ3wqsLxer8+qT0REFL7Kyko1PGCAVZv2dxYBlgj8RIA1YMCAWl8L+AZYCQkJ6Nu3L1q3bg2ALYRa4uJi165dkZyc7PM5BljUEG0L4QUXXACg+rW3cuVKddEgIjMwwAoPAywi1K74EUQosmzZMhO3hkQbRdeuXQH4LontP8BdEF/7888/qwOGxW27d+82dHudyOv1YufOnVy6nYh85OTkwOv1Ii4uTg1XACA5OVlt7xYBViS2EIrjidjYWPTq1QtAdXDl9XqRmZkJIHAFlqIo6nvf0KFD1dvFqnrHjx83fuNtQgRY/tVXAAMsapi2Aqt169YYNmwYAODss89GcnIy/vnPf1q5eRRBGGCFhwEWEeoOsKqqqlBVVaV+HBcXZ9YmRTRxFfqss84CULuFMBAxyPXdd98FUL28uzgJ2LNnj6Hb60R///vf0bt3bzz//PNWbwoRSURUE2VkZCAqquYw0uVy4aqrrkKHDh3UfXckVmBp5+t06dIFQHVr+88//4zCwkI0adIEgwcPBuAbYO3atQv5+fmIi4tD37591dvFSo9cXKZGMAFWdnY2L8BQQNoKLAD4wx/+oH6usrISzz33HJ87ZAoGWOFhgEWEumdLlJWVYdOmTerH4mCUjKO9Cj1q1CgAvi2EdQVY559/PgBg9erVAIC2bduiR48eABhghePJJ58EAPzf//2fxVvibBUVFdixYwcPlsk2Ag1wF+bNm4cDBw6gXbt2ACK7AispKUmt8ACAuXPnAgBGjhyJlJQUANUBn3jtL168GED1+15sbKz68+Lj4wEwwNKqL8Bq27YtgOrHNhKff9QwbQUWANx1110oLCxUb8/NzWXlPpmCAVZ4GGARAWpZvyj3F8rKyrBy5Ur14/LyclO3KxIdPHgQJ0+eRExMDIYPHw7At4Wwrp38mWeeicTERPXjtm3bonv37gAYYJG8Jk2ahD59+mD+/PlWbwpRUAINcNeKiopS98UlJSURF85qAyygppVdBFhnn322+vgoiqIeV4iVj8ePH+/z8xISEgAwwBIURVHf08WMMa0mTZqoi7rk5+ebuWlkE/4VWED16zUxMRFjx44FACxZssSSbaPI4fV6cerUKQAMsELFAIsIqDWXQigrK/MZKM6recYTV1b79u2rXqUOpgIrLi5ObSMEqgMssTzytm3bDNxiovB9/fXXAMBWTbKNgwcPAgA6duxY59eIE0NFUSJuKHJdAZbX6wXgG2AB1dUgVVVVWLp0KYC6A6xIexzrkpeXp4Z+7du3r/V5l8uFZs2aAWCARYH5V2BpieNIBlhktPz8fPV9gQFWaBhgEaH20tZCWVkZjh07pn7MK6DGE4Nq09PT1daJYGZgAcB9992n/tvr9aJ///6IiorC0aNHfVYmpIa53W6rNyGiBJqvt2jRIsybN8+CrSGqm7hi3KJFizq/RhvQDBgwAB988IHh2yUL/+oOEWAB1a/zESNGIDo6Wm0TLCkpwfr161FYWIjmzZvXaotjC6GvQ4cOAah+/tU1l5QBFtUnUAWWIAKspUuXwuPxmLpdFFnEhfmkpCSftnFqGAMsItRfgaWdj8UKLONpDyzEleeqqirs3bsXAHxWvfI3ZswY9YB22LBhSExMVKuwRGUXBadp06bqvwsKCizcksjgfyJWVVWFiRMn4pZbbsHPP/9s0VYR1SYCLBESBOJ2u9XndGZmJn7/+99HTJjgX4GlnZ155513quGe+H9xcTHWrVsHoLoV3v/iAVsIfeXm5gKAOmctEPHc5HsXBeL/GtUaNmwYkpOTcerUKR43kqFEgJWammrxltgPAyyKeOXl5WpLhH+AVV5e7lOBVVlZicrKSlO3L9JoS7vFlWcA2Lx5MwCoc7HqsnfvXjzzzDOYPn06gJohrxs2bDBga51L+zwXrw8yjn+AtXPnTvXfCxcuNHtziOokgqj6AiygdnXDCy+8YNAWycX/5Fg7p+nBBx9U/y0en5KSEvz6668AAr+/sYXQlwiwArUPCmL8QKSEphS8VatWqRdEAwVY0dHROPfccwHULKxAZARxMYgBVugYYFHE279/PxRFQZMmTWoNpfVvIQR4FdRo2gosbYAFVLcVpqen1/v97dq1w/33368emIgAi1fSgldZWakGiQADLKOI2QdA7QBLrMQJAAsWLDBtm4gaIkKBhg66tW2EAPDFF18YtUlS8Q+whg4dijfffBM//fQTWrVqpX6ddtC9qMAaNmxYrZ/HFkJfwQRYbCGkQLKysnDWWWepHwdqIQQ4B4vMwQArfAywKOKJ9sFu3brB7XbjueeeUz9XXFyMEydO+Hw9DyKNpa3AioqKUlsAAfgceARr8ODBAFiBFQr/tosDBw5YtCXOdvr0afXf/vMP1q9fr/57y5Yt6hVjIquFW4Elgh2nC9SedPvtt+Pss8/2+Trx+Bw9ehQ7duwAEDjAYguhLzEDiwEWhUpU8guBKrCAmgBr5cqV7LogwzDACh8DLIp4OTk5AGpWVJo5c6Za5p+bmwuv1wuXy+UzcJWM4z9c84EHHlA/d8YZZ4T884YMGQKgOqj0r6ajwMSbqsAKLGNoH2dtNRbgW4EFVLc9EFnN4/GowWtDAZZ/BVakBDD1zdfREo/PypUroSgKOnTogDZt2tT6OrYQ+mIFFoXL/4J0XRVYvXv3RtOmTVFaWurTzk+kJwZY4WOARRFP7EC0S5iKkn1RedKiRQskJycDYIBlNP/ljW+44QZ07twZUVFRuOCCC0L+eWlpaepss+XLl+u3oQ7mf9AvqhRJX9rHWXty7/F41IrBMWPGAKiuwiKymrY6U8wZqov/yWGkvHeGGmB98803AICRI0cG/Dq2EPoKZYg7AyzS8l+N2j9kF6Kiojg/lQzHACt8DLAo4olVIJo3b67eJg4YReVJq1atfOZVkHH8K7BiYmKwatUqrF+/3mcYbijGjh0LAFi2bJku2+h0/gf9/mX3pA9tBZZ2v7JhwwYUFxejadOmmDRpEgD+DUgOYt+QmJjY4LLfMTExPh9HSgAjKtQaCrDEe5y4QFDXBRpRgeXxeNjOBFZgUfiOHDkCADj//POxfv16REXVfRrM8RNkNAZY4WOARRGvvgBLzFpo1aqVehDJAMtY/hVYANC6dWv1alg4xIoyS5cubcymRQxx0N+jRw8A1SdY2qHupA/tyZV2v/L9998DqJ7DIQ6iGWCRDIId4A4AhYWFPh+Xl5fXapV1ms2bN6urhnbt2rXer/Wv/pg4cWLArxPHHgDbCMvLy3H8+HEADLAodKIC66qrrlLHS9RFG2BpW6eJ9CICLO35JwWHARZFvEAJuP/qd61bt1YPNiPlKrJVgm2/CIVow9qxY4caWFLdxEF/z5490bp1ayiKgm3btlm7UQ6krcDS7lf++9//Aqg+oe3Xrx+A6qoDPnfJauI529D8K6D2YhCA8wKYyspK3HLLLXjttdcAAPfccw8qKipw6aWXYsKECfV+r7bFcsCAAXUGMtoVSiP9+ENU0MTGxqJFixZ1fh0DLApEBFiBZs35EwHW8uXLkZSUhLS0NLzxxhuGbh9FFlZghY8BFkW8+iqwBLYQmkdU+tQ1XDMczZs3R9u2bQFUL6NM9dNWWQwYMAAAK4CMEKiFsKCgQB3YPnHiRCQnJ6Nz584AOAeLrBfsCoRA4ADLaQHMu+++i3nz5mHatGk4evQoVqxYAQB4+eWX4XK56v3eK664AikpKXC5XLj99tvr/LqoqCg1xHLa4xcq7fyr+h5fBlgUiAiwxPFgffr06aMeh5aVlaGqqgp33XUXZs+eDUVRDN1OigwMsMLHAIsiXqAAS3vFE2CAZSYjKrAAoEuXLgCAffv26fpznUhbZcEAyziBWghFu0JGRoYaXPXt2xdAdQUhkZVCCbC0LTfR0dEAnBfArFmzRv33ggULoCgKhgwZoq5qXJ+LL74Yp06dQklJCaZPn17v13IlwmrBDHAHap6fgUJUikyKoqgVfMEEWDExMfj888/xzDPPYMuWLZg1axYA4K9//SseffRRQ7eVIgMDrPAxwKKIF0wFVvPmzTkDyyRGVGABUMOAvXv36vpznUh7kipa2Bie6C9QBdbu3bsBwGfBAnEyLE7eiKwSSoA1evRoANXPX/H+6bQAS7xeAWDevHkAgEsuuSTo73e5XLWONwLhSoTVghngDtSskJmfn89qGQJQfaxfUVEBILgWQgCYMGEC7r//fvTr1w9PPvkknn32WQDAww8/jN///vdc2ZoahQFW+BhgUcQLZgZWs2bNOAPLJEZXYDHAapgIdZs1a6YGu/4DmanxAs3AEifE3bt3Vz8nTtYYYJHVQjngnjt3Lu6//34sXbrUkQGWx+PBr7/+qn68cuVKAMBFF12k+3058fELh1hYp6EASwSsFRUVEV+1RtVE+2Dz5s1rdVkE67777sNf/vIXAMAHH3yAG264gQEphaWqqkqtUmaAFToGWBTRysvL1Yqf+iqwtAEWK7CMU1FRoS4TrncFFlsIg/PII49g/vz5AICWLVuqfweuQqg//xZCRVGwZ88eADUrQAI1J2s5OTmmbh+Rv1AqsNq3b49nnnkGXbp0ceQFoK1bt6oXXLRE27We2EJYLdgKrKSkJERFVZ/icA4WAaHNv6rPk08+iU8//RRA9Xvy/v37G7tpFIG0+6Vg3k/JFwMsimjiarLL5VJLzoHaAVZKSgoDLBNoQxK2EFpj7ty5AIBJkybhiiuu4PPeQNoKLKD65FRUYAUKsFiBRVYLJcDScmIF0a5du2rd1qpVK/V31RNbCKsFG2Bpj+kYYBEQ/Py0hrhcLlx99dU488wzAdRUXhKFQhz/JSUlISYmxuKtsR8GWBTRtO0Q4modwAosq4gAKyYmBrGxsbr+bFGBdeDAAVRVVen6s53k2LFjAICnnnoKSUlJfN4bRFttJRQWFqqrZDLAIhk1NsBy0n4kUFt1RkaGIfflxAAwHKGEEE2bNgWAgFVyFHlEpZS4mNlYYsYfAywKB+dfNQ4DLIpoYtaP/w7Evz8+JSXFkQfgsjFq/hVQfcAbGxsLj8eD7Oxs3X++ExQXF6vP71atWgEAWwgNcuDAAeTl5flceduxYwcqKysRFxeH9PR09XYRYBUUFPDvQJYSM4hatmwZ0vc5MYAJFGB16tTJkPtiC2F16B9sBRZQcxzBAIuAmgBLr9coAyxqjMzMTACNb2mNVAywKKIFWoEQ4BB3qxi1AiEAREVFoVu3bgCA7du36/7znUBUXyUkJKh/A20FFoeV6kcMfx4wYIDa6vLbb78BALp16+ZTEZqcnKyejLEKi6zi9Xqxc+dOAEDv3r1D+l4nBlhiAK+WURVYbCGsDvDF7x9MgCUqsLgACQH6B1hnnHEGgJoLT0ShWLp0KQDg7LPPtnhL7IkBFkW0YAKsqKgoJCYmspXKBEZWYAHAkCFDAADr16835OfbnQiwWrVqBZfLBaAmTPR4POoS1NR4IsAaNmyYum/58ccfAdQ8T7XYRkhWO3DgAEpLSxEbGxtyG44TAywRjLRo0UK9jS2ExhFDuJs1axbUnDFWYJGW3gFW69at4Xa7oSgKjh8/rsvPpMghAqyxY8davCX2xACLIproQa4vwEpISIDL5WKAZQIjK7AAYOjQoQAYYNVFG2AJ4nkP8Lmvp3Xr1gHwDbDquyLHAIusoCgKbr75Zvzxj3/Etm3bAAA9e/ZEdHR0SD/HiQGMCLBEZS9gXAuhOCaJ5BbCuo7X6sIKLBKqqqrUVXz1CpmjoqLUVuqjR4/q8jMpMhw8eBBZWVlwu92swApTaEcgRA4jrpo0FGBp/8+TeOOYVYElWrXIV6AAKyYmBjExMaisrERxcTEHTurA6/WqIerw4cPVAEsEuGK2hhYDLLLC/v378c477wAAvvvuOwBAnz59Qv45Tg+wVq9eDYAVWEYqKCgAAJ8Vo+vDCiwSsrOz4fF4EBsbizZt2uj2c1u3bo0jR44wwKKQiLlpQ4cORXJyssVbY0+swKKIJq7IdOjQwed27WBlMdCdM7CMZ3QF1uDBg+FyuZCTk6OGNVQjUIAFgNWHOsvKykJBQQHi4+PRp08fn3aYtLQ09OrVq9b3dOzYEUD1lTsis2hP/nft2gWAAZYgAixtOyUDLOOImWPBnvCxAosE0T6YkZHhM1+ysVq3bg2AFVgUGnEcF+hYj4LDAIsiWl0Blpj/A9RUY/lXSZD+jK7Aatq0KXr06AGAVViB1BVgcSVCfYn2wUGDBiEmJsanTXP06NE++x9BtCaJA3EiMwR6zYc6wB1wZgAjgpG+ffvirrvuwv3332/Y1XS2ELICi8Kn9/wrgQEWhePIkSMAuAJhY7CFkCJadnY2APgsWe9PVGCJA9NAKw+RPkSAYlSABQD9+/fHrl27sHPnTlxwwQWG3Y8dsQLLHGKA+/DhwwH4zhmrax6COPDet2+fsRtHpCECrC5duiAlJQU7d+7EWWedFfLPcXKA1bRpU7z22muG3pcTH79QhVqBJY4jWIFFImDSOzBggEXhEAtS6NnOGmkYYFHEUhQlqABLXPls1qwZACA/P9/oTYtIFRUVmDNnDoDAM4D00r17dwDA7t27DbsPu2psgFVWVoa4uLiAFURUQ7sCIYBaFViBiDal/fv3Q1EUPsZkCvGab9GiBVasWIGioqKgh2hrOTGA0QZYRhOPHyuwgq/AEn8XVmCR2O/oPZ6CARaFQwRYrMAKH1sIKWKdPHlSPRgUA5IDERVYIsA6ffo0vF6v4dsXaT766CPk5uaibdu2uP766w27H9FCyACrNnEQFk4L4c8//4w2bdrgiiuuMGz7nMDj8ajtqyLAEieniYmJ6kID/tLT0+FyuVBaWsolu8k02rmEsbGxYYVXgDNnSJoZYIkLaU56/EIlKrDYQkihEkG89mKRHhhgUTjYQth4DLAoYonqq1atWqkhVSDiwFEcNCmKwjZCAyxfvhwAcMstt9T792gsBlh1C7cCKzs7G+PHj0dBQQG+/vprPrb1yMvLU0MB8VwUj++ZZ57ps4CEVmxsrBq0s42QzCKeq4098XPiKr7iOMDMCqxIDrBEBRaHuFOoxOuGARbJgBVYjccAiyJWMO2DQM2BY3x8vBpmiQMp0o84UTK6J1yEBtnZ2Y46mdLDyZMnAaBWlUVDFVgff/yxz4mVaAWl2sS+o2nTpoiOru7iFyuXNTSTjYPcyWxiH9nY1hunBTBer1fdH7KF0Bwc4k7hEvsx7Yq/ehABlqioIWpIUVGRuk/iDKzwMcCiiFXXCoT+tNVAnINlHL2u9DckLS0NqampAICsrCxD78tOKisrUVlZCaD2yWpDFVi//PILAGDEiBEAgHnz5rHNtg6BTsLuu+8+LFu2DDNnzqz3e8UcLFZgkVm0LYSN4bQASxuKsIXQHKEOcWcFFglGtxCeOHECVVVVuv5sciZRfdWkSRNT3jucigEWRayGKrDGjh0LAJg2bZp6GwMs4xh1gOHP5XKxjTAAbTjlf7JaXwWWoihqgPXkk08iJSUFhw8fxurVqw3cWvsSAZbYlwDV7YFjxoyps31QYAUWmU3vFkKnBDAiFHG73Wq4ZCSnPX7hYAUWhcuoFsIWLVrA5XJBURScOHFC159NzsT5V/pggEURKzc3F0DdFVjfffcd9uzZg/PPP1+9TRw4McDSn16tKsHo2bMnAGDLli2G35ddiBPVqKioWjPI6qvA2r9/P44cOYKYmBiMHDkSF198MQDgyy+/NHaDbSrUkzAtMZtMtHoSGY0thIGJACs5OdmUFUHZQhj+EHdWYJFRLYTR0dFqRX9eXp6uP5ucifOv9MEAiyKWSMHr6kGOi4tDt27dfG5jBZZxzGohBIDhw4cDANasWWP4fdmFtgLO/4Ssvgqsn3/+GQAwZMgQJCQkqKsQfvHFF1AUxcAttqfGBFisKCCzsYUwMDNXIATYQgiEP8S9qKiI70URzsgK/7S0NAAMsCg4IsDi/KvGYYBFEUusGiJ62IPBAMs4ZlZgjRw5EgCwevXqiJ7V5PV68emnnyInJ6feE9X6KrA+/vhjAMCYMWMAVA8ij46ORmZmplrlSDXEvqMxARYrCsgsbCEMzOwAy2mPXzjCbSH0eDwRXblGNa8bvSuwAAZYoaqoqMCnn36K9957LyLPpcS5JwOsxmGARRGrMQEWVyHUn5kVWAMGDEBCQgLy8/Mjeg7W3LlzMWnSJPTt2zesACs3NxfffvstAOCWW24BUH1C165dO/Xz5IsVWGQnbCEMzKoAK1KDmPLycpSXlwMIvgJL+5zlPjOysQJLDoqi4JprrsGkSZNw44034r777rN6k0x37NgxADUjISg8DLAoInk8Hhw/fhxAaCk4K7CMY9YQdwCIiYnBsGHDAACrVq0y/P5k9c033wConi1S3+NfVwvh3Llz4fV6cfbZZ6N3797q7SLAOnTokCHbbWeNCbC0LTFEZtCrhVCEDgUFBY6oemULobnE/Csg+ADL7Xar72fcZ0Y2o4a4AwywQvH6669jwYIF6scLFy6MuPZece7ZsmVLi7fE3hhgUUTKy8uDx+OBy+UKaSfCAMs4ZrYQAsCZZ54JAFi3bp0p9ycjj8ej/jucCqwPP/wQAHDrrbf63M4Aq26swCI70asyVrzPejweR7x/ikDFigqsSDvhA2oe76SkJLjd7qC/j23XBBg3xB1ggBWKjz76CADw6KOPIj4+HkeOHMGOHTss3ipziQCLFViNwwCLIpJoH0xLS0N0dHTQ38cAyxgVFRWoqqoCYE4FFgD0798fALB9+3ZT7k9G4jEH6g+wAlVgbdu2Ddu2bUNsbCyuvPJKn69ngFU3PQIsnoyRWfSqwIqLi1Of86KFws5EoBJsNVBjaU+8RStdJAl1gLvAqlUCzGkh5OrADRNh1cUXX4xRo0YBAH788UcrN8l0rMDSBwMsikjhzL8Cak46GWDpS1vZY1aA1bdvXwAMsIT6KuACVWB98sknAICJEyeqwa7AAKtuerQQFhcXO6INi+SnZ2WsuOLshADr1KlTAIDU1FRT7k+0EAKR2UYY7n6ToT8pisIWQgmcOHFCDW969uyJ8847D0BkBFiff/45/vKXv8Dr9arvfwywGocBFkWkcAMsVmAZQ5wkud1uxMbGmnKfvXr1gsvlwvHjx9U31UgTqAIr2BlYy5YtAwBcccUVtb6eAVbd9KjAAgKvCEmkN70qsAAGWI0RExODqKjqQ/ZIDLAOHjwIIPSTPlZgUXl5udp2a0QLYfPmzQFUB1hHjhzBq6++6jOzjaqJ6qtOnTqhSZMmagXWhg0brNwsU9xzzz14+umn8dNPP6nPDQZYjWPLAGvx4sUYMWIE9u/fr95WXFyMadOmYdasWZgxY0ZEllhT8BhgyUUbnrhcLlPuMzExEZ06dQKAiOvBF7QzsMSbaqAT1RYtWgCoDqTEgeC+ffsAAH369Kn19Qyw6taYACshIUF9ffCEjMyg5+qwDLDC53K5Inolwl9++QUAMGLEiJC+jxVYZHSFv7YC6+mnn8bdd9+NOXPm6H4/die6HcSCP6ILYv/+/Y4+nikpKVGPhdeuXQsAiI6OrtW5QKGxXYB1/PhxFBUVqU8CYerUqRg/fjxmz56NYcOGYdasWRZtIdkBAyy5mLkCoZYIXyK1jVBbgSVOKgMFWN26dYPb7UZhYSEOHTqEyspK5OTkAIAaAmoxwKpbYwIsl8vFEzIyFVsIAzM7wAIieyVCEWCdddZZIX0fK7BIvF6io6MRExOj+8/XBlji3OLIkSO634/dieNscdydlpamvic4+SKyuNgL1Cwa1aJFC7WilsJju0evZcuWuOyyy3xuO3ToED755BNceOGFAIALL7wQr7/+Og/wqU7izaVNmzYhfV/btm0BVB+8atupqHH0bFMJRaQHWNor+aKNMlCIGBsbi65duwKoPtDIycmB1+tFfHx8wBBYBFgnT56MyGqB+jQmwAJ4Qkbm8Xg8ajW7ngGWE1q2xcBmMwMsUYEVaQFWfn4+tm3bBgAYOXJkSN/LwJ+MXIEQ8A2wxLEs359rEyGVtmpfVGGJ17cT7d27V/23KL5h+2Dj2S7AAlArtVy2bBlatGihXp1q2bIl4uLialVpEQmNqcASB6zaVJ0ax6oKrF69egEAdu/eber9ykKEKUD9FVhATdn3zp071fbtjIyMgC2fzZo1Q1xcHADg8OHDem6yrZWXl6uBQLgBljgh4wEyGU17kYYthL6sqMCK1BbC1atXQ1EUdOvWLeRjNu4vycgB7kBNgFVVVaWeWzAwrS0zMxMA0L17d/W2SFhMKSsrS/23mOUn3gspfLYMsPzl5uaqQ/SEpKSkOttXysvLcfr0aZ//KLKcOHECQHg7kc6dOwNggKUnPdtUQtGxY0cAQHZ2tqn3K4tQAiwR9u3YsUMNsAK1DwLVrW5sI6xN+3iLSqpQ8YSMzCL2yy6Xy2cVvHCJq84MsMITqS2En376KQDgnHPOCfl7xX6WgULkMvoCaWJiovraFAEF3599VVVVqcfZ4hwKqKnGipQKLIEVWI3niAAr0MFVRUVFnb3Os2fPRkpKivpfenq6GZtJEhEtDGI4dSi6dOkCgAGWnvQcFBwK8dpngFVzUlnX30BUYO3YsUN97tcVYAE1ry0uLV1DPN5NmzaF2+0O62cwwCKzaFu79VhcwykVWB6PR30ts4XQWAUFBfjwww8BALfeemvI38/9JRndQgjUVGGJinM+33wdOnQIVVVViImJUUexADUVWE6egcUAyxiOCLDatWvncyIGVO88RAWAv1mzZqGgoED9L1JPXiOZqMAKJ8ASVw8C7ZQoPFa1EIoAq7CwsNY+xOnKy8tRUVGhfixC3YZaCLUVWNoraf5EVayYFUM1J+7iYDccrCggs+h9YcEpAZb2vYIthMb64IMPUFJSgj59+mDUqFEhfz9nBpLRLYQAaq0ox+ebrwMHDgCo7nrQXrwTx+CHDx9WV7h2GgZYxnBEgDV27Fjk5OSoJ2OiZeWMM84I+PVxcXFITk72+Y8iR0lJiRqYNCbAYgWWfqxqIUxMTFSDlkgLsusK7Or6G/Tp0wcxMTE4cuQIfvjhBwD1V2BpB5tSNdFekJGREfbPYEUBmUXv/bIIsE6ePInKykpdfqYVRPtgYmIiYmNjTbvfSGwh/O677wAAN998c1hVgBziTmZUYPmfR/L92Zd2bqqWCHLKysocuTCWoigBzxUvuugiC7bGWWwZYImUVvy/bdu2uOCCC7B8+XIAwKJFizBt2jRdZjaQ84jqq9jY2LDm0IgWQlZg6ceqFkIA6NChAwAGWEJdf4OkpCR1BolYxVPMxQqEFVi1iauQDLDIDsTFwMZUDGo1b95cDSHsHGxbMf8KiLwWQo/Hg59++gkAcN5554X1M1iBRWZU+PufSzAw9VXX3NQmTZqo5+p2r8wNpLCwUK2YPffccwEAt99+O4YOHWrhVjmD7QKsoqIivP766wCAefPmqWHE66+/jvnz5+Pxxx/H5s2b8cQTT1i5mSQxbftgOFf0tBVYTi15NZtVLYRA5M7BCrUCCwAuvfRS9d9Dhw7FgAED6vxaVmDVpi2jDxcDLDKLWBlKu+x5Y7jdbjXYtvN+weoAK1JaCDdu3IiCggKkpKRg0KBBYf0MVmCRGS2ErMCqX10BlsvlUitzxRgLJxHnmwkJCZgzZw7ef/99vPrqqxZvlTNEW70BoUpKSsLUqVMxdepUn9tbtGiBt956y6KtIjtpzPwroKZ6ori4GCdPntTt6nQk0w4LNpsIsHJycky/byuFG2DNnDkTAHD33XfXGwCL1wUrsGroUYHFGVhkFrEylBi0q4e0tDTk5eWp78N2ZFWAFWkthEuXLgVQvfogF72gcJnRQuhfgcXnm6+6WgiB6jbCgwcPOjLAEhdq0tLS0KlTp3rHblBobBdgETWW2EmGO0RPzFA7ffo08vLyGGDpgBVY5gsnwOrSpQumTp2KnJwcXH/99fX+fCdUWuiNLYRkJ3pXYAHOqMy0ugIrUgKsdevWAQBGjx4d9s9g4E9mVGD5B1glJSXweDxhB69OI459AgU44lzM6QEW6YsBFkWcxlZgAdU7IxFgUeNZGWBF4gysNWvW4Oqrrw74uYb+BsGWPzvhRFVPiqIwwCLbqKqqwq5duwDoG2CJ91077xesDrAipYVQHKu1b98+7J/B/SWZcXwZaDGw4uJiLhL2P2KeYqDXspNbCMX7XGPONykw283AImosvQIsgO1RerGyhVAEWJHUQvj222/X+Tm9/gYc4u7r1KlT6vOcM7BIdnv37kV5eTkSEhJ0bXsQ751OaCEU+zizRFoLoR5BoaiMERUxFHmsaCEE+B4tlJeXq/usQK9lUYHlxCHurMAyDgMsijgi5W9MgMX2KH1ZWYHVpk0bAMDRo0dNv2+raA8UzjjjDJ/P6RVgsQLLl6i+at26daNWyBVXdOtqASXSw44dOwAAvXv3RlSUfoeKTtgviNee2dUVkdZCqEeAJQJ/oOZCGUUWMy6QMsCqW35+vvrvlJSUWp93cguhuFDDAEt/DLAo4ogdSrgzsABnHITLRLxxmX1FG6gJsPLz81FeXm76/VtBvAY+/vhj3HzzzertTZs2RWxsrC73IV4jJSUlEdPyUh/RoipmroXLyQd7JA8RcjemfSsQJ7QQihPTQCetRoq0FkI9Aqz4+Hh1DhHnYEUm8Xc38vUaKMxmgFVNvI5TUlICzgRz8jENK7CMwwCLIo4eLYRsj9LXwYMHATSutSpcqampiImJARA5VVja14D2quSIESPqXVkwFMnJyWrlBl8nwJEjRwAAbdu2bdTPEfMinFhuT/IQVQvaChY9OKGFUJyY6v3YNCSSWgg9Ho9a6daYAMvlcrHtOsKZEWCxAqtuDQXRnIFF4WCARRFHjxZCVmDpp6ysTD0ZtyLAcrlcaN26NQAGWCNHjtTtPqKiothqqyGeW+K5Fi5xsHf69OmIqcQg84mTL73bbpzw3mlVgBVJLYTaFunGDstngBXZrKrAYsVfNdFCWNfrmDOwKBwMsCji6DGAlRVY+hHD0xMSEixpIQRqQgVRJeNkHo9Hfd4aGWABfJ1o6RVgpaSkqG2eTjzgIzkYXYHFACt0kdRCKI7TEhMTG93WLoILBgqRiRVY1mqoAosthBQOBlgUcfSYq+CEg3BZaNsH9WpfC1UkDXLPz8+H1+sFUB1gaU+GzjzzTF3vi6+TGnoFWC6Xi22EZDijKrBE5TNbCEMXSS2EehynCazAimwMsKwlXsvNmjUL+HlxnFhaWuq4cJ5D3I3DAIsiSllZmbqDrGtnGgyemOvHyvlXQiRVYIk31JSUFMTExGD48OEAqmcz6XGyoOWEk1W96BVgAZyDRcYzugLr1KlT8Hg8uv5ss1hdgcUAKzSswIpsHOJurYZey9qLJGJFcqdgBZZxGGBRRBFzFVwuV6OWwGZrlH70Wp2tMSJpBpb/IgYdOnRAVlYWtm/frvt9RdLj2hARNjHAIjswqgJLvHcqiuKzvLqdWB1gOa1KIRAjKrBOnz7d6J9F9mNVBRYD02oNzcCKjo5W24TFhRMnKCsrUwM5DnHXHwMsiihiR6pdIS0crMDSjwwVWKKFMJIqsLRvqF26dGlURWJdGLTUECGeeEwag4+rMT7//HPceOONjrsKHA6jKrBiY2PVi0d2rcxkC6Hx9AywxHsdj9cij8fjUffnRgZYiYmJtW5jBVa1YF7L4kKJkwIssb9xu92NKpigwBhgUUQRAVZjT9bFVeSioiJUVFQ0cqsimwwBViRVCgUKsIzCoKVaeXm5uu9hBZa8rr76arz33nv45z//afWmWE6cSOhdgQXU7HvsOLS3srIS5eXlAIw9IQ6ELYTh4f4ycmmroIx8vQaa3+rECqz9+/dj/Pjx+O6774L+nmBeyyIAdNLFI1HxmZKSYtl8XydjgEURRa8Aq1mzZuoOiW2EjSNWIbSyhTDSK7CMwhOHauL3j4mJ0eWETIRgkf64GiUrK8vqTbCckVVGYr9gxwBLWyHAFkLj6BlgiVXOuL+MPCJEio6ORlxcnKn3LUaWOMntt9+OxYsX46KLLgr6e0KpwFqyZAnuvvtuPPzww7avxjKjdTWSRVu9AURm0ivAioqKQmpqKk6ePIm8vDw1AKHQiTJbcZBpBfH3O3z4MBRFcfTVEjMDrEiqbKuPtn1Qj+eWCAAi/XE1SiRUuDTEyAosOwfbItiLiYlR57aYhS2E4bFzYEqNow0RzD6uc2LLqphZG4pgzrtEBdaf//xn9bZu3brhhhtuCPn+ZCGee2Zf6IgUrMCiiKJXgAXUrDrixDJhM+n5NwmXqP4qKipyfEUdK7DMp+cKhAAfV6NFQkDQEKOGuAP2fv5aNf8KqKnAqqqqQlVVlen3bya2EJIerKyCseuMv/p4vd6QvyeUCiwtuz9+rMAyFgMsiih6hiWRNI/CKGVlZeo8ESsDrMTERDVc2L9/v2XbYQYRppgZYOXl5Tn+hKs+DLDshft044a4A/Z+/soQYAHObyM0ooWQFViRx8wQQYQw1157LQBnVmB5PB7130ePHg1qZlW4AZbdh+AzwDIWAyyKKA0t5xoKBliNJ97YoqKiLN/Jd+7cGQCwb98+S7fDaLt27QJQXZ5ttLS0NHW1z0g+eRDPc7H4Q2NpV0FVFEWXnxnptItxcJ9ubAWWnWe4WRlgiRZCwPnPUXHyr8c+U9tCGE4FCdmXmSHC9u3b8c477+Af//gHAGcGWNrXT+fOnTFu3Lh6v97j8ajDzIMZ4q5l9wBLbL/V5zZOxQCLIgorsOQi/h4pKSlq0GGVSAiwSktL1d+vd+/eht+f2+1WK73seLKqF3GVUq8wQARY5eXljlq1x0ragbGRvk+vqKhAZWUlAFZg+bMywIqKilLnbjm9Auvw4cMAgLZt2zb6Z4kKrKqqKvWYgyKDmQFWx44dceONN6oB/enTp9X9qFNoA6zS0lJs37693q8XIZ7L5ar3vIsVWBQqBlgUUfQMsMQVg0g/2WkMGeZfCZEQYO3evRuKoiA1NVU9iTSanU9W9aL3QOwmTZqoKyrZfU6ELLQBlrhiHKm0jwVnYPmyMsACIuPCWVVVlfrcaNeuXaN/XlxcnDqzNJIrgfVw8uRJvPjii7Z5HEWIIP7+ZnDyKuX+FYwN7YcOHToEoHqfHxMTU+fXBarAcsoqhBzibgwGWBRRWIElF9FaxQDLHDt27ABQXX1l1oo8dj5Z1Ys4EAt0kBYOl8vl00ZIjac9WI70UFA8FkattGfnfYLVAVYkrER49OhRKIoCt9ut2+rEdn7OyeSmm27Cvffei6uuusrqTQmKFVUwbrdbbZdz2vuzf4DV0IISubm5AID27dvX+3NZgUWhYoBFEcWIAIstPOHTcyZZY3Xp0gVAZARYffr0Me0+xYmDGGQeifRuIQRqhvBHetiiF22AlZ+f77jWj1DoXTHoz86LO1gdYInjDie3EIr2wTZt2ug2WkA7B4vC9+233wIAVq5cafGWBMeqEEFcYHLa+3OgGXL1hekiwGqokpIBFoWKARZFFFZgyUXGFsL9+/c7dtCrmFdgxvwrQfxtI7kty4hAgBVY+vJvV3Ba60cojA5p0tLS4HK5oCiK7Z6/sgRYTj7uEG1Hesy/EkQlFyuwIovVAZbd9m8NCTfAaqgCi0PcKVQMsCiiMMCSi0wBVnp6OqKiolBeXu7Yg1xtC6FZxIFJJFcq6t1CCDj3ANkq/gfLTrtyHgqjK7DsvLiD1QFWJLQQ6jnAXWALYWSyKsAS+zenvT+HGmCJMDqcFkKnzMBigGUMBlgUUfScucQAq/HE30OGFsLo6Gj1IFccQDtJVVUVdu/eDcCaACuSXydsIZSf/8FyJD+uIqQxKsAC7BsoWB1gRUILoTjp1WOAu9C8eXMANcccFBlYgaUvoyqwtO81Yh9n9wosBljGYoBFEaOsrAzl5eUAuAqhLGSqwAJqrviKA2gn2bt3LyorK5GYmIiOHTuadr+swGIFlh0wwKohHgsjQxoGWOGJhAtnRlRgiWMMccxBkYEBlr48Hk+t2+o7tgt2Bpb22Ei87p0SYHEVQmMwwKKIIQ5cXC6XLm9mkXAgaTTZAizxJuvECizRPtizZ0/dBuMGgwGWMS1ZrMDSFwOsGqzAqpvVAVYktBAaUYEljjEKCgp0+5mRyO12W70JIWGApa9Ai27o3ULotACLFVjGYIBFEUOEJSkpKbqcwDPAajzZAiwnV2BZMf8K4GqdgDEthE49QLaKf4Bl9/kbjWFmBZbdVifNyckBULP9ZouEFkIjKrBSUlIAsAKrsRhgBceJqxAqihLwfKeuc6Dy8nL19w9liLsIrouLi6EoSribazkOcTcWAyyKGHqHJTwxbzyZZmABkVGBZXaAxQosthDagX9gFcnPV1ZgBaYoCnbt2gUA6NGjhyXbEAkXzoxsIWQFVuMwwAqOmLnmpMC0oqIipBlY4kJwfHx8g8f4gSqwvF6vrYN6VmAZiwEWRQyjAiwnH0gajRVY5rE6wIrk1wmHuMuPAVaNkydPAjB2v2zHACsvL099z+rWrZsl2+D0FkJFUXD8+HEAQMuWLXX7uazA0oc2wAoUZsjGqhAhOTkZAHD69GlT79dIdVUl17UvEscmLVu2hMvlqvdna4+N2rRpo/7brm2EVVVV6uPCAMsYDLAoYjDAko9sAZaowHJagKWtHGAFlrkURTFkBhYrsEJXWVmJbdu2BTzxYoBVQ7TJNdT20Rh2DLD27NkDAEhPT9e1mjIUTm8hLCwsVOfsiH2cHjjEXR/aAMsO+0gGWPqp6+9d1zmQqHYM5vheuz9NTU1VP7ZrgKXdbg5xNwYDLIoYeoclrCxpHK/Xq/5NZGkhFBVYTmshLCgoUA+kOnfubOp9R2qA9cYbb2DcuHE4duyYGpjoedIrKrCKi4u5DwrSfffdh379+mHw4MFqSCOIAEuc6ETa81VLrBzVoUMHw+7DjgHW7t27AQDdu3e3bBucXoElqv/i4uJ03V9qWwjtPFdHJrKHC+Xl5aisrATAAEsPdb0n1nW7du5wQ7QX95o2bap+bNdZlCI4jYmJQVxcnMVb40wMsChisAJLLqdOnVKX5BUn41YTFVhHjhwJuFywXR04cABAdSm3eN6aJVIDrFdffRVLly7F999/r96m5wlZcnKyejJrt0HYVigrK8PcuXMBAJs3b8bs2bPVz7300kt45513ANS0LUXa81VLBFiswPIlAiyr5l8Bzj/uEBWlaWlpDbYdhUKcRHs8HtueFMtAW/knTtJlpd0+s6tgRIDlpMA03AqsYAIs7bFRfHy8+veSPSStC+dfGY8BFkUMBlhyEXMuUlJSEBsba/HWVGvdujVcLhc8Ho+jZgsdPHgQANCxY0fT7ztSFzsQB28iXIqJiUFMTIxuP9/lcqmzIo4cOaLbz3WqRYsW+ZzQbNq0CUD183LGjBnq7ZEeYCmKYmqAVVxcbJtAQaYAy6kthNoAS0+JiYmIjo4GwEHu4fJ6vSgvL1c/lj1cEPv7hIQE9W9vFhHaVFZW+jxmdmZkgKWtwHK73bYPsLgCofEYYFHE4CqEchFX3q1ajjyQ6Oho9QTWSW2EVgZYkdpqKw6eRYBlxIpurVu3BsAAKxgff/wxAOD8888HAGzduhWKotRq8Yj0AOvUqVNqOCIqUo3QtGlTtbVCXMyQ3d69ewFYN8AdcH4LoVEBlsvl4iD3RvJ/ztmlAsuKEEFb8eWUNsJQh7iHMgNLe3HPCQGW+N1FJR7pjwEWRQy95y2xAqtxjFhpSA+inVHM4nACGQKskpISx5TSN0QbjIig1ogAS1RgHT16FKtWrcL06dN5claH9evXAwBmzpyJ6OhoFBQUIDs7u9ZBeaQHWKL6Ki0tTQ1LjOByuWzXRiheW3qHK6Fw+nGHUQEW4DsHi0Ln/5yTPVywMsCKiopS79cpAZaRFVhaffv2tf0MLCP3Y1TN3JpKIguxhVAuIsCSqQILAJo3bw7AWQGWmIGVkZFh+n1rZxuUlZWZPoPLCmVlZepKWuLk3IhVy7QVWHfddReA6gPnF198Uff7sjNFUZCdnQ2gegB3r169sHXrVmzZsgXp6ek+XxvpAZYZKxAKrVq1QnZ2tm0CLBnaQthCGD6uRNg4/vtE2QMsERxZ9XpNTk5GYWEhA6wgA6ydO3fixIkT6NKli+0rsBhgGY8VWBQxjFqFsLy8POCy7FQ/cdIiWwWWEwMsGWZgAZETCmhbK4xsIdRWYAm7du3S/X5k9Ouvv+KVV17BypUrG/zagoIC9Upuhw4d0L9/fwDAli1bal3hFX+nSHmu+jNjBULBbhVY4mTKymXR2UIYPrYQNg5bCEPjtJUIQw2wQlmFEAB69uyJUaNGAYDtAywxQ5cBlnEYYFHEMKoCC3Du1VAjyVqBJVpMGWDpIzo6Wp1v4NSTLn/aA1azKrCESFiy+ejRoxgxYgSmT5+OCRMmNBg2ieqr5s2bIzExUQ2wtm7dWivAGjJkCAAGWGZUYInnrx0CLI/Hoz4nrAywnF75zRZCebGFMDTalQidoK73xJKSEmzduhVvvvmmz8X8cFsIAfsHWKzAMh4DLIoYRgZYTj2YNJKsM7BEBdapU6cs3hJ9lJSU4NChQwCsCbAA3zlYkUAbYJlRgaUNsIycWySLzMxM9UC5tLS0wYoKEWCJdsGePXsCAPbs2aMGWN26dUNWVhY6deoEIHKeqwDw3HPPYdasWQCg7iuMHOAu2KkCSxt0soXQOKzAkpf/PpEVWPUTzzenVGDVN8R9+vTpuPPOO7FixQr19sYEWOJ4iQEW1YUzsCgiKIqiBhJ6BVhutxsxMTGorKxkgBUGGVchBJzXQvjII49AURSkp6dbFhYmJiaioKAgYkIB7YG9CFqMDLBE6ABERgWW/6qLDT2vxFwnEWB17doVAJCVlaUelHfs2BFdunRRV5qLlOeqx+PB//3f/wEApkyZop5s6bXYSX3sFGCJ17Tb7bb0Neb0FkLxvssKLPmwAis0kdRCKC7UaffloaxC6E9UYHGIO9WFFVgUEcrKylBRUQFAvwALqLkaGiknO3qSvQLLCQHWvn378OyzzwIAXn75ZURFWbPLj+QKLMHIFkIxpB9ggBWIqMASc526dOkCoPogU4R/ImCMtFUztfu5yspKU+c82SnA0g5wd7lclm2Hk1sIjxw54tPuqzcOcW8cVmCFxmkBVn0VWOJz2lCTLYQMsIzEAIsigjhgcblcuh6Yi5MdJx5MGk3WIe5OmoG1ePFieL1ejBo1Cpdddpll28EAy5gKLBFgaYmg3skOHz7s83FDV2n9WwibNm2qhidbtmwBUDvAUhQF5eXl+m20pMSwWaB6QRLxWBrxfPVnpwBLnAxbOf8KcG4L4Y8//oiMjAw1nGYLoXxYgRUapwVY4vH0v0imDbDE/xVFYYAFBlhGYoBFEUHsVJOSknStQnHy1VAjeb1edQcvawuhE2ZgiXkEY8eOtXQ7Iu11EujKtBEVWElJSbVOqCMhJGxsCyFQ00a4efNmADWBTaStmqkNsIqLi1mBVQdtBZaVnNhCeOzYMVx99dU+4bsRJ34iUJC9ckhWrMAKjdOGuIvH0/+ic6AAq7S0FJWVlQA4A4uMwQCLIoJ449WenOgh0k7M9XLq1Cl4PB4AQIsWLSzeGl9OaiEUAdbZZ59t6XawAqvmYFZvGRkZPh/bdWZEKPwDrGArsEQLIVB3gBUTE6OumhkJz1cZAqzjx4/7rF4lI1kqsMTztLS0VH0PtbuVK1ciPz8fXbt2xTnnnIMLLrjAkOMCp1XEmM3/OFf2/aMsAZZTnm91BViFhYVqtbJ4LxahXVRUVFj7TDvPwKqsrFT/5gywjMMAiyKCeOPVuwqCAVZ4xElTSkqKerIoC6cEWNnZ2di/fz+ioqIwcuRIS7eFAVbNwHW9de7c2efjSHiMQ6nA8ng82L9/PwCoKwwCNQFWoCH7kfR8FbMIgerf18wAS5wIVVVVSd/WJUsFlraawSknxuJ4oG/fvli+fDm+++47Q+aMOW1VOKMoioIPPvgAO3fu9LldHOeK417ZwwUGWPqqK8AS1UZA7QArOTk5rNeynVsIxbmDy+UyZTGUSMUAiyKCURVY4g3K7mGH2cTjZcSg1sYS21RcXGzreULr168HAAwcONDyk65ICgSAwK0VRgVY2lAGkP+kQg9iBpZ4TOt7Xu3fvx8VFRWIi4tDx44d1dtFgCVEaoDlX4Fl5gys2NhYdbC27G2EslRgxcXFqW2ETmlNMqvdxmktXUb5+uuv8fvf/x69e/f2uV3sD0V1nOzvNVYHWE4LTMXvEaiFUBCBU2NWIATsHWCJ/VmzZs3gdrst3hrnYoBFEcGoCqxu3boBAHbv3q3rz3U6I5fKbqyUlBT1ipGd52CJE0Lt3B+rRFIgAJhbgeUfYDn9MfZ6veqS3SKEqu9EateuXQCAHj16+BxMasMsgAEWYH4LIWCfOViyVGABzltNTzwHjR4n4LSKGKOsWrUq4O3iOFr8nWTfP2qrgKzgtOebfwVWoNlW/hVY4cy/Auw9A4vzr8zBAIsiglEVWL169QJQc5JEwRE7eBkrsKKiotQTBDtX1sn0GEfaap2BDlgDrRioB/8WQtmvijdWXl6eOvtHhHf1nUiJfXPPnj19bvf/ezDAqj7pEFWnDLB8yVKBBdScFDqlksiKAEtRFEPvyw5eeOEFPPHEE7Uei+joaPXf2s/ZrQJLXIC0KkgQYbfTAiwxSzLQRTnxnBC/c7jhoZ1nYIn9GQMsY0U3/CVE9mdUBZY4KfKfFUD1k7kCC6gOfU6dOmXrAEumx1gEx5EQCACBWwiNCrAirQJLtA+2aNFCPZGv7yBX7JvFxQbBf/VTBli+IZIZLYSAfQIssyvT6sMAKzziZNrj8aC0tNSQlWHtYv369Zg5cyaA6urUSZMmqZ/TBliFhYXq4+ZfgSVzuOD1ei0fVSGOe8rKyiy5f72J45pLL70UeXl5GDt2LCZMmODzNeI50dj2TW2A5fV6dV093miiMpbzr4xln2cEUSMYVYElAqw9e/ZIv4qSTGSqDgpEhD7vvPOObVd6kqmMOZICASDwFVejTnwjLcAS7YNt2rRRQ5ZgKrD8A6zU1FSfBSQYYNU8tjExMYiNjTXl/u0SYFk9T0eLLYThadKkiToewClVMeF66qmn1H//6U9/8glZxIpygO8iD3ZqISwsLFSPya0KEsSsOidUnldVVam/R/PmzfHkk09i/Pjxtc6p/CuwGhtgAXI/zwIRj4EMFzucjAEWRQSjKrA6deqEmJgYlJaWqku1U8Nkqg4K5PbbbwcAvPnmm3j55Zct3prwyBQSihMucYLsdGaeHPkfnJeUlDg6TNde3QwmaBIVWP4thC6Xy6cKiwFWTYhk5oF327ZtAQA5OTmm3Wc4WIFlHLMCLJfL5bi5ROHYvXs3PvvsM/XjgwcPYsmSJerH2mDUf0YeUPN3Ki8vl/YCnzjGTEhI0P3CdbCctEq5dhaVNpTyP/745ZdfkJ6ejs8//7zW14YiISFBDZvtNgfLzIVQIhkDLIoIRlVgRUdHo3v37gA4BysUMoUrgdx222345z//CQB47rnnUFVVZfEWhU6mkLBv374AgC1btli8JeYI1EJoFO1JmeCUloVAxMlVs2bN1APEulpZCgsL1dC0R48etT6vbetkgGVNgCUG8WdlZZl2n+GQsQLLaQGWGe9VkRxgHT58GLfeeisGDhwIRVFw6aWXqhfrfvzxR/XrtIvXaCuwxH5WG/zLuo+0un0Q8G0htPvMNbH/i4mJQVxcnHp7oOq2nJwc/PTTTwDC31+6XK4G399lJV4TDLCMxQCLIoJRFVhAzZX97du36/6znUqmcKUuU6dORYsWLXDgwAF88cUXVm9OyGRqIRw4cCCA6pDXCVcjG+J/cmT0Se+uXbuwcuVK9WO7HfCFQhtgNRQ0iaqeZs2aBRwmG+kBVnl5uU/YKsI+Mw+8xUq+mZmZpt1nOGSswHJCC2FFRYW6vzS6AguI3ABLURTcfPPNmDt3rnqB4y9/+QvGjRsHwDfAaqgCKy0tTa2OkfW9RqYAS1EUdXEMuxLvE/7vow21ZzZmBUixr7VrBVYkz9gzAwMsighGVWABwJAhQwAAa9eu1f1nO5XsFVhA9XPlD3/4AwDg66+/tnhrQifTY9y2bVu0aNECXq8X27Zts3pzDKUoSq0KLKMDgTZt2mDUqFHqzA0nBy+i6kQbYNV1EiXausWqSf4ivYVQ7CMEKyuwcnJypA63ZarAclILoXgOalf/NZI4obbrY7d582bs3bs35O/7+OOP8cMPP6gfX3bZZTjrrLMwduxYAMDGjRvVsKquCixtiCt7dYwMAZZ4Pwbs30ZY1/6voQCrMftLuwdYrMAyFgMsighGVmCdeeaZAIAPP/wQY8eOtWW1jtlkOLgIxujRowEAv/32m8VbEhpFUaSqcnO5XBgwYAAAYNOmTRZvjbGKi4trtQuYFQjIflKhB1EdkJKS0uAQdxFgpaenB/x8XQGWOJH+6aefbN/6UR//VVbFPBszA6y0tDQ1kAnnxNwsMlVgOWmIuwhNmjdvDrfbbfj92bkCKzc3FwMHDlRD31D88ssvAIAZM2agqKgIn376KYDqKtR+/foBAFasWAHA93kVqIUwKSlJ+pBfhmPM2NhYtVLN7m39DLCCxxZCczDAoohgZAXWGWecob5JLVu2DFdddZXu9+E0MrW31Wfo0KEAqgdB2ykUKCwsVOd2yfIYizbCzZs3W7wlxhInRm63Ww1Ap06dasp9y35SoYdQWggbCrBEcAL4HmzeeuutSEhIwNKlS/H222/rsdlS0lZaaJl54O1yuWzRRsgKLGOIYwEz2geBmsfOjgHWqlWr1H+HGqwfPnwYQHXFY5MmTXxWYB0+fDiA6ioswHe/EKiFsEmTJtJfLJEhwHK5XI4Z5G5FgCX7c6wubCE0BwMsighGVmAlJyfXOviye7+7kSorK9U3Q9krsNq2bYu2bdvC6/XaqnJInBTEx8dbtgKPv0gLsJo2bYoFCxbg+++/x7333mvKfdv1gC8UoQxxbyjA0lbTaN8bunfvjlmzZgEAvvrqq0Zvs6zqCrDMrjKyU4AlQwWWkwIss1YgFOxcgXXo0CH136FW9IjvFat+ag0aNAhAdYClKEqtCqzPP/8c//jHP9RKmCZNmjTYvm01GQIsoKaNkAFW6OxagcUWQnMwwKKIYGQFFgC1BFtw+kl6Y4gDC5fLZcrMi8YSM87s1EYoY4WbWInQ6YsdaIedNmvWDBMnTjSlNQaIjAqsQDOwwq3A0h5g+v+NRMurGGzuRCLA8h+0ywDLV1VVlfq8a+iEzQxOaiE0+73KzgFWbm6u+u9Q9/GiAqtdu3a1PicuLn399ddITk5GZWWl+rkTJ07g6quvxmOPPaa+BrQzsGR9rxHHmVa/XrUrEdoZA6zgsYXQHAywKCIYWYEFAC+//DImTpyoHoRxoHvdxIFFs2bNTDuxbwzRRrh+/XqLtyR4MgZYvXr1AlA9KFrbluA04sSoMavvhCvSKrAaqgIQqxDWNcRdPCcDESsUOjnAEvti/8fH7ACre/fuAIAdO3aYer/B0laqWV3RATirAsvs1kw7B1gHDhxQ/x1KRY+iKPVWYIkAC6gdFmhnYAlsIQyeU1oItZXlWgywamMLoTkYYFFEMLoCq0+fPvj+++9x9913A2CAVR9ZDiyCJSoxZD25CkTGxzgpKQmdOnUC4OwqrLoO9MwQCRVYdQ1x//rrrzFy5Ejs3r0bQPVJW0MVWKNHj8bzzz+Pb775ptbnxID3o0ePOnaQuwhm/AMss68ci33s5s2bpXysxQWBlJQUn9lBVhEVWE4IsMwejm/nAEtboRhKIFJQUKBWAAUKsOqrhA90sUnbQijre40sx0CR3kLYmAt5soekdWELoTkYYFFEMLoCSxg2bBgAYMOGDYbej52JkyarS7uD1aNHDwDArl27pDy5CkTGCiygOugFIiPAYgWWMeoa4n755Zdj9erVuOeeewBUn7SJk+O6KrAA4N5778XFF19c63ZRgVVWVqYevDtNXQGW2RVYffr0gdvtxqlTp9SqOZmYPaepIaICq6ysDOXl5RZvTeOYfbJn1wBLURSfACuU4EhUXzVr1qzOi7iixd+f/+MUGxuLmJgY6d9rxL7N6gDL6S2EDT2+kViBxRZCczDAooggAiyjB1pnZGQAqJk3QLXZLcDq1q0bXC4X8vPzbdP6Jp5/4iRcFiLA2rZtm8VbYhztDCyzyX5VvLGqqqrUg1ntEHdtsLxmzRqflpnU1NSwLlxo22Sc2kYoS4AVFxentnPKuFiGbBcEtCeFdq/CsirAstvjdvLkSZ9tDqWip775V8L777+PO++8s9bt/hftxN9J9iHu4jUrS4AVqRVYkRhgsYXQHAywKCKIEzqjdyht2rQBUH3FVjsIk2poKyjsICEhAR07dgQAtT1JdqKKoa7WKatEwiB3GSqw7HbAFyxtNUBKSkrACxIFBQXYuHGjLlfgnT4HS7TZtG/f3ud2K64cy7xKqTgZlqUCy+122zaI8Wd2C6Hsw8frsnfvXp+PQwlERJhfX4A1cOBAvP766/VWqwI1fyeZH8f169fjyJEjcLvdlh8DOaWFUOxn/I9rGgqwGlM0IMIvu+3j2EJoDgZYFBHMqsBKS0uD2+2GoigBh1+S/SqwgJo2QrsEWGL2T0MHo2YTs27WrVuHiooKi7fGGFbOwGrZsiWA6kH5TiTC78TERMTExCA6Otrn8+Ix//bbb3XZz4gAy6mPp3iMWrVqhaiomsNBMf/LTCLAkrECS1TeylKBBdS0Edp9JUKzT/bsWqUqwmYhlO0XFViB5l/5+/TTTxEbG4snn3wy4Lw3O1RgzZ49GwDwu9/9zvLQ2SkthOIijn9Vf0Pvry6XK+z7FO9Ddnr/9Xq96t+aAZaxGGBRRDCrAsvtdqsnkU69at9Ydg6wdu3aZfGWBEfWCqxBgwahZcuWKCwsxC+//GL15hjCyhZCcYIirrg7TX3Vmy1btsR9990HoHq5eT0DLKfuy7WPkdfrVW8fP3686dvSr18/AMDOnTtNv++GyNZCCDhnkLvZFVh2DbD8gyK9K7CEESNGoKioCLNmzQp4Au5fgSVbgFVUVITPP/8cAPCXv/zF4q1xTgthXQFWXFyc+m8xQkUvoqPlyJEjuv5cI2n3K2whNBYDLHI8RVFMq8AC7LnTNZPdWggBe1VgKYqiBliyVWBFRUVh4sSJAIDvvvvO4q0xhpUthOIExakz+ALtO0aMGAEAmD9/vs/MDPG1DLDqFijkO/fcc31OSswirrb7V5rIQLYh7gArsMLllACrvu3Py8vDzTffjFtuuQWKoiA3NxdAcAEWALXyKtDfRNwmawthQUEBFEVBdHS0GopbSbQQOrUCCwCuvPJKpKenY+vWrThy5EhQlX7BsOP7r/Z1asb5ZiRjgEWOV15erg6iZIBlPTtWYHXr1g0AsG/fPou3pGGnTp1SA1v/2TYyuOiiiwAACxcutHhLjGFlC6E4QXFqBZaoNtEGWAsWLMCOHTswduxY9TEvLCxU9zONCcpFqGKnA+hgKYrisy+eNGkSUlNT8cYbb1iyPWJWmYwBlowVWCLAYgVWaJwSYNVV0VNRUYGzzz4b77zzDubNm4fc3FwcPHgQANRZnsGqL8CStYXQzIvVwXBCBVZxcbH6dw4UYH322WfYu3cvkpKS0Lp161qt/eES51InT560zWqr2m4fbVs+6U+fZxmRxLRvHGaUdDLAqp8dK7BENY1sB2uBiPlXLVu2VK/+yWT06NEAqge5K4rSqBkJMrKyhVBbgeX1eh13ABVo39GyZUu1bVtbgcUWwvoVFxerC400b94c8+fPR0lJiWVzO8TfqaSkBOXl5ZZUgdVFtiHugHNaCK2swLLT+0+wAdauXbuwY8cO9ePjx4/rGmDJPsRdbA8DLP2I97+EhISAQbPL5fIJrdxuty73m5qaipiYGFRWVuLYsWPSjcQIhCsQmsdZR7dEAYg3NLfbHXAopd4YYNXPjhVYdrpqK2v7oCBOvLxer60P6upiZQth69at4XK5UFVVpbY9OYkIsET1iT8GWMETj09MTAwSExPhcrksHTqbkpKihgli22TBIe7GsaoCS1EU21R1AMG3EPq3j+fk5KjHopFUgSVLgOCEFkJt+2Awga9elf9RUVG2q4LmCoTmYYBFjmf2GxoDrPoxwDKW7AGW9nUoTl6cxMoWwpiYGPWAz4lthA1Vb+odYInAQsa2tsbSPj4yVKFERUWpfyvZHm8ZWwhZgRUebWWOHd7PBf/3yrou/vgHWBs3bgRQ/XuH+vwNZgaWbAEWK7D0V9/8q0DefvttjBgxAl9++WWj79tu51Pi+ccAy3gMsMjxzH5Ds9sO12x2bCG0Y4Ala7m12+1WH08nBlhWthACzp6DFWgGlpZ2BpYe+xkxl0m2iiA9yHghQWyLTI+31+tVAzWZWgidMANLURTTK7BiYmLUdic7hQrBVmD5H3euX78eQHX1VahBdaCTcHEcrd3XykS2CqxIDLB69OiB1atX4/LLL2/0fdutCpothOZhgEWOxwoseVRVVakHPDKdODVEHISUl5fD4/FYvDX1E8878TyUkawHv3qwsoUQcHaAZXYFlrYiSCwE4hTieVpXO6YVZBzknp+fr+7zZarAckILYVlZmfq6MrNiwU4XpARxYixa0oKtwNIGWKEK9DcRrwVZ38NlG+LutBZCs9ntfIothOZhgEWOZ3YiLipfsrKysHbtWlPu0y60B9synTg1RPvckf1KmpjXIgZby0gbNDhJVVWVelJkVYAllrB2coBl1gws8b2VlZW2OtkNhqjcsep5GoiMAZYYgN2yZUupBss7oYVQu/9ngFU/cRwr3tfrOg4RJ/pi39WYiuxAf5OqqioA8gZY2lXgZBCJFVh6EvdplwCLLYTmYYBFjicOksyaSdOlSxdcc8018Hg8uOaaa7Bnzx5T7tcOxAloUlKSKQP19aK9mif7gYgIsGRqd/Hn1ABLVLUA1szAAiK7Aks85hUVFTh27BiAxgVYSUlJaruRTG1tepC5Akumx1oEWBkZGRZviS8nVGBpq4r0WrksGHYOsMT7ekND3AcMGOBzu14VWGLlUrGvLS4ulqoqXbYKLAZYjSMqsNhCSP4YYJHjiStEZs1YAIC33noLPXr0QHZ2NkaMGIFx48ahdevW+O2330zbBhnJOHclGFFRUWopuOwHvQywrCOGPTdt2hSxsbGWbIP4u8tUxaKXhmZgaU+4Kioq6v3aYLhcLinnMulBxgosGYe4HzhwAEB4AYCRnFSBZeaxGeCMAKuhFkL/AEuvCiz/AAuQ631ctiHuTmohFAvEmMluFVhsITSPLgFWSUkJ3nrrLUyePBmDBw9G165dMWzYMEyZMgVfffWV42ZHkL2IAMvMioiUlBT89NNPGDZsGE6dOoWlS5fi2LFj+OCDD0zbBhnZcYC7YJeDXjsEWLK2HzSWDKuVOWG4c10a2n/ExMTUavNq7L5GxlBFD+L5IWMFlkyPtajAki3AcsLr3KqTPbu8l2uJkCjYFsL+/fv73N6vX7+Q7zPQ3+W8884DUB3MiOpUmd7HOcRdfyIUFdXdZrLbBTkGWOZpdID12muvYdSoUfjpp5/Qr18/3HHHHXjwwQcxZcoUtG/fHvPmzcPo0aOxcuVKPbaXKGRmtxAKrVu3xqpVq/DBBx+gc+fOAMAKLJtWYAH2OOj1eDxSrpjlz+kVWOJE3AqiokbbzugUwQTg2mqO5OTkRrcmObUCiy2EwREVWLK2EBYUFNj2IjErsILnPwMr0LYXFxerYZK2Ais+Ph6DBg0K+T61J+F/+tOf8Nlnn+Haa68FUF2dKuOFKNkqsOweYCmKoo4jsCLAkvGiRn2sXsQnkkQ35pufeOIJ9OjRAxs2bKj36yorKzF37lwUFxdj4sSJjblLopBZ0UIoREdH47rrrkPv3r0xePBgrFy5Eo899hgmTZqEXr16mb49VhNzaWQeMF4XOxz05ufnw+v1ApBrxSx/Tg2wxEEWK7D05/V6g6oaatq0qRok6hGUyxiq6IEthMGRtQJLhLgejwfFxcWWHN80FiuwghfMEHdRfZWYmIguXbqotw8cODCslnbt36VXr1646qqrfD7ftGlTnDp1SqoAS7YKLLu3EBYUFKiPqVggxkzaAEtRFLhcLtO3IRTitSDT+6pThV2BtXHjRtxwww2YNGlSg18bExOD22+/HU2bNlV3wkRmsaoCS6tPnz6IjY1FZWUl/vGPf+B3v/udZdtiJSt76RvLDge9on0wJSVF6iH5Ml651YMMLYTiwMlpAVZhYaFaaRJsBZYeAZaMoYoeZK7AkumxljXASkhIUFu47PpaF8dmDLAaFswQd9Hq1aZNG58q4O7du4d1n9q/S6BASLyPy1TtyyHu+hLVV6mpqZY8puJ5XF5ebovXKyuwzBN2gDVo0KB6S6qXLVuGpUuX+tx21llnsS+UTGfFDCx/sbGxPuW3mzZtctwV/WBYuZpJY9nhoNcO868A51ZgydBCKAIJmU4q9CBO0uPi4tSr2oFoAyw9QgenthDKWIElW7VbeXm5GgrI1kLocrlsvxKhCGWsaiG0U6gQTAWWeK62bdvWp3Xaf6B7sBoKsMS+Q6YLUeL4TJYKLKcEWFZUXwG+K5bLdGGjLgywzKPbKoTp6en4+9//jhMnTuChhx7CJZdcgldffRWPPPKIXndBFBYrWwi1/K+CfffddxZtiXWcEGDJfCDCAMtaMrUQFhUVSbW8eWMFuwCE9kKFmD3YGLKFKnqReYj78ePHLd6Sajk5OQCqT0Jl3KfavV2YLYTBqaysVFdVDaaFUIQNDzzwAM444wzcddddYd1vsBVYMgVYslVgicetuLhYHe9gJ1bOvwKqg3oZK3PrIgIsKwsmIoVuAdbll1+Oxx57DEVFRXjqqacwZ84cfPLJJ5aHBkQytBACwD//+U9MnDgR48ePBwAsWLDA0u2xgp0DLHFAJPNBr10CLBkPfPUgUwsh4KwqLBFgNRS4aI859AiwnN5CKNOVYlHllJ+fr+7LrCRmNrZu3VrK2SviuS7ze1J9rBribof3ci3t6JVgWwgB4KmnnsKaNWvCPva1Y4Al2xD3Vq1aweVywePxSLFPC5XVARYgZ2t5XWR8X3Uq3QKsjIwMKIqCP/3pTzj77LPV2VhcfZCsJksFVv/+/fH999/jwQcfBACsWrXK0u2xgvaEwG7scNXWLgGWUyuwZGghjIuLQ1xcHABnBlgNVWAZFWCxAst4TZo0UUOsHTt2WLw1Nc85WVfNtcN7Un04Ays4IsByu93q67W0tLTW6pPaFkI9aEOrQH8jGQMs2Ya4x8TEqDNfc3NzLd6a0DHACg2HuJtHtwDrjDPOwPjx43Hy5EnMmTMHBw4cwD333IONGzfqdRdEYZGlAksQ8wgOHDjgqBPMYNi5AssOB70MsKwlQwUWYP/WokDE78IAq/EURZH2SnHv3r0ByBVgNfScs4od3pPqI96vzN5f2u1x07Zaim33er1qW6Ggd4BlxyHuslVgAUD79u0BMMAKl9g/iOMrmcn6vupEugVYY8aMweLFi/Hjjz8iPT0dGRkZeOmll7BmzRq97oIoLDIMcddKTU1V3wy2b99u8daYp6ioSD24YIBlDLsEWDJeudWDDDOwAGeuRBhsmKCdM8IZWIGVlJSo89FkqsACGGCFwg7vSfURs87EXCez2O1x0w671wZJ/nOw/GdgNZYdh7jLVoEFMMBqLLtUYMl8YciJovX6QR6PBz/++COOHj2qHkAqioKFCxdi/vz5et0NUchkaSHU6tevHw4dOoStW7fizDPPtHpzTCGqrxITE6X6WwTLDge9okVT9gCLFVjGcuJKhMGGCdoB4HrsZ5w4A0sEm1FRUdKtDM0AK3jaAdF2xAArONoKrJiYGERFRcHr9aK0tNTnuek/A6uxkpKS4HK5oChKwH2pjBeiZBviDjDAaiy7BFjFxcVqWy8DLOPpFmCNHz8e27ZtQ48ePRAdXfNjd+/erdddEIVFthZCoDrAWrRoEbZu3Wr1pphGBFhiHoDd2OGg98CBAwCAjh07Wrwl9XNigFVRUaH+PlbOwAKc2UIY7BB3vVewEwFWfn4+FEWRcph3qLRXiWX7fWQKsIJtW7WKHd6T6sMAKzjaAMvlciEhIQHFxcU+219VVaU+nnpVYMXHx+Ppp59GWVlZwNeAjAGWeExYgRW6wsJCzJ49G9dddx369+8PRVEYYIVAvK+63W6pAlSn0i3A2r17N/bv31/rj7Z27Vq97oIoZIqiSBtgAYjIAMuO7YNAzQFRoOWrZaAoCvbv3w8A6NSpk6Xb0hAnBlii+ioqKsryE15x9c9JFViiha+hgdq33347VqxYgfPOO0+X+xUHzx6PB4WFhY64sirjAHdBBFgHDx5ESUmJpSeisldgieo5uwQx/kTgYvZFLbsFWP7D7hMTE1FcXOxzLHLs2DEoigK3261rBfb9999f5+dknIHFCqzwPfroo3j22Wfx0ksv4dixYyguLkZlZSUA/ar6wmGXGVjacTWyXRhyIt1mYD399NP49ddfa93uv0oGkZm0JZ0yta317dsXAAMsO5H9oDcvL0+9Uit7BZY48C0qKvKZWWRnon0zNTUVUVG6vbWGxUkVWL/++isef/xxn8e3PjfccANWr16Nr776Spf7T0hIUFd1lP0KcLBkntPRvHlzxMfHA6h5z7CK7AGW7O9J9amoqFD3T6zAqp94nMT7pghntAGWaB9s1aoV3G63KdslcwUWA6zQlJaW4qWXXgJQfVz2zDPPqNVXLVq0UN8DrWC3CiwZ31edSLcKrPnz52P79u0+J06KomDHjh3qYEEis4krV1FRUVKVFHfv3h1A9QG61VeZzcIAy1iifbBt27bqCaCstGFySUmJVOFyuMSCDD179rR4S5w1xH348OE+HzcUYLlcLowYMULXbUhNTcWRI0dw6tQp6asbgyFzBZbL5ULLli2RnZ2N48eP6zKIP1wMsIwjFhxxu90Nvqb1Jns1tb89e/YAqFmUItDfXe8VCIMh2xB3RVE4xD1M8+fPR3l5ufrxe++9p76PWtk+CDDAosB0C7B69OiBcePGoVmzZmrpnNfrxTfffKPXXRCFTDvAXaaSzmbNmiE5ORmnT5/GgQMH1LYJJ7N7gCWu6Ml6siDaBzMyMqzdkCAkJiaqw2GLioocEWBt3rwZADBgwACLt8SZQ9wFK8IEbYDlBPv27QNgbVtIfbQBlpWCnbtmFTsHWKKiMi0tzfSKVbs9brt27QJQc3EkUAWW3isQBkO2CqyKigq1olvGCqxTp06htLRUqm0Tli1bBgC488478cYbbyArK0udYc0AKzgMsMylW4D1pz/9Ca1atfJ5Izpw4AAuu+wyve6CTFJQUIB//OMfOH36NF577TXpqznqIyqwZDtBdrlc6NSpEzZv3oz9+/dHRIAlDljtGmDJftBrl/lXQPXzPykpCYWFhSgsLJT2RDoUIsDq37+/xVvirBZCf2ZXawA1B9BOCbA2bNgAABg8eLDFWxKYmOEjS4AlewWWHVchtGqAOyD/xSh/dQVYgSqwzHwvlW3WojbQk6kCKyUlBXFxcSgvL8fRo0elPEYT40wmTJiAr776CkeOHMGiRYsAMMAKFgMsc+kWYCUnJ+Orr75CUVGROnOopKQE8+bNw6pVq/S6GzJYRUUFRo0ahW3btgGoLln+xz/+YfFWhU87VE82nTt3VgOsSGD3CizZAyzRQijjwVEgIsByyiB3mSqwnNRC6M+KAEvcp+wH0MGSPcASoYZoM7OKXQIsWd+T6mNlgGWnx83j8SAzMxNATYAVqAXSihZC8bo4ffo0vF6v5bMfxeMRFRWFmJgYS7dFy+VyISUlBceOHZPyPdnj8ajnfP3798eAAQNw5MgRfP/99wCsD7DEEPeysjKpR66I800GWObQLcC6+uqrkZ2djfLycnTo0AEAkJ2djfHjx+t1F2SCH374Qd2RAcCTTz6JKVOmqH9Tu5E5wBJBAwMse5D9oNdOLYSAs1YiPHXqFHJycgDIUYElTgrXr1+PwsJCKfd/waiqqqp1m5UBlhMqsIqKitSKDtkDLFZg1U/296T6WLUCIeD7uCmKItV4CX8HDhxARUUF4uLi1BnDsrQQiteFoigoKCiwZN+sJV4HYkSBTJo1ayZtgJWVlYWysjIkJCSgS5cuGDhwIBYtWgSPxwPA+gArKSkJ0dHRqKqqwsmTJ6UNsEQFll2Pt+xGt7i8b9++2Lp1K+bNm4d//vOfWLp0Kb799ltTqwGKi4sxbdo0zJo1CzNmzPAZSEfB+eijjwAA06dPx6BBg1BeXo5ffvnF4q0Kn6wthEBNgCXmkTidCLCsOGDVg+yDXw8ePAjAPgGWbPMzGmPjxo0Aqh97GeblTJw4EZ07d8ahQ4fw97//3erNCVug1hQrHl8ntRBu3rwZiqKgTZs20rbuyhBglZWVqceQsgZYTZo0AWDvAMvKCiyg+u8sMxE2d+/eXV1dsL4WQjMDrLi4OHVbRNhrJXFsJuOMKZnb+kX7YJ8+feB2u2tVkVsdYLlcLlu0EbKF0Fy6BVhVVVXIzc3FWWedhU8++QRlZWVITEzE888/r9ddNGjq1KkYP348Zs+ejWHDhmHWrFmm3bdMysrK8Ouvv2LHjh0hfV9paSm+/PJLAMB1112Hfv36AbB3wCJzIi5WlImECqyysjL1b2H3CixZK4asuALbGE6qwFqwYAEAYPTo0RZvSTXte+/nn39u7cY0gv/BflJSkiWtIU5qIRTtg0OGDLF4S+omQ4Alnnsul0vK4wfAGRVYVs7AAuR/7MQgbe3qtvW1EJodSstUnSpaLWU8xhQBlgxBn78tW7YAqKke96/MtTrAAuwxB4sBlrl0C7DOOeccDBo0CMuXL8e1116LLl26oGfPnhg4cKBed1GvQ4cO4ZNPPsGFF14IALjwwgvx+uuvO+LqfigURcFll12G4cOHo0+fPnjvvfeC/t53330XRUVF6NSpE0aOHKkGLHv37jVqcw0ndigyVEX4q6+F8JtvvsGECRPw8ssvm7tRBhHVV7GxsdJezW6I6MMvKChAZWWlxVvjy+PxqCcEMh68BeKUAMvr9eKTTz4BAEyePNniranRp08fAHKcWITLP8CyqkVFppO0xpJ9/hUgR4ClXYHQ6tk+dbFzgCXmm4mB/WaKjo5GbGwsAPkfO3FhSjvGw78CS1EUyy5gieM5GfaNolvkrLPOsnhLahOPk4wVWKLYoW/fvgCqjx2uvPJK9fMyBFji+FvmAEu76j0ZT7cZWFdddRWuuuoq9ePt27dj7969GDRokF53Ua9ly5ahRYsW6op5LVu2RFxcHNauXYvzzjvPlG2QwX//+1/88MMP6scPPvggJk2ahLi4uHq/z+Px4NlnnwUA3HvvvXC5XGqA5YQKLBkTcRFgHT9+HKdPn1a3ceHChbj00ksBVM8k69SpEy655BKrNlMX2vZB2WYTBKt58+aIioqC1+vFiRMnpKp0ysvLg9frhcvlsuSKdjicEmCtXr0aOTk5SE5OxoQJE6zeHJU4YC4qKkJVVRWio3V7uzeN/8G+VeE3AyxzyRRgyXzBxc6rEIoTUXFiarbExERUVFRIH2CJfY42vPevwMrPz1fbXa2qwJKhsujnn38GIGeAJXMLoVgAqEuXLgCqq07nzJmD3NxcxMXFSXGsKyqw8vLyLN6Suon9MAMsc4R9WamhvvFmzZphyJAhIVUANUZubq76BBeSkpJw6NChWl9bXl6O06dP+/znBF6vV22bnDZtGtq3b4+DBw9izpw5DX7v4sWLsWfPHqSmpuK2224DAEcEWOLNQsYKrJSUFKSnpwMANm3apN7+6aef+nzdvffea+p2GcHuA9yB6pVtZFne3Z94fNPS0mwTVDhlBtbatWsBAOedd556AUUG2n2eXd/j/A/2raqEccoMrIqKCrVdhAFW/ewUYMkewgQiAiz/43azyD7TUgj0PPQf4i7aB5s1a2b6e5AsFVhidAoAjBo1ytJtCUTmFkIxP1UsEgBUb+/q1avx008/SVGBaocWQgZY5gr7Wdm7d2/MmzdP/bhjx45wu90+/0VFReHWW2/VZUMb4nK5au24KyoqAs7LmD17NlJSUtT/RIhgd8eOHUNUVBSaNm2KRx55BPfccw8AqEuh1ue7774DUL2apHjxiQDrwIED6moUdiNzBRZQM4fkt99+U2/76aefAABz584FUN3CafcFCY4dOwbA3gEWUHNiJX4fWYjtsdOAfKdUYIl9jGyVbzExMepJmowHzcHwD7ACrUpoBqfMwNq+fTsqKyuRkpKivr/LSLyWCgsLLXvvEy1ZVrS4BYsBVvjs8tjVF2CJbbdigLsgSwXWb7/9hoqKCrRq1Qpdu3a1dFsCkbWFsKKiQn3+aAMsAFJ1S9ghwBLHsmJxDTJW2AHW0qVLcd1116kf33vvvVi2bBmysrKwd+9e7N27F1lZWXj44Yf12M4GtWvXrtaOoaioKGDv7qxZs1BQUKD+l52dbco2Gq1NmzZYt24d1qxZgxYtWuCcc84BUN0XrihKvd+7ePFiAPBpgenQoQOio6NRWVkZsJLNDmSuwAJqB1i5ubnIyspCVFQUrrjiCjWUzc3NtWwb9eCECixAjsqAQOz4+DolwBIVZDKG5LIeNAfL/6TIqtlzTmkh1LYPynRy4i8lJUVdcc2qfa0dVnUVJ0pVVVXSzWVsCAOs4ATTQmjlAi6y7BvFHCdZ922ythDm5uZCURTExcVJdxFOyw4zsEQFFgMsc4QdYHXq1EkdgggAM2bMwNlnn41OnTohIyND/c+sCqyxY8ciJycHFRUVAKAGLmeccUatr42Li0NycrLPf04RFRWF3r17A6gOR2JjY3H8+HFkZWXV+T2HDh3Ctm3b4HK5MG7cOPV2t9utHrzZtY3QbhVYovpq0KBBSElJUQd35uTkWLOBOrFjwBKIqHBigNV4TmkhlHkfI3PbQjBkq8AqKCiwbTUyUPM+I3P7IODbri2GfZtNzIXxr0qQiQgyAPmDGK2ysjJ1exlg1S+UFkKz519pt8vq9xhxjiJrZams78Xa9kEZgz+BFVjkL+xhKe+++26DVT3Hjx/HwYMH8cILL4R7N0Fr27YtLrjgAixfvhzjx4/HokWLMG3aNKlmkpgtLi4Ow4YNwy+//IJVq1ahW7duAb9u0aJFAIChQ4fWGqjZuXNnZGVlITMzU63oshOZTy6BmgBr+/btKCkpwX//+18AwJgxYwAA6enpyMzMtH2VoB0DlkBkbSG04+PrlAossY8RgZxM7F6BJUuAlZaWBpfLBUVRcOLECVu9zrRWrVoFIPCFPdmkpqbi6NGjllV22KECKyYmBm63Gx6PByUlJdJWmvsTf9OoqCjLjs382/BkVV8Flth2cVJvRburLBVYYjVvWQMsWd+LA82/khGHuJO/sAOsjz76CLt27UL79u0RFRWFffv2obi4GP369VO/5ujRo6aWtL7++uv4y1/+gjVr1uDkyZN46qmnTLtvWZ111ln45ZdfsHLlStx4440Bv+bDDz8EgIAr3fXv3x+LFy/G+vXrMWXKFEO31QiytxC2bdsWbdq0wZEjR7Bs2TJ8+eWXAKAuYSsqsJwSYNlpRlMgbCHUj9MCLBlDclmv+gbL/2DfrJEE/mJiYtCmTRscPnwYOTk5tnqdCcXFxdi4cSMAOYcc+7N6cL4dTuxcLhcSExNRWFhoq5UIReCSmppq2YBoO1RgKYoSVAWWle9BslRgiQBLrO4tG1lbCO2wnwPsUYHFFkJzhR1gPfbYY2jZsqU6AP2OO+7Ayy+/7NNWWFJSoq6KZ4YWLVrgrbfeMu3+7GDs2LF49tln8e2330JRlFoloocPH1bnX91www21vn/EiBEAgDVr1hi/sQaQ+eQSqD4Aveiii/D2229j+vTpKCgoQNu2bdUTDPH6ckqAZccTPy3ZAyw7BYROaSG0wwwsq08uwiUO9v/1r3/hoosuQo8ePSzblg4dOqgB1tChQy3bjnCtXbsWHo8H6enptli4xsrKDkVRbHNiJwIsmYMYf1bPvwLsEWCVlpaqs80CBVgrVqzAtddeqwZZVrwHyVaBJXuAJdt7sTi3kH0/J/sMLEVR2EJosrAvfQwZMsTnIKh9+/Y+4RVQXe4vKkrIGuPGjUNSUhJyc3PVJWa15s+fD6/Xi5EjRwZcuUMEWJs2bZJ+ueFAxAmQjCeXgqi2Ej38kyZNUq9KitcYZ2DJQQREsrUQ2nGVR1ZgGU/Wq77BEgf7zZs3R8+ePS2d0WH3eYS//PILgOqqbDuw8sT4xIkT6vGO+LvLyg5BjD8GWMERz3232+3TlqSdffbxxx9jwYIFAKxpY5fhIkl5ebk691jWAIsthI0jewVWWVmZOlaJLYTm0K12t7y8HA899BDWrFmDbdu24dNPP8W5557r01JI5ouPj8eFF14IAPjiiy9qff7bb78FAFx77bUBvz8jIwOtWrVCVVWVuoKRXVRVVakHJ7K2EALA+eef7/Px9OnT1X87oQKrsrJSfdOxU8ASiOwVWHZ6fJ0WYMk8A0u2q77BkqkF3O4B1urVqwEwwAqGOKlr27Yt4uLiTL//UNghiPHHACs42vZBbXgvKrD8WVmBtX//frUKymzZ2dlQFAUJCQnSrqQn3sNKS0vVxcZkYOUKlqEQxzKlpaUoLy+3dmMC0LZwawNmMo5uAdYTTzyBtLQ0XH311ejfvz9+97vfISMjA3PnztXrLihMosJnzpw5Pu06paWlWLFiBQBgwoQJAb/X5XLZto1Q+7vKWB0hxMfHY9asWejQoQN+/vlndO/eXf2cE2Zgieogt9tda5EAu5ExwFIUxZYVWCLwcUqAJeM+RtarvsFigKWf3bt3A6iea2kHVgZYdliBUBDtKjIHMf5kCrBk7iwQz31t+yAgZ4BVVlaGHj16WFKdrm0flHUlPe3fRqb3Y/FalP3YXNuWJ+O8P3EcGx8fD7fbbfHWRAbdAiyXy4UZM2YgJycHJ06cQElJCV555RUpDjwj3VVXXYWuXbviyJEjSE1NxU033YTbb78dvXv3Rnl5Odq3b49evXrV+f1iye3t27erty1btkwNv2Ql3iQSEhIQExNj8dbU78knn0R2dnatq+OiAku8puxIHNC0bNnSsoGtehEB1qlTp9TZFFbLz89Xr+jZaQaWqMDiDCzjyDp3I1gyhYN2DrA8Ho/aot6lSxeLtyY4VgZY4oKRHWaF2aGSyJ9MAZbMj5vYb2tXIATqrvCwogpYu22VlZWWVGHJPv8KAKKjo9VjHhkDLCtfi8GIiYlRq2FlvOjJFQjNp+vZ5IYNG7BixQps3boVq1evxvr163H11VfreRcUhri4OPzrX/8CUH0g++677+Ktt95SrzKOHz++3qsWoiJoz549AKpP2CZOnIhzzjkHS5YsafD+9+zZg88//1ztDzaLTCc/4UpNTVWvvmVlZVm7MWGyY3tbXdLS0tQwVMxcsJp4fJOTkxEfH2/x1gRPvNGXlpbC4/FYvDXhKS8vV8NDGfczdm8hlOmgsH379gDsGWDl5OSgsrISMTEx0s90EqwMsMRFlzZt2ph+36ESYYaMVQl1keGk2Q4Blh0qsJo2bYqZM2eqHxcVFaGiogLLly83rdXLLq9X2S4oVVZWqhfgZA+wALnHTnAFQvOFvQqhvxtuuAELFixATEyMehWgoKAAI0eO1OsuqBEuu+wyzJ8/H0eOHEF+fj7KysqwZMkSrF27FpMmTar3e7t16wYAyMzMBFB94i5O2q6//nrs37+/zjdUAOrKUd9++y0uuugiPX6doNhhgHtDXC4XunfvjnXr1mHPnj22af/QclKAFRUVhYyMDGRmZmL//v3IyMiwepNs+/hqQ4ni4mJbvk5FSA7IEbL4s/sQd5kOCkXwk5ubG3BFX5nt3bsXQHWFgl3aG2QIsOxQ0WqHIMYfA6zg2KECCwCee+45rFq1CmvWrEFRURH+9Kc/4aWXXsKdd96J119/3fD7l6nVvD7JycnIzc2Vpupc7FtdLpf0jx1QfYyVl5cnZYDFFQjNp1uAlZCQgFOnTuGHH35Ap06d0LNnT6xduxY7duzQ6y6okSZPnuzzscfjwaFDhxoskxcVWLm5uSgpKfGZ/3Ps2DHs27cPffr0afD+f/rpJ1MDLHFyaYcdc3169OihBlh2JAIWO5wMBKNTp07IzMzEvn37MGbMGKs3x5bzr4CaWQEejweFhYW2DrCaNGkiZTBg5wqsiooKVFVVAZDjoFBUYJWWluLUqVO2uGItiOrdQCsNy4oBVnDsEMT4Y4AVHO0Qdy2ZKrAEbXXMSy+9BAB44403GGBpyFZBJF6HKSkpUh6/+JPt8dOSqVo8UujWQijm20ycOBHvv/8+AKBXr174xz/+odddkM7cbndQMx7S0tLUg8nMzMxaQxqDvZpg9swgJ7QQAjUBohjCazd2rRCqS+fOnQHAshV3/Nn18XW5XFIfkARD5vlXgL2HuGtPLGUIsOLj49VBt3ZrI2SAFRpxkY4BljFkCBxECCTz41ZXC2FdowKsfB8S+2gr3stleD4FQ1TIyVKBJUOQHAqZjxdlqhaPFLoFWB06dEB8fDyWL1+OsWPHomfPnujTp4+0S5pSaESIkpmZWWsFtmB3JmYvHeuEFkKgpgXT7hVYdgtY6iIGhYqhyFazc4WbOCARB1J2I3tIrp25YfYMwsYSB4Rut1uaRTjEUuNi6XG7EC2EdhngDvgGWGY/d7ULj8jOjgGW2FYrl5u3w+NWVwthoPbl6Ohodci1FawMF+wSYMkWwNg1wJJx3h9bCM2nW4A1efJkHDt2DGPGjMHYsWOxYMECvPjii1i6dKled0EW0g5y96/Aqm9nrD3wNDvAckoLod0rsMRiAe3atbN4S/TBCiz9DBo0CAAwf/58azckTLIHWKJiyOPx2K4KS3tFU5Z5U3YNsOxcgeXxeEw/4bNTC6E4YZI5iPFXWloKoO5WODPYIcCqqwIrkOTkZEv3kwywGsYKrMaRLQDUYgWW+XQLsPr164cPP/xQ/bhHjx646qqrLBsqSPoSg9z37NlTqwKrvp1xWVmZ+m+zWwjz8vIABPfmLzMRYB09etRnaLQdVFZWYv369QCAoUOHWrw1+pC1AsuOAdY999wDAHj77bdt99wGagIsWd/n4uPj1YM+//22TIqLi/Huu+/6zOqS8YBQrHJ1+PBhi7ckNGIfIeZ42UFCQgJiY2MBmNtGWFZWph7T2CHAsuMqhAywglNXBVYgVr8HWRku2OVitWwBjNivMsBqPM7AMp9uAdbtt9+OYcOG1br922+/1esuyELipD07OzukCiztwYHZFVjihM2OJ/ZaKSkpaiWFqGayiy1btqC0tBTNmjVTWyHtTlRg5ebmmv6cDsTOAdaECRPQs2dPFBYW4ocffrB6c0Im+wwsAGjRogUA4MSJExZvSd2mTJmCm266SQ00gZr3DpkCLLtWYIkKBTtdzHG5XJbMwRLHDTExMdKfEAP2CGL8iQBLhhZCsS0yqmuIOwDce++9PlXtVg/h1rZ3RUXpdmoZFFZghcduFVhWzllrCFsIzafbXmbTpk244oorMHbsWIwbNw7jxo3DmDFj8Pvf/16vuyALiSu3ubm5aoAl3jDr25lorwqavdO2UxtAQ8QbjN1WE1u9ejUAYMSIEaYf1BildevWiI+Ph9frRXZ2ttWbY9tVCIHqk9RevXoBqKmYtBPZWwiBmjk+MldgffzxxwCA9957T71N5gosOwVYVVVV6nuv7Cd4/qwIsLTzr2RpXa2PHQMssa2swKpffS2Ezz//vM9iEh6Px6zNCkhbHRMdrdsC90GxS4AlWwWR3QIs2R4/LRmPV5xOt71Mly5dcOaZZ6Jdu3Y+b/pffPGFXndBFtIGWOLv26VLF+zZs6feYEp7cGB2+OKkAEscwNgtwFq1ahUA4Mwzz7R4S/TjcrnQtm1b7Nu3D8eOHbN8roydh7gDNeGPnVsIGWCFz+v1qv/u06eP+m9xQGhllYY/O7YQal9Xsp/g+WvZsiV27txpamBopxUIAXsEMVoej0etXGaAVb+GWgi151ra/agV/AMs8TdWFMXQINjr9dqiEhpgBVZj2SHAYguhecIOsAoLC316rh944AGkpaWpMwuECRMmqP/2eDyoqqqydKUMCo8IsPLz81FVVQWgJsAKtgKLAVb4xImH3QYxi/lXI0aMsHhL9NW8eXPs27fP8tXzioqK1ANwO1ZgAfYOsEIZsmsV2QOsnTt3qv/WrpIn4xVNO7YQivcM7Uwpu+jWrRtWrFhh6gImdlqBELBHEKOlnYsqQ4BVWloKr9crXYW4duGNYN5fZAuwhKKiIkPncxUWFqqLRcke0MsWwDDA0g9bCM0X9h776NGj+Oabb9SP27ZtG/DgSBzweTwevPjii7Y7gKJqycnJtfqPxSygYGdgmdkGoCiKowIsO1ZgKYqirtTnlPlXghWtLYGImWgpKSmWD3ENlzjotGOAZYd9jOwzsESbMeA7J1HGGVh2rMCqb46O7Hr27AkA2LVrl2n3aYfXtJbdAiztzCkrAyxt2CHjcZX2/TCY165MLYTaMM3o93UR8sXExCA+Pt7Q+2osVmA1jswBlowX3Jwu7ACrW7duSExMxPTp07FixYo6d54nT57ERx99hNtvvx0333yzLWYKUG0ul6vWCkYiwPLfGWufC1ZVYBUXF6sHSnY5EK2POICxUwXW8ePHUVpaCpfLhfT0dKs3R1eyBFhiJUTxWrQjO1dg2aFaQ/YKrB9//FH9t/bkVsYDQnFB7vTp07YJDOw4wF0QAZa2Ss9odguwxOvDLqsQitd4bGyspYPHY2Nj1deE/8JEMhDHFgkJCUF1rchSgVVYWOizbzT6mFU7/0r280vZAhgGWI33wgsv4O9//7talS17FaCTNGoG1rhx49CjRw88+OCDuPDCC9GuXTukpqYiJiYGxcXFOHz4MKKiovB///d/ePPNN00f7Ef6at++vVrK36xZM3Wnp92ZZGZmYvjw4Zg6dSqefPJJnzeywsJCVFVVmfI8ECdriYmJUp0AhUvsFGW8UlgXUR1UV3WmnYnnvtUthKLCzQkBlp3CWcEOJ7syB1iHDx9WB7gDgQMsmWZgJScnIz4+HmVlZTh69KgtXnfiPcOOB9ZigYfdu3cbPktH4AwsY4nXuJXVV0KrVq2Qn5+PY8eOqc81WYRaOSlLBVZeXp4lFVh22L/JVoEl9nVilXPZyRZg5efnY+bMmT63DR8+3JqNiUCNbvru0KED5s2bh0OHDuGf//wnfve73+Hiiy/G1KlT8dVXXyEnJwd/+tOfGF45gLYCa8CAAQF3Ji+88ALy8/Mxe/ZsALWvCppVZWGHyohQ2LGFUIQrGRkZ1m6IAViBpR87V2DZ4WRX5hbCl156CZWVlerH2pNwGSuwxAIOgH3aCO1cgdWlSxe43W4UFRXh0KFDptyn3Y4d7BZgybACoSD22zJWYDU0wF248cYbAQAPPvig0ZtUL3E+IBaVEYy+MCWOG+wQYMkUwJSWlqp/G/GeJjuZHj8A+O2333w+7tSpEzp16mTNxkQg3VKl5ORkXHrppXr9OJKQNsC68sorfUqGBe0KDFVVVbUOqvLz800pV7VDZUQo7NhCKCqwnBhgyVKBJQIsO79p2jXAqqqqQl5eHgC59zMyV2CJOZozZ87E888/71OBJeMMLKB6sYR9+/bZZpC7nSuwYmNj1cVidu3aVWuMgRHsduxgtwBLtgosoHboIoNgFwh56623MHPmTAwaNMj4jaqHOPb3rwQzs4VQdjJVYIkLMAkJCdKv3iiI55gs7dK//vqrz8djx461aEsik1zLbpDUtG1gV1xxhboz1qbh2jeR7OzsWjsasyqI7HYQ2hA7txA6McCSpQLLSS2Edguw8vLy1LYmmUvwZQ2wysrKsGPHDgDA+eefD0D+GVhAzWqfsj2edbFzBRZg/iB3O1RVaokAq6KiQl0hWmYyBVjitWznCqzY2FgMGTLE8lUUtRevtdhCWENbQSRWTrSKCLDatm0r/ewwwX8hMautW7fO5+Nhw4ZZtCWRiX19FDRtb2+nTp3U6gPtzkQbWO3ZsydgBZYZnBZg2bGFkAGW8dhCaB2xj0lLS7N0GHFDRIAlFraQ4cQRALZv346qqiqkpaWhe/fuAORvIQTkbjsKxM4VWEDNvk28nxhJu3qx3VoIgepwSPbVaEWAJcNsO5lfy8FWYMmirgCLFVg1xGvT4/GgrKzM0vdibYBlF7K1EIoKrEGDBsHtduP666+3eIsiCyuwKGiXXHIJPvroI/WkOVALofYkNDMzkxVYOmELoVxkaCHMz89XX092biEUB552em4D9tnHJCcnIyYmBoBcc7A2btwIoPrgT5zMyj7EHZD7pDcQu1dgdezYEUB1RbfR7Lh6cXx8vFpBIUtrTX1kqsCS+bUc6hB3q8XHxwesAjOrAssObXDaizFWhzBipqAdA6zi4mLLV908efKk2gGxdOlS/Prrr7Z5rTqFbgFWVlYWxo8fj0mTJgGoLq174oknpOj1JX24XC5ce+216smytoVQlMNq/95WVmCJ6jAxwNju7NZCqCgKh7gbLCsrC0D1QbhsVSqhEAeexcXFlq+kFAq7tBq5XC51PyhT25s2wBIns5WVlWoblKwzsGQ+6Q3E7hVYIsA6ePCg4fclXh8JCQnSPe/q4nK5bDUHiwFWcIJtIZSFy+UKWIVl9IUpMb/MDsf6brdbfa1afW5s5woswPp9XU5ODoDqSl0GV9bQLcC69dZb0adPH/Vkdfjw4ejXrx+mTJmi112QZLRDG8vLywH4Xm15/vnnsXr1ap/v0V5hN5IIFuzy5t8Qu7UQ7tu3D6dPn0ZsbCy6detm9eboTlRgnTp1yrJZBiIA6N+/vyX3rxdty4vVB3WhsEsFFiDnHKxAARZQ8x7BFkJ92K2Sw196ejoAcyqwtO2DdpkLA9hrkDtXIQyO3VoIgcBthEZXYInZeD169DD0fvQiSxucHQOshIQEdb9s9eNnp+M/p9ItwBo0aBBeeOEF9WADqF6l6YcfftDrLkgy2hMLceLpfwK6du1an4/NCrDsftDuT/weFRUVKCsrs3ZjgiD+7oMGDUJcXJzFW6M/EYyWl5eb9pz2t2HDBgDA4MGDLbl/vcTFxanPETvNwbLTrBzZAqyqqip1CerBgwcjPj5e/ZxdAiwZVy4LxE4zYgIRFVg5OTmGV2ja9aTETgEWK7CCY7cKLCBwgGX0RdedO3cCAHr16mXo/ehFhpUIs7KysGnTJgD2CrBcLpdasW/1/FmxzxALQZD5dAuwmjVrhqKiIjUd3bp1K/785z/jjDPO0OsuSDLacliRhtd1Aip641mBFZ6kpCT1tWWHKiwRYDn19Z+UlKQO7rbqjdQpARZgz0HudjrZFe0VsszA2rp1K4qLi5GcnIzevXsjKipKDbHESThnYOnD7hdz2rRpg+joaHg8Hhw5csTQ+7LTa1qLAVZ4xN85Pz9f7SKQRW5uLgB7PRfNDrBOnDihjgthBVZwjh8/jv79+6sV0HYKsACgffv2AGpmeFlFXMCy0+vTaXQLsO6++25MmTIFzz//PHr37o2BAweiXbt2ePvtt/W6C5KQ/yB38f8lS5ZgyJAh6teJZebNOsCy+0G7v6ioKFvNwXJ6gOVyuSwd5O7xeNQDECcFWHYZ5H769Gl8++23AOwxQF+2CqxVq1YBAEaMGKFe3BAntOIEV/YZWHl5eeq8LpnZvQLL7XarJy1Gz8Gyy1w7f3YMsGQIpps1a4bo6OrF2GULpMUMUTutMKx9LxTH/EZe4BPtgx07dpTi+RQMqyuwtm7d6lNIYNcAS8ygsopdL3Y4iW4BVuvWrfHxxx/j559/xrx587B//36sWLECHTp00OsuSELaQe5ATQVFcnIyevbsqX6dqAAwuwLLKQEWYJ+VCCsrK9X2IKcGWIC1g9zFAgmJiYm2ufJYH7tVYD3++OM4dOgQunXrhsmTJ1u9OQ2SNcAaOXKkepv/SoSythCmpaWp1bCyVLTVRVEUR1zMMWslQju1BWvZMcCSoQIrKirKZ56lLE6dOqUe59nhAomgvWgtggYjL7jarX0QgOULqohgVBB/J7sQmYLVAZaowGILoXV0C7AWLVqERYsWISYmBhkZGfj73/+Om2++2ZTBm2QdcaAn3kjECWjTpk19AixxNcaMAKuiokI9kHNKCyFQcwVdpgOtQNasWYPS0lI0b94c3bt3t3pzDGNlgLV582YA1QPcRSujndktwFq4cCEA4IknnvCZ3yQrqw+a/QUKsMQJbUlJCYqKiqQNsNxut/p4yla14e/06dNqlZh4D7Yjs1YitOtVdfEaEa8ZmckUYAE1x1UyXRgUIYPdVhjWVoOLYMTI4yNx3qE915Bdu3btANS0iJpt37596r+fe+45270vyBJg2fW9wkl0C7Buu+02NGnSBC1atMCkSZOwY8cOTJo0Cc8//7xed0ESuuiiiwAAn376KRRFUctik5OTfa6KmFmBpT0QESfGTiDjlcJAxMn9xIkT1fYgJxLVh1acNOzevRsA0Lt3b9Pv2wjiJMIuAZaYv9C3b1+LtyQ44kKDDBVDpaWlyMzMBAAMGzZMvV1bRXL55ZfD6/WiTZs2Ui6Pbpc5WCKwbNKkiTSBQTjMmnvCFkLjybQKISBnZbsIGexUfQX4VmCJC3wFBQWGLb6QlZUFwD7zrwDrZziJ59bs2bMxc+ZMS7ahMWQLsFiBZR3dzi6nTZuGUaNG4ZtvvsG6deswf/58XHLJJbYrxabQTJo0CQCwePFi5Obmwuv1AqhdgWVmgCUCnuTkZEdUpwjiSokYWikrEWCJcNOpxJVRK4ZxigDLTgdu9bHTDKyysjJ1H2OX+REytRCKA88mTZr4XP0VJ7SbNm3Cjz/+iLi4OHz99deIiYmxZDvrIw5arR4k2xARWNr9OEzsH4ze17KF0HiyVmDJNFtUhAx2mn8FVC+4IGiPU416XxfvwzJe5KiL1RVYdpytpiUCLKseP4FD3K2nW4BVWlqKTz/9FPfccw8eeOABdOrUCbm5ufjPf/6j112QhHr16oV+/fqhsrISc+fOBVA94LpJkyY+7WNxcXEAzAmw7Lj8cDDsEGDl5ORg06ZNcLlcmDhxotWbYygrV5NxWoAlAoHDhw9bvCUNEyuhxcbG2mYfI1OAJcYKpKenq7OkgJoT2r179wKoPsAePny4+RsYhP79+wMAnn/+eakHuYu/t51O8AIxa19r17YQKy+mhEqmIe6A3C2Edg0ZAKB79+7q39iocNCOC1Q0VIGlKIqh92/XcFSQoQJLURTbvlc4iW4B1p///GccO3YMjzzyCB566CEcOHAA77//Pm644Qa97oIkdeONNwIAnn32WQDV1VcixLr11ltx1llnYcSIEQDMrcCy89DaQOwQYIlVR0eNGmW7q9ihsmruiKIo6uo7Tgmw0tPTARg/40YPIsBq06aNTwAjMxFgnDx50vLARRtgaYmTHXGALXNp/l//+lc0a9YMGzZswJtvvmn15tTJKRVYZgRYiqLYtoXQTjMEZavAEseJMlZg2a2FEAA2bNiAGTNm4KGHHjJ8Tqh20Si78K/A8nq9eOCBB/D1119jwoQJGDBgQK1B63opLy9XgzM7PreAmgDr+PHjKCsrs2QbCgsL1fu223uFk+gWYDVp0gTTpk3DTTfdBJfLhYyMDEyePBkXX3yxXndBkrr11lsRGxurXg3Rvpm8/fbb+Pnnn9V5QWaUuLMCyxqVlZV4/fXXAVS3FDudVRVYeXl5yM/Ph8vlQrdu3Uy9b6OIMMMOi36IKjG7tA8CvgO8T548adl2fPnll1i8eDEA1FqhWJzQ2iHAatWqFR599FEA1RdujJrx0lgiwGIFVsMKCgpQWVkJwH6Bn51mCMoWYLECS1+DBg3CCy+8gBYtWqjhoFEBlp0rsE6dOoXS0lIsWrQIzzzzDC6//HL88MMP2Lp1K0aPHo05c+ao+yO9HDx4EIqiIDEx0Xb7OCE1NVXdd1jVwi+qr5o0aWKrRRacRrcAa9u2bbj33nvxhz/8AVOmTMGUKVMwa9YsXHnllXrdBUmqZcuWuPrqq9WPRVilJXY4rMAKn+wB1qJFi3D48GG0bt3a5/ngVFZVYIn2wY4dO0pzEtBYYpUxBljGiI6OVheBsKqN8Mcff8SVV16J9957D0DtCizxXBYnbzIHWAAwZcoUpKamYt++fViwYIHVm/P/27vz8KjK833g98xkspCVLKxZ2FfZFxU3VLSKVKyCirgrWhXFqq1abdXaVutWd21ta91qEUGtytcqolQERVAQCEuAACEJCQlkT2aSmfP7I7/3ZCaZSWY5Z852f67LS8gy85KZzJxzn+d53oDYQhg6cVKSmppqiJ1FfRlphiADrJ4ZcbZTIKzA6io9Pd0vgBEbX/kqLS3Ftddei2HDhqGwsFCx+xbvrQUFBYapHu/MZrPJIaBWbYRGnZVoNooFWDfeeCM8Hg8qKiqQm5uLgoICNDY24oEHHlDqLkjHLr74YvnPgQIs0R4SyxlYDLBia9OmTQCAc845B/Hx8RqvRn1aVWCZbf4V0BFmlJeXK37VUWlGDLCAjlJ3rYaffvvtt35/D9ZC6Ha7Aeg/wEpOTsaiRYsAAO+8847GqwmMLYShM/JME7YQRk6PLYTiopjRqztEgKXGz9blcsnvFUaqwPINYEpLS7sEp6+++ioef/xx5OTk4ODBg1ixYoVi9y0qljq/9xqNeD/T6lxIPJ/FRUHShmIB1nnnnYfnn38ezz77LKZOnYoHHngAr7/+OtatW6fUXZCOzZo1S/5zoBOkWFZgsYVQGz/++COAjgHHZqfV4FwxJ8qoMwwCycnJQXx8PCRJ0nx3mZ4YNcAaO3YsAGDr1q2a3L8ICIRgFViC3gMsoGPbeK239A6GFVihM+r8K0CfVUTBiDESHOIenNkCLDUqsHwfL/H6YBRiDlZZWZlfuJeWlob58+fjrrvuwvXXXw9A2YppEWAZ7dilM3EupNU4BLMWSRiNYgHW3r178dZbbyErKwvffPMN1qxZg1WrVuG9995T6i5Ix3zfQLQOsNhCqA1xYjx+/HiNVxIb4jkf6xZCMUTc6Achvux2uzwTSe9thEYNsCZOnAgA2Lx5syb3LzYeEMwQYInngF53zzTLDKxYXCwwcluIkSqwxGOolwBLHCfqJcByu93yRhsMsIITz/WUlBQ4HA7Fb19NvhVY4mdz3HHHYfXq1fJjLl6zlQywxPuUCNCMSlQ+aXUuZMTZa2akWIB1xx134P3338f+/ftx55134re//S2uvfZaLFmyRKm7IJ178cUXAQAPPvhgl89pUYFl1gCrrq5Od21WTU1N2LNnDwDrVGBp1UIoDkL69esX0/tVm1HmYDHAikznAKvzEPfOJ7RGCLB8r6Srvf15JMTJjxFDGV9sIeyeUQKsuro6+TmplwpicRKqlxZC3wtiRg+w1BzibuQQwbcFTvxsLrzwQkyZMqXL16hRgWWWAIsVWNYWp9QNjRkzBsuWLZP/vmbNGgD6La0n5d10000488wzAx6Y+AZYkiSpOkDQrBVYGRkZsNlskCQJR48e1dUJXmFhIbxeL7Kzs3W1LjVpNcTdqAFKT4yyE6FRy/BFgLVjxw60tLTEdFC1y+Xy2xq8b9++XQbvGrkCq6mpCfX19TEfJnzjjTfiwIEDeO+99wLOFDJLBZYIsFpbW+F2u1WZscgWQvWJELtfv366Gbytt5+dCGmdTqfhZ4mqOQPLiAPcBd8ARjzvOo88UTPAMtqxS2daB1hGDk/NRLEAq66uDitWrEB5eTna2togSRIkScKXX36JL774Qqm7IZ0LNlhaHFx7vV643W4kJCSotgYjX0ntjsPhQO/evXH06FFUV1fr6gTPt33QqLubhEurCizRQmjWCqzi4mKNVxJcfX09KioqAABDhgzReDXhGThwILKyslBdXY3CwkJ5flMs7NmzB16vF6mpqfjhhx8Ctg8ZMcBKTk5Gamoq6uvrUV5eHtOTqcOHD+Ovf/0rAOCNN97ADTfc4Pf51tZW+UDb6BVYvpUojY2NqpzYm6GFsL6+Hl6vF3a7Ys0VihIBlp42INHbEHezzL8CYtNCaMQQwTeAEf+OWAZYRq/A0nqcCiuw9EGxd7mZM2fiqaeeQmFhIfbt24fi4mLs379fs4SU9MX3hEXtNkJxgmm2AAvQ/oU7GNE+OGrUKI1XEjtaDHGXJMm0FVhiyLhWLW6hEDtA9unTx3AHLzabDRMmTADQseFCLHi9Xvzzn/8EAIwcORJDhw4N+Nzt3FIYywqxaIiTgVjPwfrqq6/kP7/00ktdWhhF9ZXdbjfcc7Uzp9MpX/RS6/XWyBe+fIPTWF9QCYcIsEaOHKnxSjqIAKS5uVkXoxnMFGCpWSkjwnmjV2AF6xgRAVZVVZUi7em+x45GD7BYgUWAghVYtbW1KCoq6nLlp7CwUKm7IANzOp2w2+3wer04fPgwbrjhBlxxxRX46U9/quj9eL1e+YqFEa7ghysrKwtFRUW6C7BE25fRt+cNhxZD3GtqauSto832/J46dSoAYMuWLWhra0NcnGJvT4oRAZaeKgjCMXLkSKxevVoOnGPhjTfewBNPPAEAuPjii4N+3Zw5czBo0CDs37/fUK0z/fv3x65du+Sr27EixjQA7aHvli1b5DZRoCPAyszMNNyQ40BSUlLgcrlUC2iMfOErMTERTqdTrrrT60m9HgMs359VbW2t5u22ZgqwxIUKNXYWNksFlng961yBJZ6Hbrdbkfb0o0ePyseORq/e1zrAYgWWPihWgfXSSy/hyy+/7PJx37kXZF02m01uEfnggw+wbNkyPPnkk4rfT3V1NTweDwBjHoj2RFRg6W1OkJh1Z6UAy7cCK1YDnMUVtN69exumQiVUQ4cORVpaGlpaWnR74cPoAdawYcMAIKYB1tdffw2gfUbiXXfdFfTrHA4HNmzYgEsuuURujTMCrXYi/N///uf393379vn93SwD3AW1W7bFSbbYIcxIbDabIQa56zHAiouLk59bemgjNFOAJY4HDx8+LIcnSjFLBZZ4znUOsHr16iV3rijRRigusGRlZak6wiUWtA6wWIGlDxFf4p4+fbp8hU+ora31e0AlSUJFRQWampoiXyGZRlJSEhobG+VSfTUORMVV1MzMTDidTsVvX2snnXQSPv74Yzz99NO48cYbdVOpYOUKLK/Xi5aWloBDlJVm1vlXQHur0+TJk/Hll19i06ZNGD9+vNZL6kKPJ2DhEAFWUVFRzO5TBCsnnHBCj/PxcnJy8O9//zsWy1KMFgFWbW2tPHfw5JNPxtq1a7vcv1kGuAtqBlgNDQ3ySUnnVlajSE9PR3V1tW4DLK/XK7/u6O31Mz093e85oCXx/BbPdyPLyclBQkICXC4XSktLMXjwYMVu2wwVWNXV1WhpaQHQNcAC2n9+Bw4cwJEjRzB06NCo7tMs868A/5+fFliBpQ8RB1jz589HYmIijjvuuKADI71eL5YuXRrx4shcxAm+eNFRYxaWCLDM1l4l3HrrrXjmmWewb98+vPbaa1i0aJHWS4IkSXIFllEP/iPRebBwLAIss86/EqZMmSIHWNdcc43Wy+nCTBVYau8GK4gAy2hD70OlxQws8TwcMGAAxo8fj7Vr18rhtiACLFZg9UxUX6WmpiI1NVXx248FUYmihxAmkIaGBvmYT29VbhkZGSgtLdXFz85MFVg2mw15eXnYs2cPSkpKFA2wzFCB5fta1lOAFS2zzL8COjpRmpub0dzcHJNjb1+swNKHiAOsxYsXw+v1Ijk5GTU1NejVq1fAahAx14RIvMiIA2sGWOFLSUnBddddhz/+8Y/YuHGjLgKsqqoq+SqS3g5M1eRwOJCYmIiWlhY0NDTEpNJBnKSaNcASVVc7d+7UeCVdSZJk+AqsIUOGwGazoa6uDlVVVaqHG21tbTh48KB832YkfhdjOQNLVLIMGzYsaAWYOOkxSwWWmptmmOECjN5bCEUw4ztOQi/EiShbCJXnG2ApSTzPjRhgda7ccTqdAXfmFa/dnbudIiHen8xw7JiWlgaHwwGPx4Njx47F/PWEFVj6EPEMrKSkJDQ3N+Oss85CVlYWkpOTccUVV3TZxcOoV7NIeeIFWs0AS7QnmjXAAoCCggIAsT1h6o44MOnbt6/he+vDFetB7uIk1YwthEDH760SB2xKKysrQ0NDAxwOh2HDmMTERPkkPRZzsEpKSuDxeJCQkGDa56y4mh7L6g3x2A0bNkz+ubKFMHJGnn8liBBG7wFWr169YlL5GQ7xs2MFlvLEWAlxIUMpRm4hdDgcfuvOyMgI+DshLjApOQPLDBVYNptNrliL9Rys1tZWeSySEZ97ZhLVEPdf/OIXqKurw5NPPonHHnsMhYWFeOqpp5RaG5kMWwiVId6A9BJgWXGAu6BmVUAgZm8hVPKKo9K2bdsGoL190MhBbSwHuYv2wcGDBwcdNWB0sX4NADoeu+HDh8uvBZ1bCDnEPXRmCLD03kKo52BGVFLo4Wen559TJMRxodIVWEZuIQQ6LnwAgdsHAWUDLDO1EALazcHyfY1ggKWtqI4oS0tL8fXXX+P222/HL37xC3z11VddUva2traoFkjmwQBLGXoLsMSBiZHbLyKl9s5YnZl5iDvgf8AWq50dQyUCrOOOO07jlURHVI8VFxerfl9mn38FxL4KE2AFltLYQqg+PQczemohFM9vPf6cIqFWgCUeK6OGCKEEWOL1aP/+/VHfn5laCIGOOVixrsASAVZycjLi4iKewkQKiCrAys3N9XsAe/Xq1WW47YoVK6K5CzIREWAdO3YMAOB2u+HxeBS9DysFWBUVFboIiK24A6EgDjJj3UJoloOQzsTJttvtjmlFSyjMEmD16dMHQGyuXIqQzAoBViyfr4FmYFVWVvq9n5ptBhYrsLqn9xZC0Xajx2BGjy2EZtiFEFCvhVCMCxHvZ0bjG2AF+zeMGjUKgDIzQc3UQgh0XOxU+nnVE86/0o+o4sOPPvoIp556qt/HysvLsXz5cgCAx+PB9u3bcfHFF0dzN2QSgQbtNTc3K/pGbYUAKycnRx5gWFFRoflBt3hj1HodWmAFlrJ69eolz1esqqrS1QxFswRY4sBZ7SuXHo8H7733HgBgzJgxqt6XlnxD7Fjs7FhTUyNXVw0dOhRJSUmw2WzweDyoqqrqMkfObC2EalwsMEMFlnit1GuApecKLHEyqocKLD3/nCKRn58PADhw4IBityle6wBzBFhnn312wK8RAdbu3bvh8XjgcDgiui9JkkzXQjh9+nT85z//wdq1a7FkyZKY3S93INSPqAKsgoICnHbaaUHL6Nra2uSrLkSBdtlQMsCSJEluWTFzmOJwONC/f38cOnQIZWVlmv9bzR6qdCeWFVgtLS1y9aJZK7CA9oqRkpISHDlyRNFtt6Ph9Xqxfft2AOYJsNSuwFq2bBl27tyJ3r17Y+HCharel5bE+5fH44HL5UJiYqKq97d3714A7RdpRGiRk5ODyspKbN68GUeOHMGcOXPYQhgGM1RgieMrNUYzKEHPwYweK7D0+HOKhHgPr62txbFjx4K2y4WjuroaXq8XgHEDet9jxgsvvDDg1+Tn58s7XRcXF8vzK8NVXV0tb7BmluP00047DQDwv//9LyYXjgRWYOlHVAHWM88806UCq7NZs2ZFcxdkIsEqsJRy4MABHDt2DE6n09RX/IH2qygiwNKaqHozyxtjOMTBWCyGjoufc0JCgqnfPHNyclBSUqKrQe779+9Hc3MzEhISMHToUK2XE5VYzY74xz/+AQBYsmSJYQfthsL3RLOxsVH1AMt3gLvQr18/VFZW4pxzzgEAXHbZZXC73QCMe4LXmQgZRICnlNbWVvm11QwBll4vGus5mOEQd/UkJyejb9++qKiowN69ezF16tSob1O0D2ZlZRl2DpHvjM9gVVEOhwMjR47Eli1bsHPnzogDLHGekJ2djfj4+IhuQ2+mTZuGxMREVFZWYufOnRg9enRM7pcVWPoR1QysnsIroCMlJQp0EqNkgPX9998DaK+QMPIuYaHQ0yB3K1dgidk+Sp9UBSJKwPv166e7bciVpMedCH2HkUdaxq8XsWohFC0jZj8GcDgccmgVi1Zi3/lXgm+YBQBvv/02gPaLRoEqn43onHPOgcPhwNq1a+X3eiWUl5dDkiQ4nU5Dh30MsCLHIe7qEhd9xPtotMwwKuTxxx/HySefjDVr1nT7dUrMwTLb/Cug/ULuiSeeCAA9/gyVxAos/TDnvtakS4F+4ZUMsDZt2gQAmDJlimK3qVd6CbDa2trkYcFWDLDEgVmsAywzEwGWEltHK0XsAjRo0CBN16GEWAVYZpu50Z1YzsLz3YFQePLJJ/HSSy/hs88+g81mk6/uGzmQ6Sw/Px+XXHIJAODpp59W7HZF++CAAQNgtxv3kNgoAZYeA1W2EKpL6Qt9Rh/gDgCjR4/GV1991WMhiAiwduzYEfF9mTHAAoBJkyYBiM3xt8AKLP0w7rs1GU6gAEvJgy1xVXby5MmK3aZeiTcicfCtlSNHjkCSJNjtdtPMWgmHOIkUJ5W+3n33XTz00EN+peLREJVuZp5/BeizAktUExUUFGi8kuiJFsJjx47Jc0SUVl9fj/r6egDmf74CsZ2FFyjAKigowM9//nPMmjUL48ePlz9+5plnqr6eWLriiisAAD/88INityneQ408wB0wToClx2BGjy2EZtmFEOi40Peb3/wG9913X9THRGaowAqVCP+i2W3PrLtXi2PFWOyoLLACSz8YYFHMqFmBJUmSpSqwxJV1tasoeiJCFbEzotWIk8hDhw75PZc9Hg/mz5+PBx98EOvWrZM/Fg2zHoR0Jp7begqwzFSBJea2eb1e1U7YxHM1NTVVVztJqkWLCqzObYPCyJEj5T/feuutqq8nlsQxhJJBodiB0MjzrwAGWNHwbSFU6oJTpPT8c4qUCGE8Hg/++Mc/YuvWrVHdnhkqsEIlKqajaW81a+AnLsbFMsBiBZZ+MMCimFEzwCotLcWRI0fgcDgwbtw4RW5Tz/SyZbaVB7gD7W+gYrZbcXGx/PHdu3fLfy4tLcXy5cuRmpqKd999N+L7ssqsMT1WYJkpwEpISJBPjtQKwM3ashBMrCqw6urq5NfcYJsJiCqlSZMmyS0WZqFGUGiGHQgB/QdYYl16DGbEyWhbW5vmuziaMcDq/FolXsMiZdZAJhBx3hRNgCWOpczUUg5oE2CxAks/GGBRzKgZYIn2wTFjxgTc7dBsRGiidYBllVAlGJvNFrCNUFQDAu3tZx999BGam5vxf//3fxHflwgFzF6BxRlY6lN7J0KrBVixqsASsz5ycnKCXgE+77zz8Omnn+Kzzz5TdS1aUOPnLCqw2EKoLj0HMykpKfL8My0HuXu9Xvm5bcYWQiHa93YrVWApGWCZbcyHOI6J5cVOVmDpBwMsiplYBFhWaB8EOgIsMWdGK1YPsIDAc7A2btwo/7m4uFiuziopKYn4fsQcpvz8/IhvwwjEc6m4uFjzdg4AcLvdciBjlgBLtCWodeXSagGWOClXO8DatWsXAHS7nbrNZsNZZ50lH9ybifg5Nzc3R92SLbACKzb0HGDZbDZdDHKvrq6W5xKaKWzo27cvlixZIv9dBFCRsmoFVqTHQ6zAUg4rsPSDARbFjJoBlqh4scIAd4AVWHoSaCdC3wospQIsMcTTDIPEuzN58mTEx8ejrKxMPmHX0qFDh+D1epGYmGiaK75q70RotQBLVEuo3UK4YcMGADBda2CofKtSlApqzDbEvbm5WbXNGaKh5wAL0Mcgd3E8lZWVhfj4eM3WoTSbzYann34aixcvBqBcBZaVAqy2traIX/PEz9tMoSjgX0keq9c8VmDpBwMsihk1dyG0WgWWXmZgMcACBg8eDKCjzaytrc1vl6zdu3fLbSolJSURXUWrqamRH+u8vLwoV6xvvXr1wsknnwwAumiDEo9rQUEBbDabtotRCAMsZcWqhfDbb78FABx//PGq3o9eJSYmyq1eSvysJUkyXQUWALS0tGi4ksD0HmD5DnLXitmPp0QFUDQBlsvlkn9nrfD+kpycLG+QFMlzU5Ik07cQqrkhTWeswNIPBlgUM4FmUylRgXXw4EGUlZXBbrdjwoQJUd+eEYgKrKamJrS1tWm2DiuVcgcj2spEldWaNWv8KjH27dsnXx1qbGyM6CBEVF9lZ2fr9gRASWeddRYAYNWqVRqvxHzzrwDOwFJaLIa4t7a2yhdqrBpg2Ww2RX/WX375JVwuFxISEgz/XPU9vtJjG6FRAiwtK7DMvimOqGCOJsDauXMn2trakJGRYfiqyVDYbLao5mA1NTXJgbbZWgh9N6SJRRuhJEmswNIRBlgUM4GqF5QIsN555x0AwMknn6zbgyOl+W5NH4ut24Mx+xXDUPhWYEmSJO80ePXVV8tXznxF0kZolflXggiwvvjiC7S2tmq6FvGzN1OApfYMrPLycgDm33BAiEUF1o8//oiWlhZkZGRg+PDhqt2P3in5s37ooYcAANdff73hW7YcDgcSEhIAMMCKhAgJjh07ptkazH48JQKUaGZgbdmyBQAwfvx401RE9ySaAEuEhb5hj5mIqrJYBFiNjY3y7EVWYGmPARZpSokA61//+hcAYMGCBVHfllEkJCTIB9xathGa/YArFHl5ebDZbGhubsbhw4exYsUKAMCll14asN0vmgDL7POvhIkTJyIzMxP19fXy3B+tmLECSxz0RTtMNxhx0GyWmWE9icUQd/F7MH36dLmNzoqUCrB27tyJNWvWwOl04p577lFiaZrznYOlNyLA8m111BMR6jPAUo8SLYQiwLJKtwUQXYDl2z5oxsAvloPcRfWVw+HQ7euYlVj3KIh0IdoDrb179+KHH35AXFwc5s2bp9CqjEHrQe4tLS3yG6pZD7hCkZCQIM9P+fDDD1FZWYm0tDScfvrp8iwnX5EEWKKF0CoVWA6HA2eeeSYA7edg+c7AMgvRLiVa/ZTU2toqH+iZbeZGMLEY4i42NBg/frxq92EESoWF27ZtA9C+aYRZWpH0vBOhWJNeq0C02NGsMwZYPWOAFR6z7kAoxPL31nf+lRnDQKNhgEWaijbA2rlzJ4D2g3qrnCwJIsCqr6/X5P7FvIb4+HjLl9OK6pyVK1cCAMaNG4f4+Hg8+eST8tfExcUBYAVWqEQboV4CLDNVYInAVQzDVZI4kLTb7ZZ5XYhFC6HY5VTsempVSoWF4thh1KhRUa9JL/QaYEmSpPsWQrU3tgiF2QMsUZFbU1MDt9sd9vdLkuTXQmgVSlVgmZEWFVicf6UPDLBIU9EeaFltWLAvrXci9B04avWrEWIO1v/93/8B6Dgp6tOnDzZt2oTbbrsNd955JwCgqKgo7NsXFVhm34HQlwiwvv32W81OKlpbW+UdJM0aYEWyK2Z3xAFzZmZmwBlwZhSLIe4MsNop2UIIMMCKBZfLJW9kwgArOLMHWL1795bfE8T7RDiOHj0qf9/YsWMVXZue9e7dG0B0M7AYYEWPOxDqCwMsiqnOg1KjrcCycoCldQuhONiy8g6EggiwxFXF0aNHy5+bPHkynnnmGcydOxcA8P7778uhSKhEpYyVAqxBgwZh/Pjx8Hg8WLp0qSZrKC0thdfrRUJCgqme5+L1sqWlRfGZL2a/4huI2hVYXq8X+/btA8AAS6kWQgZYseMb7Oo1wFJ7Z9ZQmD3Astvt8s85kjZCcbyflZVlqRlEbCEMTjyfIglEw8UKLH1hgEUxxQBLOVq3EJr9YCscnU+CfAMs4cQTT8Rpp52G1tZWv9bCnni9XnlXN6s9z6+66ioAwGuvvabJ/Yv2wfz8fFMNzk5MTJQDJqXbCK0YYKk9xL2srAwulwtxcXGWmYMXjBIthJIkMcCKIfFYxcfHy630eqP2zqw9aW1tle/bzMdUoo1w9+7dYX+v1Xa3FdhCGJx4Pqm1IY0vVmDpi3mOyMkQOp/YRxtgWfUNDdBPBZaZD7ZCNXv2bL8D80ABFgDcdtttAIDPP/885NuuqqpCW1sbAOv9rBcuXAiHw4Fvv/1WrkCJJTMOcBdEG2G41YA9MfsBcyAiVFHrYoJoHywoKNBtABArSlS7lZaWorGxEXFxcaaqaNNrgCUeK71WXwHatxCKiiSHwyGvxYzOPvtsAMADDzyA1tbWsL7XqhfyogmwRCgqKpXMRs0NaTpjBZa+MMCimHr77bcxe/Zs3H333QBYgRUNrWdgMcDqkJ6e7hdaBauSECdLYn5YKMRzvE+fPnA6nVGs0nj69u2L4cOHA+iYAxZLZm7dFAHW7Nmzce+99yp2u2ZvWQhEXAU+cuSIPOtHSSK8HTJkiOK3bTRKVLuJ6quhQ4ea6jVVrwGWOPETs3z0yLeFUOm5gKEQrdzp6emmqvbt7P7770d2djZ27NiBFStWBPyaV155BePHj8ecOXPk8B7oOBay2gXraAIs8bzS8+9eNGIZYIlw28wBs5GY91WSdGno0KH4+OOP8ZOf/ASAcgGW1d7QAO0rsHyHuBNwyy23AGg/mQ02vFqc6FZVVcHj8YR0u+I5LgIHq4nm4C1aZq7w9H0+PfrooyE/H3tixQqsfv36wW63o62tTZVWBg5w76BEBdauXbsAACNHjlRkTXqh1wDLCK034qTU7XaruhlDMCLk0/PPSAm9e/fGueeeCyD4jsyPPPIItm7dio8//hgXXHCB/Hw28/txdxhgBScCrPLyclUuHvkyezWb0TDAIk0kJSUBiO5Ay+PxyCGKFSuw9DIDy0zDraNxww034LXXXsPq1auDfo2oSvF6vSHP2rBylSHQUa4tDvBjSTzHzXjA3PnftGfPHkVu14oBVlxcnPw6qHRLJgD88MMPAIK3JluJEjOwzDj/CmCAFY1evXrJM1q1aCO0UnuS6B4IdOza3Nwst+4DwLZt2/CHP/wBgHUDLBGYRHJxRARYev7di4a4gO47Q04tDLD0hQEWaUKJq6iVlZXwer2w2+1yZYuVaN1CKA4yrFoZ1JnNZsOVV17Z7fbOcXFxYR+MWD3A0kMFlhmrDBMSEvz+vnnzZkVu1+zbdgeTm5sLQPmh+F6vF+vXrwcAzJgxQ9HbNiIlWwgZYMWGEQIsm82m6RwsKwVY3R3/79q1C5IkITMzE8uWLQMAvPzyy2hqarJsgCWOscvKysKuMjJ7BZbT6ZTP/9RuIxQBFlsI9YEBFmmiuyswoRIvVn379g3asmVmWrYQ1tTUyD9/VgWER1RqhDoHiwFWBgBtKrDMfMB83XXXYerUqfK8FVHlEy0rVmABHScZSgdYu3btwrFjx5CUlIQJEyYoettGpMTFL7MGWEpUtqvBCAEW4D8HK9bEz8gKAVZ3x/+FhYUA2o8rf/azn2Hw4ME4evQoXn/9dVO/H3enX79+sNlsaGtrky8QhcLj8Rhi/ly0YjUHixVY+sIAizQh3sBcLlfYO5EIVj+x7xxg1dbWqtK+Esj27dsBtFcdWOGAS0niatHzzz+PN998s8evt/rzXDy/Yl2BJUmSqQ+Y+/bti++++w4vvvgiAOUqsBhgKRtgrVu3DgAwffp0Uw0cj1S0AVZ9fb38PskZWLFhlABLVFao3YoUiFVmYAHdB1g7duwA0B5gORwOLF68GADw5ptvmvr9uDtOp1O+8BnO+4vvxW0GWNFjgKUvDLBIE+IgFIj8QFQchFr1xF78u0Ur3xlnnIHhw4fH5OBLBFjdtctRYOJA5P3338cVV1yBRx55pNuvt3qApVUFVm1tLVpaWgCY+4B54sSJANorsJTYfYsBljoB1oknnqjo7RqVaCGMdAbW7t27AbRfSDBbKwgDrOiwhTA2xPF/TwEWAMyfPx8A8PXXX8ubPpn5/TiYSN5fRPug73w3MxLHxkq/9/qSJEl+XWCApQ8MsEgT8fHx8gtqpG2EYgeT/Px8xdZlJCI8OnToEGpqarB79260tLQoNoy5OwywItd5Xtuvf/1r7Nu3L+DXSpKEgwcPArDmQRugXQWWuNqbnp4ut+aY0bhx42C321FZWSkPrY9UU1OTfPLMAEsZYse8SZMmKXq7RhVtBZZZ2wcBBljR0rKF0EoBlqjACvQ7LAKsMWPGAADy8vL8XvvS09Pl57mVRBNgmbn6CohNBVZdXR3a2toAMMDSCwZYpJlo52CJACsvL0+xNRlJenq6/G/fvn27XC0STo98pESAJQ4yKHSBNhxYu3ZtwK/dunUrjhw5gsTERFOecIVCqwosq7Qr9OrVS26linYOlqj+dDqd8uu7VagVYIkA26oXajoTAVaksx/FBZ7hw4crtia96K6yRUtGCbDEiT4DLHV1d+wvjuuHDBkif2zu3LnynxcsWKDy6vSJAVZwar33+hKvCUlJSaa+oGkkDLBIMwywonfccccBaJ9fI64OiBYeNYlBm6zACp9oIQTadz4CgA0bNgT82vfffx8AcPbZZ8utM1ajVQWWqEYy4w6EnYkr3NHOwfJtHxTPbatQ4yDa4/HIV5UZYLXLyckB0H5yFsn8TFHtOnToUEXXpQfiRFWcuOqFUQIs8V6jxYYhRvkZKSFY0OrxeOSP+YYuV111FXJzc3Hdddfhueeei91CdUS8v4Qz51a8Dpj9OSV+NuKcUA3cgVB/GGCRZhhgRU8EWBs3bpQ/pnYFliRJ8g56BQUFqt6XGflWYN10000AgG+//Tbg14oA64ILLlB7WbrFCiz1+c7BioZV518BHW0MdXV1irVwlZeXw+PxIC4uzi/4trLs7Gx51+HKysqwv3/v3r0A/Cs8zIIBVnS0DLCsWIHVuYXQ91zA9+cwaNAglJSU4G9/+xvi4uJis0idYQVWcOK1vLi4WJE5noFwgLv+MMAizUQTYHm9XvlKhJUDLFEBFcsAq6GhAV6vF4A1DraU5lt+/POf/xwAsGXLFrkFVKiurpYDhTlz5sRugTqjVQWWqHyxUoClZAWW1aSmpsq7BCq1kYZoHxw4cKAc2lid3W6Xw7xIZraJCiwGWLFjlABLq4slvvdphWOqYMf+4meQmJho6qHjkWCAFdygQYMAtF88Uqv9lwGW/jDAIs1EE2AdOXIEbrcbNptNfmG3IjGDatu2bfLH1G4hFAcZDoeDveARmDFjBgoKCnDhhRfiuOOOQ05ODlpbW7Flyxa/rxOP6eDBg+W2GSvyPalQ6+paIFYKyEWAtWfPnohnCwHWDrBsNpt8cKtUgGX1jUqCEW294QZYTU1NcmWlmVsIGxoaImqvVIMkSYYJsLS6WAJYK8Dy3YhBXAwFOn4GaWlpmqxLz3JzcwG0vyeEehwknsdmD7CSkpLkC43FxcWq3AcDLP1hgEWaiWY3IXFg379/f/mqtxUFOiBUuwLL90DLanNulJCSkoJ9+/Zh+fLlsNlsmD59OoCubYTc6bGdOKBvbW2Vt9GOBfEaIw4czSwnJ0cOSUWLVSSsHGABUC3AskKIGg4RYIkwKlT79+8H0P6aYsaTOt/jAS1CmEBaWlrgdrsBGCfA0nIGlhUCLN8NPhobG+U/WynEC9fQoUORmJiI+vp67N69O6TvsUoFFtBRURtsR+9oMcDSHwZYpJloKrB4YN8u0HbCsarA4kFG5Oz2jpdeEWB1HuQuKrCsHmClpKTIP69YnpRZ7TVGlOGLk/xIMMBSNsASLYRWeQ6GKtIKLN/5V2a8+OJwOOTqFb20EYrXbLvdLl+01CutAiyv1ysfB+s95FNCUlKS/J7uewGbx5bBxcfHY9q0aQCAdevWhfQ9VgqwBg8eDIAVWFbCAIs0E02AxQP7doECrFhWYFH0jj/+eABdAyxRgSUG9VuVzWYLazbJ3r17MW/ePPzhD3+I+ESkra1NnoFlldcYJQ4ARYBl1ZZXthDGhmgXCTfAMvP8K0Fvc7B82wf1HhpqNQOrvr5ebguzwnGVzWYLuBMhjy27N2PGDADhB1hWCEXVrsASoxX43NQPBlikmWgCrE2bNgEARo8ereiajCbQDCoGWMYirqoVFRXJAyglSWILoY9wZpO88MILWL58Oe6//37cdtttEd3f4cOH4fV6LbX7GyuwoscWwtiItAKLAVbsGWX+FdDxPtPU1BTTGWLimCo+Ph6JiYkxu18tBTr+57Fl9yINsFiBFT2xs3BycrIqt0/hY4BFmokmwPrqq68AAKeccoqiazKahISELlc16+rq5JkTauBBhrIyMzMxfPhwAB1VWJWVlaiurobdbseoUaO0XJ4uiJOfO++8s8ch477zIUKdFdGZCA4GDBhgmd3fxAEgA6zIKR1gVVRUAOgIbKhdpDOwRIBlxgHugt4CLFEtb4SqTN/h4bGswrLS/CtBHP+zhTB0J554IgCgsLAwpNc+BljKEQFWoK4X0gYDLNJMpAHWoUOHsH//fjgcDvkF3apsNlvAKiw152DxIEN5Ioh97bXXAAAbN24EAAwfPpw7PaKjhWr9+vV44403uv1a39CqpwoNr9eLpUuXYteuXX4ft2Lli6jAUqKF0KoBVmZmJgDlAixxO1b9eQbDFsLg9BZgffPNNwCAqVOnarySnsXFxcmtbVoEWEaoUlMKWwjDl5OTI1dh/fOf/+zx662yCyHQ8d4bzS7K3WGApT8MsEgzkQZYovpq0qRJuh8KGguxHuTOgwzliVa3pUuXYvfu3Vi/fj0AWD6gFV588UX5z921yLa1tfkFMIcPH+52y+m7774bl156KRYtWuT38UOHDgGwxg6Egm8FVqjbdPuSJMnyAZaSFVhNTU3yrpscHOvPt4Uw1Oeq1+tlgKUBo72XhdOurhQrVlqyhTAyN9xwAwDglVdegdfrDfp1kiRZKsAS50G+u1oqSdwuAyz9YIBFmgl0BSYUX375JQC2DwqxnoPFYYbKmzBhAn76059CkiQ8+uijhjvoV9uAAQNw5513Auj+AGX//v1oa2uT/97S0hL0SvrevXvxxBNPAOgIxQUrVmAVFBQAaG/piCSAaWhokFuXrRq4KBlgiduIi4vz23aeIM+la2pq8mtB6s7hw4fR0tICu91u6qH4egqwWlpa8P333wMwznuZFjsRikpCq8xbBBhgRWr+/PlITU1FcXExtmzZEvTr6uvr4fF4AFgrwGpqaoroAlxPWIGlPwywSDOBeuB74vV68eGHHwIAzj77bFXWZTSswDKH++67D0B7afjq1asBGOegPxbE8MzuAqyioiIAwLhx4+TnZ7A2o3feeUf+c+f5LFYMsBITE+XWrEjaCCsrKwG0vx5Z9SBPjQArOztb97u3xVpKSop8ASzUNkJRfZWfnw+n06na2rQmTlZjWUEUzPfff4/W1lb06dNHrvDUOy12IhTPYStVYInfX87ACk+vXr3kmamlpaVBv04E2FbZGEAcH0qSBJfLpfjtc4i7/jDAIs1E0kK4ceNGlJeXIzU1FaeffrpaSzOUWFdgiYMM34GnFL3jjz8es2bNkq8epaamYsyYMRqvSj9CCbDE/KsRI0b0uFOZmDMGdH0NEi2EVgqwgI5ZY+LfHw4rnoR1pkaAZdVqtp6IsDXUQe5WGOAO6KsCa+vWrQDa518ZJYTVsgLLSq+drMCKnHieiNbTQHwHuBvldy8avudBarQRsgJLfwwVYEmShHfffTfgSV1FRQVuuOEG/OpXv8J9992nSgkhKSuSAOv9998HAJx77rlISEhQY1mGE+gFNRYBFg8ylPfkk0/Kc5fOP/98y+yAF4pwKrCGDx/e4wnupk2b5D+3tLT4tR6KCiwrzcACgIEDBwLo/spuMFY8CetMhE01NTVy+0akRBUtA6zAegqoO9u7dy8Ac8+/AjoqiPQQYIk1GKk1TosZWFZ87RRzEnfs2CF/jMeWoRG/T9299llpB0IAcDqdcmWtCJuUxABLfwwVYB08eBBHjx71e8ET5s+fj5tuugmPPfYYEhIS8Nxzz2mwQgpHJAGWmFUze/ZsVdZkRNyF0DzGjx+PAwcO4MCBA3j11Ve1Xo6uhBJgibAqLy+v2xPcqqoqHDhwwO9j4nWotbXV73asRAR20VRgieDQisROSJIkRR0gsAKre+EGWFYY4A7oqwLLiLvrsQIrNi644AIA7Reljx49CoDV/aEKtwLLKsQxotIBliRJDLB0yFABVkFBAWbNmtXl49988w3279+PSZMmAWivznn88cdZhaVzogfe7XajtbU1pO8RV1HZWtXB9wXVbm//lWYFlnGJIcNmntMSiVACLHHQlpmZ2e0Jrqi+GjFihFzJKTYnKC8vhyRJcDqd6NOnj3L/AAMQARYrsCLjdDrlk69o2wh9Z2BRV+EGWOLC54gRI1Rbkx4wwIoOZ2DFxpQpUzB+/Hi4XC689dZbAHhsGapQKrCstAOh4DvIXUlut1uuqOYMLP0wVIAFdJyg+1q9erW8gxLQfoBy6NAh+YpbZy6XC3V1dX7/Uez5vhCE0rPc1NQkV0aY/SpqOHwrsAYMGACAFVhkPqEEWOJKbmZmZrcthGJnrClTpnSpBBXtgwMHDgz4fmNmooWQM7AiJ6qwog0Q2ELYPfH7HUqA5fV65QBr7Nixqq5LawywohPrFkKv1ytvgGGl106bzYYrr7wSAPDZZ5/B6/XK78E8tuweK7ACEwGW0jOwfAMxVmDphymOzktLS+WDRqCjsqesrCzg1z/yyCNIT0+X/7Nam4hexMfHyyeIoSTmIpBMT0/3e7ytzvcFVTyX1arAkiSJARZpIpwAq3fv3t1WaIgKoyFDhgQNsKz4vhBNBZYICq10EhaIUgECWwi7J55noQxxP3DgAJqamhAfH2+ZIe51dXVRz2GLlhEDLFHdEurmANE6evSoPH/RahW/48aNA9DeWVFTUyN3zRjp+aIFzsAKTK0KLHF7cXFx7IzQkTitF+Dr3nvvlXct6Wzu3LlYtGhRwM/ZbDa/bULdbjcABH2i3Xvvvbjjjjvkv9fV1VnyZEVrNpsNycnJqK+vDykxF+2DQ4cOtcSuGqHyrcASJ6BqBVhNTU3yQTEDLIqlUOYbBKrAChTG+IYDnQMsq+5ACPhXYEmSFNbrLCuw2okTBvFcjBRbCLsXTgvh9u3bAQAjR45EXJyuDnsV53vyX1NTg6ysLHg8Hk02BBEn0UYKJMQxlLiQoTbx/M3OzrbcybEIk/ft24f9+/cDaA/xfM/nqKtwKrCM9LsXLbVmYHH+lT7p6p38kUceiej7BgwYgD179sh/Fyciop2qs4SEBO5gpxPhBFhW2QY7XIEqsKqqqsI+AQ2FeFN0OBxypSNRLPRUgeV2u+XPZWZmwuv1AgD279/f5XfBN8ASM4tEK7lVdyAEOgKs5uZm1NTUhHX1lgFWO7YQxkY4LYSFhYUAzN8+CLRfuE1JSUFDQwOOHTuGX/3qV1i5ciW2b98e88p1I1ZgiWOoWAdYVnzdzM/Ph91uR0tLC7755hsAwKBBg7RdlAGICqza2lq0tLQEDPysXIGlVgshAyx9MUUL4Zlnnilvnw4Ae/bswZAhQ5Cfn6/hqigUobQFCb4VWNQhUAWWx+NRZYaDOKnKzs5mFRzFVE+vFeKAzWazIT09Hfn5+bDZbGhqapJnjAjdVWBZuYUwMTFRrvgJZw6W1+uVrwZbeRdCgC2EsSJO+CsrK3tslRMVWFYIsAD/5+A//vEPHD58GH//+99jvg4jB1ixmo8rXmetGGA5nU75PO3zzz8HwAArFBkZGYiPjwcQvArLygGW0hVY4piTA9z1xXABluiR9t1h8Pjjj0fv3r3lEOvTTz/1axEk/YokwOIAd3++VwXS09PlE3I1BrmL1kS2tVCsidcKl8sV8IRVtGxlZGTAbrcjISFBDnSLi4v9vpYBVnCRDHK38hyXzpQOsPhaG1hOTg7sdju8Xm+PLfO7du0CAIwePToWS9NcoOeg0id1PZEkyZABVkpKirzeWFRhic0FRo4cqfp96ZG4IL169WoADLBCYbPZepyDZcVdCNlCaC2GCrCOHDmC1157DQDw0ksv+YUeS5cuxaOPPoqHHnoIAHDzzTdrskYKTzgvOOIklAGWP98KrMTEROTk5ABQZw6WuE1xH0Sx0tOupeJkzbdNRrxWdN6RVoRdgVoIrTwDC+j4dx88eDDk77HyHJfOlJiB1draKj8fWYEVmMPhkMPSngZui/ctq1QHBgqwmpubY7qGlpYWeR6t0U6iY9lGaKX21kDEe7QIXBhghaanOViswFIOAyx90tUMrJ7k5OTgwQcfxIMPPtjlc0OHDtWkRJqiE07PstUOQkPl+6IqWoD27dvHAItMJSEhQa64aGxslIMnwXeAuzBkyBCsWbPGL8Byu91ytVXnCiy32y0fEFpxBhYADB48GEDXqrXuiAoXq4Z+vpSYgSWqr2w2m6GqV2Jt4MCBOHz4MEpLSzFp0qSgX2e1dkw9BFgikLDb7Yabl5mXl4etW7fGJMAS7a1jxoxR/b70qPNIEAZYoempAku85llpx3bOwLIWQ1VgkfmE2kLY1tYmn6CypcJf5wBLhEtqtBCK22SARbEmdi0FAr9eiNcH3yuOgcIY8XViVpZvgFVaWgpJkpCQkGDZ53iwqrXurF+/HkB7O7/VKdFC6HvyocXucUYh2l0D7TQqtLW1oba2FoB1TubEc9D3IpZWAVZGRobh5mXGqgKrsbFR3n2PAVY7Blih6a4Cq7W1VT5WF0GXFbCF0FoYYJGmQg2wfNsxrHIQGqrOLYQi4GMFFplNKAFWTy2EIhzo3bs3HA6HXwuhaB/Mzc013EmXUiKpwBIB1oknnqjKmoxEyQDLKhVDkRJVkt3Na/PdzMQq7TTi31lWViZ/LJYB1vLly+VAxogVhLEKsHbt2gVJkpCTk2PZY6qzzz7b7xi2oKBAw9UYR3cVWOI43eFwWOo9RO0WQg5x1xcGWKSpUAMscTUhMzMTcXGG6nxVne9VAd/KEQ5xJ7Pp7vUi1BlYncMB3wosccJi1fZBIPwKLJfLhY0bNwIAZsyYodq6jEKJGVjitdtKJx+RCKUCS/y+p6WlWebYQTwHfWeDxWqIuyRJmDdvnvx3BljBWb19EGj/vXzxxRcBAPn5+axyCVF3FVgi1OrTp4+lKnjVaiEUt8fnpr5Y492cdCvUAIvBSXCxHOLOFkLSUncHKIFaCMUW3aWlpfB6vbDb7SEFWFae5SQqsI4ePYra2lqkp6d3+/U//PAD3G43srOzu7SDWJGSM7D4fte9UHbM9N2wwSoCVWBFuytmqDZt2uT3dyMGWOL3Tu2fmbhIMGLECFXvR++uuuoqZGZmWvp9N1yiAqu7AMtK7YOAfwthXV0dysrKMGrUqKhvly2E+sQKLNJUqD3LIjjhAX1XgYa4A2whJPMJt4VQ7FLm8Xjkz3cOsEQLYX19veV3IATat5EXv9+htBG+8sorAIBTTz3Vsm2XvkR40NzcDJfLFdFtsIUwNKJSsrsKrECvC2YXKMCKpiIwHG+99Zbf3xsaGmJyv0oSob2YnaYWcVwr3qesymaz4fzzz+92IwbyJyqwArUQilBLfI1ViHOh6upqTJ06FWPHjsXOnTujvl0GWPrEAIs0FWrJJyt/ggtWgaVmCyEfB9JCuAGW0+mU/y4O9IJVYNXV1bGF8P8LtY1w9+7deO211wAAv/zlL1VflxGkpaXJQV6kFRxsIQxNOBVYVgywfFsIY1WB9cUXX/j9XbQXG4nvXEQ18fecIhVKBZZVA6w1a9agqKgIXq8XX3/9ddS3ywBLnxhgkabYQhi9WFVgeTwe+eSfARZpIVjFpiRJKCwsBAAMGDDA73OdZ0WwhbBnoo2wpwDr1VdfhcfjwezZs3HCCSfEYmm6Z7fb5bapSKte2EIYGhFg1dXVBa30seJ28iLA8nq98sdiUYElSRL27NkDADjttNMAGDPYjlUFFn/PKVIiwKqvr+9yPGTVFsJAAdPu3bujvl0OcdcnBlikqXCHuPONviun0yn/Wc0h7seOHYMkSQB4xZC0Eez1orCwEAcPHkRiYiJOPvlkv891vlLZeSaO+H9VVZW8pbnVAyzx7/dtQQpk7dq1AICLLrpI9TUZSbRzsNhCGJrU1FS5WiZYG6GVZ2D5amhogNvtVvV+Kyoq0NjYCLvdjg8//BArV67EAw88oOp9qkE8p9xud8RtwKHgcS1FKi0tDYmJiQC6VmFZtYUwUMCkRAshh7jrEwMs0lS4ARYrf7oSb2KAf4DV0NCAlpYWxe5HVHRlZGT4hWZEsRLo9aKsrAyPPvooAOD000/vcpDReVaEaKsRc0dyc3ORkJCA1tZW+WR32LBhKv4r9K+7+RqCy+XCd999BwA46aSTYrIuoxA/vwMHDkT0/WwtCp1o9w3WRmjFFsJgg9PVbiMU1VcFBQVITU3Fueee6zfiwChEVS6gbhshg2qKlM1mky/OdX6ftnoLIdBxXsQZWObFAIs0FeoQd7YQBtenTx/cf//9eOCBB+Qr0iJgUrIKS5z4W60smfSjc4DV1taG6dOn48033wQAnHfeeV2+p3MF1sGDBwF07FBot9v9Aqvc3FykpKSo9C8whv79+wPwn6HT2ffffw+Xy4Xs7GzL76LV2bhx4wAAW7dujej72VoUOvEzCtYiZ8UWQt8AxpfaAVZRUREA418AcDgc8nuAmm2ErMCiaHQejyCwhRC4+uqrAQB79+6NuvJUvAYEe10lbTDAIk1xiLsyHn74YTz44IMA2q/MqDEHi/OBSGvipEK8HuzatUtuHUpPT8cFF1zQ5Xs6X6UUz2MRYAH+25iPHDlS+YUbTCgVWGI46owZM7j7YCciwPrxxx8j+n5WZoSup3lFVqzASkpKgt3e9fBe7TlYogLL6AEW0PG8UqsCq7m5Wb5wy99zikSwCiy2EAIXXnghUlJS4PF4sHfv3qhu16o/T71jgEWa4gwsdTDAIjM6/vjjAQArVqxAS0sLNm/eDACYOnUqysrK5KHOvnyvUtbV1cknur7P4+HDh8t/ZoDV8TPrrgJLtA/OmDEjJmsykvHjxwOIrALL4/FYcm5TpEINsKz0s7TZbPIcJ18MsEInfn5qVWCJkDouLi7gY0XUE3EM49uq3tzcjJqaGgDWC1x8K6SmT5+OUaNGAQB27NgR1e1atSVT7xhgkaZCCbDcbrecgDPACo0ag9wZYJHWZs+ejfz8fFRXV2Pp0qVygHXCCScEnU/g20IonsO9e/f2axNkBZY/0UJYW1uL5ubmgF8jqosmTpwYq2UZxnHHHQeg/TUz3LYt380yrFQ1FKmeggYrthACgdtdlN7YpTMzBVhqV2D5XpRlBStFQhy3+O60JyrSe/XqFXQWnlllZ2fj+eefxxtvvIH09HQMHToUQOSzKIH2c9P6+noADLD0hgEWaSqUAGvVqlVwuVzo168fCgoKYrU0Q2MFFpmRw+HAz3/+cwDACy+8IAdY3YUovmX2nedfCb4BlrhqZ2Xp6elISEgAELiNsLm5WT5oFu1y1CEjI0N+jm3bti2s7xU7P2ZnZyM+Pl7xtZlNTxVYIkAMtDOfmQWq6uk8K0dp4kRx8ODBqt5PLMSqAstKlYGkrEABljhOz83NtWQwesstt+Dyyy8HALkiP9gOtaEQr5m9evWy/GxUvWGARZryDbDEVefO3n33XQDtW7U7HI6Yrc3IxEn7//73v6A/13AxwCI9uP766xEfH4/vvvsOq1atAtB9gCWumh05cgT79+8H0PU5zBZCfzabTa7CChRg7dixA16vF1lZWfLXkb+xY8cCaJ/TFg5xsB2oHZa66q5SRpIk+ePi66wiUAVWdzPtotXa2iqHMmZ4TYhlBRZRJESAVVRUBK/XC6BjN1Yep/e8Q20ofNsHrRgI6hkDLNKUCLAkSYLL5ery+dbWVrz//vsAgHnz5sVyaYZ22WWXweFwYMWKFfj73/+uyG2K6hW+MZKWcnJycPHFF8t/dzgcclgQ7Ovj4uLg8Xiwfv16AF0rsPr27Ysrr7wSl156aZfPWVV3c7BE++D48eN5UBeEqKwIt4KDAVZ4uqvAamhokE/sGGCpW4FVWVkJoP312AztmmpXYIkAixVYFKmCggI4nU64XC75ArNvBZbVKR1gkb4wwCJN+c6tufPOO3HXXXfJO7MA7VugHjt2DMnJyTjllFO0WKIhnXDCCfj9738PAPjzn/8cdRVWXV2dfCWSARZp7Re/+AWcTicSExNx//33IzExMejXOp1OjBkzBgDwn//8B0DXAMtms+G1117D22+/zUDm/+uuAksMJ2f7YHAiQAi3goMBVni6CxrExxwOR9AZeWbl20IoTuTUrMASt923b9+AOyAajdoVWKJajRVYFCmHwyHPmxOVvqzA6iBe96JpIRQX8Bhg6Y/x32XI0OLi4uS+4hdffBFPPvmkXHEFAMXFxQCAIUOGsH0wTDfddBMSEhJQWFgY9hyWzsRVnYyMjIBXdoliafLkydi7dy/Ky8vx4IMP9vj1kyZNAoCAOxBSYOKAjQFWZMTrpBgAGyoGWOHprgJLfCw9Pd1ywbTv+/SgQYMAqFuBJW5bjC8wulhVYDHAomh0noPFCqwOvjOwRCVuuFiBpV8MsEhzL774ol97oO9OOSLAMsNQ0FhLT0/H7NmzAQBvv/12VLfF+VekN3l5eSHvsiMCLGHGjBkqrMhcRAVWoBZCcbA8evTomK7JSMQJcKQVWAMGDFB8TWYUaoBlNb4Bljh+ilUFlhmoXYElNmswy8+LtCECrJ07dwJgBZav/v37w2azobW1NeINrRhg6RcDLNLcFVdcgWXLlmHRokUA/A8YGGBF56KLLgIArF69OqrbES/+PNgiI5o8ebL856lTp8oVCRRcsAqslpYWeR6e7+6N5I8VWLHRXVBo5QDLt4VQvN4dPXoUbrdblfsTFVhmOdFTuwJLXBTkzEWKhpj/KbosWIHVwel0yq9Hkc7BYoClXwywSDcCHYgywIqOOHD1rWqLhFW3IidzmDBhgvzn008/XcOVGEewCqy9e/dCkiSkp6ez/aUbkVZgicoMBlih6a4Cy6o7EAL+FVgDBw6URzCIYetKYwVWeFjVTkoYP348gPa2/ubmZnm2Gp9X7XzbCCPBAEu/GGCRbjDAUp7Y4SbaAKumpgYAAywyprS0NMycORNpaWm45ZZbtF6OIQSrwBLtgyNGjLDcXKFwRFKB5XK55GpXBlihEUGDy+XqspMxK7Da9erVSw6W1JqDxQqs0Lndbvl1lUEDRWP06NFwOBw4evQoPvnkEwBASkpKyOMVzC7anQgZYOkXAyzSDQZYyvPdyr2trS3i2xEVWHxTJKNauXIl9u3bh4KCAq2XYgjigK2iosJvAGpRUREAYPjw4ZqsyyjE+1k4AZaodktISJBfu6l7vpVGncMGKwdYvj+XxMREOcBSaw6W2Ya4d1fZF62ysjJIkoSEhATk5OQofvtkHYmJiXIr/9133w0AmDNnDi8u/X/RVGB5vV7TBfNmwgCLdKNzgFVbWysHJwywIuNbMXX06NGIb4cthGR0SUlJDAXCIE5E29ra5LYEwL8Ci4ITAUI4LUh79uwB0F6VwROQ0DgcDnkn42ABlm81klX4BlhJSUl+gbQazNZCKC7WqRFg+c4p4u85RUu0EYqLS1deeaWWy9EV8XoUyRD3Y8eOobW1FQDQp08fRddF0WOARbrROcAS1VfZ2dnyASqFJy4uTg6dfE9CwyVaCFmBRWQNTqdTnnHlOweLFVihiaSFcNOmTQD8Nx2gngWbV2TlCizf0M63AosthKERxzp1dXV+FahK4PwrUpIIsID22ZVnnXWWhqvRFxE8RTL7T4TymZmZSEhIUHRdFD0GWKQbwQIsVl9FR1SdRBNgsQKLyHrEIHdxICdJEnbs2AGAFVg9iWSI+8aNGwG075RJoQvW7mXlAKtzBZY4DoimEjsYl8slHyOYpQJLPGckSVJ8kLvYxZUBFinh4osvxogRIzBz5kysWLECcXFxWi9JN5QIsMwSypsNn+WkG52vWDPAUkZWVhb27NnDCiwiCku/fv2wdetWuQKroqICR44cgd1ux5gxYzRenb6J97PW1la4XK6QruCKCqwpU6aoujazYYDVVecAKzMzE4A6AZaYL5OYmCjfj9ElJCQgKSkJzc3NOHbsmKLHPqzAIiUNGzYMu3bt0noZuiQCrEgqT0WAJS7kkb6wAot0o/MV63379gEAhgwZotmazMB3J8KSkhJs27Yt7NtgBRaR9XSuwNq6dSuA9gPmXr16abYuI/ANEEJpI6yurpYv2rCFMDzBdoyzcoDVuYVQzQBL7PBltplOIrQSF/CUIn5eDLCI1MUKLPNigEW6wRZCdYgA68cff8SkSZMwceJErF27NqzbEAdwDLCIrEMcuHUOsHxnblBgDodDDvlCaUESr8nDhg1jpWuYxHtc56vs4uduxQDLN0CVJEkOsKKpxA7GN8AyE3G8o3SAJQZK88SYSF0iwGpoaEBTU1NY38sAS98YYJFuiADL7XbD5XIxwFKIOLh/9tlnUV1dDY/Hg6uvvjrkF/O2tja5goAnVkTWISqwRAvhjz/+CAAYN26cZmsyEvGe1lMFltfrxcMPPwwAOP/881Vfl9mMHj0aALB9+3a/j1u5Ais5OVn+c1paWkwqsMxWUaRWBZZ4DMzSbkmkV2lpaXL7frg7ETLA0jcGWKQbvjsN1tbWYv/+/QAYYEVLBFhA+1yH/v37Y+/evXj33XdD+n7ftgwGWETWwQqs6IgqmJ4qsD788ENs2rQJqampuOeee2KxNFMRgWrn9ngrB1g2mw3Lli3DK6+8gry8PFWHuJu1Aksc74gRCkphgEUUGzabLeI2QgZY+sYAi3TD4XDIIVZRURGam5ths9mQn5+v8cqMLTs7W/7zqaeeihtuuAEAsGzZspC+Xxy8JScnw+l0Kr9AItIlceBWXl6O1tZWucKFFVih6bwxSTD//e9/AQDXXnstcnJyVF+X2Rx33HEAgMLCQng8HgDtbXNWDrAAYN68ebj++usBwK8CS5IkRe/H7AGWkhVYkiQxwCKKIQZY5sQAi3RFtFxs2bIFQPsBUXx8vJZLMjzfCqyzzjoL8+fPBwB8+umnXYbeBsL5V0TW5DvEvbCwEC6XC+np6ayKDVHnuY7BbNiwAQBw0kknqb4mMxo8eDCSkpLgcrmwd+9eAEBTUxPa2toA+A80tyoRlrhcLjQ3Nyt622JXPQZYPauvr5dDVh5TEamPAZY5McAiXREHmt9//z0Atg8qwXeY61lnnYWxY8di9OjRcLvd8pX/7ogKLLYPElmLOHCrq6vDmjVrAABTpkyB3c5Dh1CEUoHV3NwsX7CZPn16TNZlNna7HWPHjgXQ0eYqTj6SkpL83gOtKiUlBXFxcQCUbyM0awWWGkPcxc8+KSkJSUlJit0uEQUWSYDV2tqKqqoqAAyw9IpHoaQrIsD63//+B4CzVpRQUFAg/1n8PMX/xXDm7ogAi1cLiawlLS1NPsn66KOPAADTpk3TckmGEmyI+4oVK/DCCy9AkiRs3rwZbW1t6Nu3L9vloyDaWtetWwcAKC0tBQAMHDgQNptNs3Xphc1mU2UnQrfbLe/+aLYAS40KLLYPEsWWCLA671LbHRF2xcXF8XdVpxhgka6IA/6ioiIAwKRJk7RcjimMHj0a7733HjZv3ixXToQ6mwXoOHhjBRaRtdhsNvnq42effQYAmDp1qpZLMhTxOiuu5ALtOzledNFFWLx4MS6//HLMmDEDQHv1FYOWyP30pz8FALz44ovYv38/ysrKAAADBgzQclm6osZOhIcPH4YkSYiPjzfd/DY1hrgzwCKKLXERf9OmTSF/j6jg7du3LyvOdYqPCulK51kVDLCUccEFF2DChAny38Ww/IaGhh6/V1Rp+Q6DJyJrEHOwBAZYoRM/q3feeQderxeSJGHx4sXy5//1r3/Jf541a1bM12cmF1xwAWbOnImWlhb84Q9/8KvAonZqBFginM3OzjZdAMsKLCLjO//882Gz2fC///0PBw8eDOl7OP9K/xhgka74zqpwOp3yXAtSVjgVWGI+C3ceI7Ie3wO4rKwsv5Zk6t6ll16KjIwM7N27F//3f/+HLVu24KuvvvL7mtTUVKxevRo333yzRqs0B5vNhrvvvhsA8Pnnn7MCKwCxoYuSAZaZRwyoEWCJ9k0GWESxkZeXh1NPPRUA8Pbbb4f0PQyw9I8BFunKCSecIP85IyODOxCqJJwAa/PmzQCAiRMnqrgiItIj3wqsGTNmmK7KQk3Jycm47rrrAADPP/88li9fDgD42c9+hgsvvBApKSlYs2YNTj/9dHnANkVuxowZsNvtKC4ulnd2ZAVWBzUqsMwcYKk5xJ0BFlHsXHrppQCATz75JKSvZ4ClfwywSFduuOEGnH766QCAiy++WOPVmJcIsHpqIaypqUFxcTEA+LUgEpE1+B7AiXlNFLqbb74ZNpsNn3zyCR599FEAwIUXXoh33nkH5eXlbJNXUFpamnyhZe3atQAYYPligBUezsAiMoeRI0cC6AimesIAS/8YYJGu2O12rFy5EkuXLsXDDz+s9XJMS8zA6qkC68cffwQA5Ofn84CLyIIYYEVnyJAhOO+88wAAbW1tcDqdmDNnDhwOh/w6TMo5+eST/f7OFsIOYjcuMR9MCWYOsMS/qbGxES6XS5HbZIBFFHvh7kTIAEv/GGCR7iQmJuLiiy825QGRXoTaQsj2QSISOMA9Mr/85S9ht9uRmJiIRx99lDu6qkjMOhFYgdVBVCHs3LlTsds0c4CVkZEht/ZWVlYqcpsMsIhir2/fvgDaX6/cbnePX88AS/84dIHIgkINsAoLCwFwgDuRVc2ePRu9evXCmWeeiV69emm9HEM69dRTUVxcjIyMjC477ZKy5syZg/T0dNTW1gLououmlY0ePRpAe4Dl9XoV2R5eBFhmDGXtdjv69OmDsrIyVFRUIC8vL+rbZIBFFHuZmZlwOBzweDw4cuRIjxc2GGDpHyuwiCxItK70NANLtBrk5+erviYi0p8BAwagvLwc7733ntZLMbT8/HyGVzGQkJCAxx9/HAAQHx+PxMREjVekH0OHDkVcXBwaGxtx6NAhRW7TzBVYQEflRqitRz0RAZZZf15EeiTCaCC032UGWPrHCiwiCwq1AktsRc42DCLrYvBCRnL99dcjLi4OQ4YM0XopuuJ0OjF8+HDs2LEDO3bsUOTCFAOs8FRXVwMAsrOzFbk9IgpNnz59UF5e3uPv8rFjx+SL+wyw9IsVWEQW5BtgSZIU9OtEBRYDLCIiMgKbzYZrrrkGp512mtZL0R3RRrhjxw5Fbq+mpgaAeQMscQKrRIDl9XpRVVUFgAEWUayJMLq7eXaSJGHRokUAgMGDB3OjFR1jgEVkQSLAamtrC7q7Tmtrq/xCz52ciIiIjE3pAIsVWKGrra2Fx+MBAGRlZUV9e0QUulB+l7/99lssX74cTqcTb775ZqyWRhFggEVkQcnJyfKfg83BOnz4MCRJgtPp5NVCIiIigxsxYgQAoLi4WJHbs0qAJWbiRENUX6WkpHA2G1GMhRJgbdy4EQDwk5/8BDNmzIjJuigyDLCILCguLg5JSUkAgs/BEu2DAwYMUGS3IiIiItKOuBglZjFFQ5Ik07cQKlmBxfZBIu2E8ru8efNmAMCkSZNisSSKAs9KiSyqp0HuvgEWERERGVtmZiaAjt3wolFfXy+3xDHA6hkDLCLtiF0Iu5uBJQKsiRMnxmBFFA0GWEQWJYYT7t+/H16vt8vnuQMhERGReYjZS0oEWKJ9MCEhQa7oNhsGWETm0NPvcmtrK7Zt2waAAZYRMMAisihRgTV37lz88Y9/7PJ57kBIRERkxDk+8QAAJ+tJREFUHqICq66uDq2trVHdltnnXwEdJ71Hjx6N+ufFAItIO3l5eQDaL9oH2n19165dcLlcSEtLw6BBg2K8OgoXAywiixIBFgC89dZbXT4vKrDYQkhERGR8GRkZ8p9FABUp8f2+t2k2WVlZcDgcAKKvwmKARaSdYcOGIS4uDnV1dTh06FCXz2/atAkAMH78eM79NQA+QkQWJVoIAWDnzp0oKSkBALz88su45557sGfPHgBAfn6+JusjIiIi5TgcDjlwiraN0AqBjN1ul/994t8bKSv8vIj0Kj4+HsOHDwcAbN++vcvnv/rqKwDASSedFNN1UWTitF4AEWmj88FYfn4+5syZg08++QRtbW3yx4877rhYL42IiIhUkJWVhZqamqgDrCNHjgAAcnJylFiWbmVnZ6OiooIBFpHBjR07Fjt27MD27dtxzjnn+H1uzZo1AIBTTz1Vi6VRmFiBRWRR33//fZePffTRR37hVVxcHEaMGBHLZREREZFKxBys6urqqG7HSgEWEP3PiwEWkbbGjh0LACgsLPT7eFlZGfbs2QObzcYKLINggEVkUYsWLQLQ/YyrESNGID4+PlZLIiIiIhWJAIsVWKFhCyGROYgAy7eFsKWlBS+88AKA9t0H09PTNVkbhYcBFpFFPfbYY3jrrbewe/dubNmyBeeff36Xr2H7IBERkXkwwApPVlYWAAZYREYnAqwffvgB1113HaZPn46srCx5J/Z58+ZpuTwKAwMsIotKS0vDZZddhuTkZIwfPx6zZs3q8jWDBw/WYGVERESkBhHIMMAKjRIVWG1tbfKujQywiLQxatQonHXWWXC73fjHP/6B7777Dk1NTcjNzcULL7yAu+++W+slUog4xJ2IAAAnnnhil4/l5eVpsBIiIiJSA2dghUeJGVhHjhyBJEl+uxoSUWzZ7XZ8/PHHePzxx3Hw4EHMmjULY8aMwejRo2Gz2bReHoWBARYRAWjv/T7rrLPQq1cvXHLJJfj0009x/fXXa70sIiIiUghbCMOjRAVWRUWFfFsOh0ORdRFR+JxOJ379619rvQyKEgMsIgLQvuPgp59+Kv99wYIFGq6GiIiIlKZEgOX1euVAhwFWz0SA1bdvX0XWRERkZZyBRURERERkAUrMwKqpqYHH4wFg/plOSgRYlZWVABhgEREpgQEWEREREZEFZGRkAIA8VDwSon0wLS0NCQkJSixLt0TgF80MLFGB1adPH0XWRERkZQywiIiIiIgsID09HQBQW1sb8W1YZf4V0FGB1dTUhKampohugy2ERETKYYBFRERERGQBvgGWJEkR3YaVAqzU1FQ4nU4AkVdhMcAiIlIOAywiIiIiIgsQAVZbWxuam5sjug0xD8rs868AwGazRT0HizOwiIiUwwCLiIiIiMgCUlJSYLPZAETeRlhTUwMA6N27t1LL0jUxu6q8vDyi72cFFhGRchhgERERERFZgM1mQ1paGgCgrq4uotsQwZeo5jK7oUOHAgD27NkT0fdziDsRkXIYYBERERERWUS0g9zF94kdDc1uxIgRAIDdu3eH/b1er5cthERECmKARURERERkEdEGWKKF0CoVWMOHDwcQWYB19OhReDweAKzAIiJSAgMsIiIiIiKLYAVWeEQFVlFRUdjfW1paCqB9x8b4+HhF10VEZEUMsIiIiIiILIIVWOERFVgHDhxAS0tLWN978OBBAEBeXp7i6yIisiIGWEREREREFqHUEHerVGD16dMHaWlpkCQJ+/btC+t7S0pKAAD5+flqLI2IyHIYYBERERERWQQrsMJjs9kinoPFCiwiImUxwCIiIiIisgilZmBZJcACgEGDBgEADh06FNb3sQKLiEhZDLCIiIiIiCwimgDL6/XKrYdWaSEEOnYQPHLkSFjfxwosIiJlMcAiIiIiIrKIaAKs+vp6SJLkdztWIAKsysrKsL6PFVhERMpigEVEREREZBHRDHEX868SEhKQmJio5LJ0LScnB0B4AZbH45FbDlmBRUSkDAZYREREREQWEU0FlhXnXwGRVWAdPnwYHo8HDocD/fv3V2tpRESWwgCLiIiIiMgiogmwRAWWleZfAZHNwBLzrwYOHAiHw6HKuoiIrIYBFhERERGRRbACK3yRtBBy/hURkfIYYBERERERWUTv3r0BAEePHoXX6w3re61egXXs2DG43e6Qvoc7EBIRKY8BFhERERGRRQwcOBBOpxOtra1ylVCorFqBlZmZCbu9/bSpqqoqpO8RARYrsIiIlMMAi4iIiIjIIhwOB4YNGwYA2L17d1jfa9UKLLvdLrcRhjoHS4SDrMAiIlIOAywiIiIiIgsZMWIEgPADrKNHjwLoaEO0knDnYLECi4hIeQywiIiIiIgsJNIAS1QfiTDHSsQcrFADLA5xJyJSHgMsIiIiIiILYYAVvnACrObmZvlnxRZCIiLlMMAiIiIiIrIQBljhC2cG1qFDhwAAycnJlmy3JCJSCwMsIiIiIiILEQHW/v374XK5Qv4+UX1kxQArKysLAFBdXd3j14r5V3l5ebDZbKqui4jIShhgERERERFZSN++fdG7d294vV5s3749pO+RJMnSFVjhBFicf0VEpA4GWEREREREFmKz2TBt2jQAwIYNG0L6noaGBrlaiwFW93wrsIiISDkMsIiIiIiILEYEWN99911IXy+qrxITE5GcnKzauvQqOzsbAFBVVdXj17ICi4hIHQywiIiIiIgsZvr06QBCr8DybR+04lwnVmAREWmPARYRERERkcWICqzCwkI0NDT0+PVWnn8F+AdYkiR1+7WswCIiUoehAqxXX30Vubm56Nu3Lx5++GG/z+3atQuLFi3CnXfeiSeffFKjFRIRERER6V///v3Rv3//kAe5M8BqD7DcbjcaGxuDfp0kSazAIiJSSZzWCwjV9u3b8c033+DDDz/E119/jSVLlmD06NGYN28e3G43LrzwQqxatQr9+/fHtddei//85z84//zztV42EREREZEu5ebmory8HBUVFT1+rdUDrOTkZCQkJMDlcqG6uhopKSkBv66mpkYOuBhgEREpyzAVWEeOHMHLL7+MSZMmYfHixZg3bx6++OILAMCKFSuQlZWF/v37AwDOPfdcPPbYY1oul4iIiIhI1/r27QsAqKys7PFrrR5g2Ww2uQqru0HuovoqOzsbSUlJMVkbEZFVGCbAmjlzpt/AyIEDByI3NxcAsHr1ahQUFMifGzFiBL799lt5q18iIiIiIvLXp08fAAipAkt8jVUDLCC0Qe6cf0VEpB7DBFidbd26FVdddRUAoLS0FJmZmfLnUlJS0NbWFvRqksvlQl1dnd9/RERERERWIgKsUCqwtm7dCgAYNWqUqmvSs1ACLM6/IiJSj65mYN17773ym2Nnc+fOxaJFiwAAa9euxaxZszBgwAAA7SW9iYmJ8te63W4AgNPpDHhbjzzyCB566CEll05EREREZCihBlgulwvbtm0DAEyePFn1delVdnY2gO4DrMOHDwOAfJ5CRETK0VWA9cgjj/T4NU1NTfjwww/x6KOPyh8bMGAAamtr5b/X19cjPj5evkrS2b333os77rhD/ntdXR2vkhARERGRpYQ6A2v79u1oa2tD7969Ld0aF0oFlpiPZeVWSyIitRiqhdDr9eLJJ5/E/fff7zcP68wzz0RRUZH89z179uDkk08OWoGVkJCAtLQ0v/+IiIiIiKwk1BlY33//PYD26ivfY3CrCWWIuxh2L6q1iIhIOYYJsCRJwv33348zzzwT1dXV2Lt3L5544gnU19dj7ty5KCkpkWdZffrpp34VVkRERERE5C/UFsIffvgBgLXbBwGgX79+ANrn7wbDCiwiIvXoqoWwO3fddReeeuopvzbDc845B3fddRcA4K233sIvf/lL5OTkYMqUKTjvvPO0WioRERERke6JAKuqqgoejwcOhyPg1/34448AgIkTJ8Zqabo0cuRIAMCOHTuCfg0rsIiI1GOTJEnSehFaq6urQ3p6Ompra9lOSERERESW0NbWhvj4eEiShMOHD8szsTrLz89HSUkJvvnmGxx//PExXqV+HDp0CHl5eXA4HGhqakJ8fHyXr+nXrx8qKirwww8/WD7wIyLqLNrsxTAthEREREREpJy4uDh5rlOwNsLW1la5Za6goCBma9OjgQMHIjU1FR6PB3v27OnyeUmS2EJIRKQiBlhERERERBbV0xyssrIyeL1exMfHy19rVTabDaNHjwYAFBYWdvl8TU0NPB4PAATdDZ2IiCLHAIuIiIiIyKJ62onwwIEDAIC8vDzY7Tx1GDNmDIDAc7BE9VVKSgoSExNjui4iIivguxARERERkUWJYePV1dUBP3/w4EEAbB8UuqvAYvsgEZG6GGAREREREVmUCFtE+NKZCLDy8/NjtiY9Gzt2LABg27ZtXT7HHQiJiNTFAIuIiIiIyKJE2BIswBIthAyw2k2YMAEAsHPnTrhcLr/PsQKLiEhdDLCIiIiIiCyqpwCLLYT+Bg4ciMzMTLS1tXVpIxQ/Q1ZgERGpgwEWEREREZFFsQIrPDabTa7C2rx5s9/n2EJIRKQuBlhERERERBbVXYAlSRJnYAUgAqwtW7b4fZwthERE6mKARURERERkUd0FWMeOHUNjYyMAIC8vL6br0rNgARYrsIiI1MUAi4iIiIjIonwDLEmS/D4n2gf79OmDpKSkmK9Nr6ZNmwYAWLdunV/wxxlYRETqYoBFRERERGRRImxxu91oaGjw+xzbBwMbO3YspkyZArfbjVdffVX+OFsIiYjUxQCLiIiIiMiievXqJVdXdW4jFBVY3IGwq5tuugkA8Je//EWuXGMLIRGRuhhgERERERFZmKgY6hxgsQIruEsuuQQAsHfvXlRXV8PtdqOurg4AAywiIrUwwCIiIiIisrBgg9wZYAWXkpIiD7YvKipCdXU1AMBut6N3795aLo2IyLQYYBERERERWViwAIsthN0bPnw4AGD37t1y+2BWVhbsdp5iERGpga+uREREREQWJloIi4uL/T7OCqzuiQCrqKiIOxASEcUAAywiIiIiIgubOXMmAOCtt96SB5IfPHgQhw8fBgAMGjRIo5Xpm2+AJSqwuAMhEZF6GGAREREREVnYJZdcguTkZOzevRtr166Fy+XCX/7yFwDt4VZWVpbGK9SnESNGAGAFFhFRrDDAIiIiIiKysNTUVFx66aUAgIcffhhZWVn44x//CAC48cYbtVyargWagcUAi4hIPQywiIiIiIgs7qKLLgIAfPbZZ2hsbAQADBw4ED/72c+0XJauDRkyBHa7HY2Njdi2bRsAthASEamJARYRERERkcWdeuqpiI+Pl/9+3XXX4ZtvvkFCQoKGq9K3+Ph4eYfGdevWAWAFFhGRmhhgERERERFZXHJyMk455RT577/73e+Qm5ur4YqMQbQRlpeXAwD69eun5XKIiEyNARYREREREeHss88GAEyZMgUDBgzQeDXGIAa5C+PGjdNoJURE5hen9QKIiIiIiEh7N998Mw4dOoSFCxdqvRTDEBVYQHtL4ciRIzVcDRGRuTHAIiIiIiIipKSk4Nlnn9V6GYbiG2CNHTsWcXE8vSIiUgtbCImIiIiIiCLgG2CxfZCISF0MsIiIiIiIiCIwaNAg+c9ZWVnaLYSIyAIYYBEREREREUXAt2Xw9NNP13AlRETmxyZtIiIiIiKiCG3evBk//PAD5syZo/VSiIhMjQEWERERERFRhCZMmIAJEyZovQwiItNjCyEREREREREREekaAywiIiIiIiIiItI1BlhERERERERERKRrDLCIiIiIiIiIiEjXGGAREREREREREZGuMcAiIiIiIiIiIiJdY4BFRERERERERES6xgCLiIiIiIiIiIh0jQEWERERERERERHpGgMsIiIiIiIiIiLSNQZYRERERERERESkawywiIiIiIiIiIhI1xhgERERERERERGRrjHAIiIiIiIiIiIiXWOARUREREREREREusYAi4iIiIiIiIiIdI0BFhERERERERER6RoDLCIiIiIiIiIi0jUGWEREREREREREpGtxWi9ADyRJAgDU1dVpvBIiIiIiIiIiIvMRmYvIYMLFAAtAfX09ACAvL0/jlRARERERERERmVd9fT3S09PD/j6bFGn0ZSJerxdlZWVITU2FzWbTejlRqaurQ15eHkpKSpCWlqb1cigCfAyNjY+fsfHxMz4+hsbGx8/Y+PgZHx9DY+PjZ3xmfwwlSUJ9fT0GDBgAuz38iVaswAJgt9uRm5ur9TIUlZaWZsonvJXwMTQ2Pn7GxsfP+PgYGhsfP2Pj42d8fAyNjY+f8Zn5MYyk8krgEHciIiIiIiIiItI1BlhERERERERERKRrDLBMJiEhAQ888AASEhK0XgpFiI+hsfHxMzY+fsbHx9DY+PgZGx8/4+NjaGx8/IyPj2H3OMSdiIiIiIiIiIh0jRVYRERERERERESkawywiIiIiIiIiIhI1xhgERERERERERGRrjHAIiIiIiIiIiIiXYvTegGknMbGRvzyl79Eeno6Ghsb8fjjj3P3Ap1atWoV7rvvPixduhSDBg0C0P3jV1FRgd/85jfIyMiA0+nE73//e9hsNg3/Bda1cuVK3HbbbTh69CgWLlyIP//5z4iLi+v2Mdq1axeeeOIJpKWlYcCAAbjzzjs1/ldY27p163DdddehvLwcV111FZ555hkA/B00GrfbjWnTpuGZZ57BzJkz+fgZyB/+8Afcf//9AIDx48djy5YtfPwMaN26dVi/fj2GDh2KU045BYmJiXwMDeCss87CqlWr/D720UcfYebMmXz8DGLHjh14/vnnMWzYMBQVFeGGG27AxIkT+TpqEGvWrMHrr7+OgQMHorq6Gk888QSSkpJ4LhEqiUzjiiuukFasWCFJkiS99tpr0i9+8QuNV0SBVFZWSu+9954EQCouLpY/3t3jd8opp0jff/+9JEmS9NBDD0nPPPNMTNdM7Y4cOSJddtll0oYNG6Q333xTSk5Olh5//HFJkoI/Ri6XSxozZoxUVlYmSZIkXXPNNdIHH3ygzT+ApPr6eun3v/+9VF1dLX300UdSXFyc9Nlnn0mSxN9Bo/n9738vpaWlSV988YUkSXz8jKKlpUW64YYbpM8++0z67LPPpN27d0uSxMfPaF555RXp17/+td/H+BjqX0lJiXTTTTdJa9askdavXy+tX79eGj9+vNTc3MzHz0CmTJkiHTp0SJIkSTpw4IA0atQoSZL4O2gEVVVV0uDBg6XGxkZJkiTp6aeflpYsWSJJEs8lQsUAyyRKS0ulxMREqbm5WZKk9pAkKSlJqqur03hlFIjH4/ELsLp7/NavXy/l5eXJ37thwwYpNzdX8nq9Wizd0tavXy81NTXJf//Vr34lzZ49u9vH6O2335ZOOeUU+XPvvPOOdNJJJ8V03dShubnZ73dn2rRp0urVq/k7aDBff/219Pe//10qKCiQvvjiCz5+BvLXv/5VevTRR+WDd0nie6DRfPHFF9KsWbP8HgM+hsZQUlLi9/dDhw5J8+bN4+NnML169ZJ27NghSVL7Y9W/f38+hgbxyiuvSFOnTpX/vnfvXik+Pl5au3YtzyVCxBlYJvHll18iOzsbiYmJAICcnBwkJCRgw4YNGq+MArHb/X/1unv8Vq9ejYKCAvlrR4wYgUOHDmHfvn0xXTMBJ5xwApKSkuS/Dxw4ELm5ud0+RoE+9+2338LlcsV07dQuMTFRLsdubGzEuHHjMHPmTP4OGkhjYyOWLVuGa6+9Vv4YHz/jePvtt3HfffehX79+eOONNwDw8TOaO+64A6NHj8att96Kc889F+vXr+djaBC5ubl+f//ggw8wd+5cPn4GM2/ePFx//fWor6/Hm2++ieeee46PoUHU1dWhtLRU/nteXh7cbje+/PJLnkuEiAGWSZSWliIzM9PvYykpKSgrK9NoRRSO7h6/zp9LSUkBAD62OvDdd9/hxhtv7PYxCvS5trY2VFZWxny91GHdunU499xz0dDQgObmZv4OGsif/vQn3HvvvX4f4+NnHKtXr0Z1dTXuuOMOXHXVVfj444/5+BnIrl27sHnzZixatAjPP/88zjjjDPzkJz/hY2hQK1euxJw5c/j4GcwLL7wAp9OJadOmISUlBRdddBEfQ4M488wzUVFRgX//+98AIBebrF27lucSIWKAZRI2m01O3AW32w2n06nRiigc3T1+nT/ndrsBgI+txoqLi9G7d29Mnjy528eIj58+DRkyBNdccw0+//xz3HXXXfwdNIhPPvkEU6dORZ8+ffw+zsfPWNLT0/Hggw/i/vvvxzPPPMPHz0C2b9+OzMxMjBs3DgCwePFieL1eSJLEx9BgamtrAQAZGRn8HTSYlpYWLFy4EJdddhluv/12rFq1io+hQUyYMAFvv/02XnjhBfz85z/Hv//9b8TFxWHo0KE8lwgRAyyTGDBggPxGJDQ0NGDAgAEarYjC0d3j1/lz9fX18veQNrxeL1566SU89thjALo+fr6PUaDPxcfHIysrK7aLJj/9+vXDNddcgyeeeAJr1qzh76BBPPnkk7j22muRnZ2N7OxslJSUYO7cuWhqauLjZ0C33HILSkpK+PtnIG1tbfB4PPLfk5KSMHz4cLS2tvIxNJiVK1di9uzZAHgcajSXX3455s2bh9/+9re45557sGDBAvTv35+PoUFcfPHF+Oqrr/Dyyy+joqICs2fP5rlEGBhgmcTpp5+OQ4cOyYmsKAmdPn26lsuiEHX3+J155pkoKiqSv3bPnj0YMmQI8vPzNVkrAU8//TRuv/12+WpId49RoM+dfPLJlr1qojdTp07FwIED+TtoEP/617+wefNm+b8BAwbgb3/7G6666io+fgZkt9sxefJk/v4ZyPjx41FTU4Oqqir5Y3FxccjNzeVjaDD/+c9/cMEFFwDgcaiRVFVVYcuWLcjIyAAA3H///UhLS0N+fj4fQ4PZtm0bVq5ciUceeYTnEmFggGUS/fv3xznnnIM1a9YAAD799FPcfPPNXUpJSR8kSfL7f3eP3/HHH4/evXvLL1yffvop7rjjDm0WTnjqqacwcuRIuN1u7Nu3D//4xz+QlZUV9DGaO3cuSkpKUFdX1+VzFHstLS3YtGmT/PeVK1diyZIl/B00iJycHOTm5sr/ORwO5OTkoKCggI+fAVRVVeHNN9+Ex+OBJEn485//jN///vf8/TOQUaNG4dxzz8W7774LAKipqUFbWxsuv/xyPoYG4na7UV1dLVfg8HfQODIzM5GYmOg3CDwrKwsTJkzgY2ggNTU1uO666/D6669jzJgx3T5GPJfwZ5PEGTQZXlVVFe655x4MGjQIR48exaOPPor4+Hitl0WdNDQ04I033sDNN9+MBx54AIsXL0Z2dna3j9/evXvxxz/+Efn5+ZAkCQ888IC8kxrFzrPPPoslS5b4fWz06NEoLCzs9jH67rvv8Le//Q05OTno27cvbr31Vi2WTwC2bNmCs88+G8OGDcOMGTMwffp0zJ8/H0D3r6H8HdSnQYMG4Z///CdmzpzJx88AiouLMWvWLMTHx+OUU07BkiVLMHbsWAD8/TOSqqoqLFmyBFOnTkVJSQkWLVqE0aNH8zE0kE8++QSbN2/GPffcI3+Mj59xbNmyBS+++CKmTJmCiooKnHrqqTjttNP4GBrA4cOHsWrVKmzatAlXXnklJk2aJH+O5xKhYYBFRERERERERES6xhZCIiIiIiIiIiLSNQZYRERERERERESkawywiIiIiIiIiIhI1xhgERERERERERGRrjHAIiIiIiIiIiIiXWOARUREREREREREusYAi4iIiIiIiIiIdI0BFhERERERERER6RoDLCIiIiKd+vzzzzFjxgx8+eWXit92UVERamtrFb9dpX3//fdaL4GIiIh0gAEWERERGd7q1asxceJEDBw4ELfffjtuv/12XHnllUhISEBNTY0u1paSkoK33noLra2tIX9vXl4efvzxR8XX9Pnnn2PHjh1IT09X/LbV8MILL2i9BCIiItJYnNYLICIiIorWGWecgZ/+9Kf44osv8PTTT/t9XGtibZ999hkWLlwY1veOGDECmZmZiq6npKQEy5cvx4svvqjo7apl8uTJWLVqFT7++GOcd955Wi+HiIiINMIKLCIiIjIFh8PR5WMLFy5EWlqaBqvx53A4EBcX2XVDu13Zw7X77rsPl1xyiaK3qbZbbrkF9913H7xer9ZLISIiIo0wwCIiIiJT+utf/wqn04n6+nr89re/xbRp0/CXv/wFvXv3xtatW7FixQosWbIEd955J8455xw0NDSgtLQUt956K+bMmYN3330XI0aMwPjx43H48GHceuutyMrKwtVXXy3fx+HDh/Gb3/wGt956K0455RQUFRX1uK49e/bguuuuw4033ojHH38cOTk5WLBggfz5lpYWLF68GA8//DCuu+46vzlVge5v165dOPXUU2Gz2fD9999j2bJlmDBhArZt29blvmtra7F8+XLMmDFD/ti2bdvw8MMP4+6770ZSUhJaWlrw4IMPwmazYdmyZSgqKsLxxx+PUaNGYceOHWhra8OCBQtwzz33AAA2bNiABx54ABdddBEWLFiAxsZGAMDu3btx//3345prrsE555yDyspKrFq1CmeffTZeeuklXHDBBUhPT8ctt9wiB1PLly/Hk08+iYULF+KEE06Q15icnIzU1FSsWrUqxEefiIiITEciIiIiMoEHHnhA6tevn3TjjTdKCxculPr27StJkiS53W7p9ddfl1JTU6XPP/9c+vvf/y4dPXpUysrKkg4cOCBJkiSNGTNGevfddyWXyyX94Q9/kEaOHClt3LhRcrvd0rhx46R58+ZJZWVlUnl5ueR0OqUdO3ZIkiRJ8+bNk2prayVJkqRbb71VOuOMM4Ku7aSTTpIkSZJaW1ul2267TZo0aZK0efNmqaysTIqLi5N27twpSZIk3X777dLf/vY3SZIk6fDhw5Ldbpe++OKLbu+vsrJSys7Oll577TXpd7/7nbRv376A6/jggw+koUOH+n1s3rx5UkVFhSRJkvS73/1Oam5uliRJkoYPHy599NFHkiRJ0kcffSQNGzZM/p57771Xamtrk2pqaqT58+dLkiRJHo9HmjBhgvS73/1Oam1tlc4//3yptbVVkiRJ+ulPfypde+21ksvl8vt5/ve//5Xsdrv0xhtvSJIkSaeeeqp8H7/+9a/91nn11VdLd955Z8B/FxEREZkfZ2ARERGRaQwdOhQvv/wyAODZZ58FADidTuTm5qJ3795+M7GWLVuG/Px8fP3113C5XGhoaEB8fDz69++Pfv36YcqUKQCACRMmYOjQoejfvz8AoF+/fqisrERaWho2btyIf/zjHwCAuLg4ZGRk9LhG8XXjx4/HhAkTAAB9+/ZFRUUFBg4ciJdeegnFxcXyx/Py8gAAZWVlQe8vJycHf/rTn/CrX/0KDz30EAYPHhzwvvfs2YPevXv7fSwlJQXz58/H888/j5tuugnx8fEAgAULFmDZsmU477zz0NrairKyMnzzzTeYNGkSkpKS4HA48PHHH+PYsWPy3LGJEyfC6/Viw4YNOHToEJ5//nkAwMCBA2Gz2RAfH4/MzEycd9556N+/P/r374+zzz4bH330ES6//HKUlJTg5z//OX73u99hyZIlfuvMycnBrl27evz5EhERkTkxwCIiIiJTuuiii+Q/22w22Gw2v89nZGTg7rvvxvz585GbmwtJkuSv9dV5tpbdbofX60VJSQni4+Nx++23h722zvcRFxcHr9eLXbt2weVyISUlpcv39HR/l19+Oe666y7s378/6P22tLTA6XT6feypp57CDTfcgAkTJuD666/HCy+8ALvdjgULFuCEE06A2+3Gpk2bcM011+DNN99EWVmZPEy9pKQEQ4YM6bKmpUuXIjs7O6SfzdixY+V2x/fffx9XX301Bg8ejCeeeAI33XST/HUJCQmoq6vr8faIiIjInDgDi4iIiExp4MCBQT9XU1OD2bNn47e//S2mTp0a0e33798fRUVF+PHHH+WPbdiwIaLbEsTA+R07doR9f88//zxeffVVPPvsswG/HwCysrLkGVVCbW0tli1bhlWrVuG9997DG2+8AQAYNWoUBg8ejKeeegqjR4/GwoULsXTpUmzYsAGTJ0+W1/Txxx+jpaXFb039+/fH2rVrUVFREXCtvtxuN0aMGCH/+zdu3IhHH30Uixcvxt69e+Wva2lp6VI9RkRERNbBAIuIiIhMoa2tDR6PJ+jnfT+3d+9eHDt2DNXV1di1axdKSkrQ1NSE/fv3Q5IkuRorGEmSkJ+fjxkzZuCCCy7Au+++i/fffx///e9/g67Ndwc9r9fb5T4kScKwYcMwceJE/OY3v4Hb7UZVVRXq6+tRWVmJgQMHBr2/zZs3Izk5GXPnzsWNN96Im266KeC/YcKECSgvL/f72NNPP422tjacccYZuPLKK/2+b8GCBXjuuecwb948nHjiiUhPT/erDps9ezbq6+tx/vnn49NPP8ULL7yAgwcP4oQTTkDfvn0xe/ZsfPzxx3jzzTfx3Xffyd/nu4a1a9fixhtvBAA88cQTsNvtuPXWWzFp0iS/tZSXl2P8+PHBHxQiIiIyNQZYREREZHhr1qzBxx9/jK1bt+LVV1+Fy+WSP1dTU4O33noLZWVl8vyoiRMn4rTTTsO0adOwYsUKzJo1C6+99hp69eqFjz76CDt27MC6deuwZcsWfPvtt/jyyy9RVFSEFStWoLy8HEuXLkV9fT3+9a9/YciQIbj22mvxxhtv4Lbbbgu6tm3btuH111/HgQMHsHr1amzYsAFbt27Ff//7X1RUVGD58uWor6/HsmXLUF9fj7Fjx+Lpp59Gbm4utmzZEvT+9uzZg3nz5qGgoAAAUFBQgDVr1mDx4sVoamryW8u0adNgt9tRVVUlf2zz5s2YNWsWnnjiCdhsNlxxxRXy5y699FJcc8018lyshQsX4rLLLpM/n52djQ8++AClpaW49NJLUVZWhnnz5iE+Ph4ffPABHA4HFi5ciDVr1mDRokXy93311Vd46qmn8Mtf/hK/+tWvMHbsWADAiy++iKuuugp/+tOfcPnll2PYsGHy9xQWFmLu3LnhPzmIiIjIFGxST5cYiYiIiMg0HnvsMeTl5WHBggWa3P/MmTNx9dVX4+qrrw75eyorK3H55Zfj008/VW9hREREpGuswCIiIiKykF/84hf473//i9bWVk3uP5QWzc7+8pe/4LnnnlNpRURERGQEDLCIiIiILMTpdOKJJ57As88+G/MQa+XKlSgsLMSHH36I4uLikL/njDPOwMiRI1VeHREREekZWwiJiIiILMjj8cDtdiMpKUnrpXSrvr4eqampWi+DiIiINMYAi4iIiIiIiIiIdI0thEREREREREREpGsMsIiIiIiIiIiISNcYYBERERERERERka4xwCIiIiIiIiIiIl1jgEVERERERERERLrGAIuIiIiIiIiIiHSNARYREREREREREekaAywiIiIiIiIiItI1BlhERERERERERKRrDLCIiIiIiIiIiEjXGGAREREREREREZGuMcAiIiIiIiIiIiJdY4BFRERERERERES69v8AmuuvMlN3kcIAAAAASUVORK5CYII=;shadow=1;imageBorder=default;imageBackground=none;strokeWidth=1;fontSize=9;fontFamily=Times New Roman;" vertex="1" parent="1">
          <mxGeometry x="-1130.75" y="-2165" width="260" height="130" as="geometry" />
        </mxCell>
        <mxCell id="4mB-E_8tkrWjStZip_CA-137" value="" style="edgeStyle=orthogonalEdgeStyle;rounded=0;orthogonalLoop=1;jettySize=auto;html=1;fontFamily=Times New Roman;" edge="1" parent="1" source="4mB-E_8tkrWjStZip_CA-102" target="4mB-E_8tkrWjStZip_CA-128">
          <mxGeometry relative="1" as="geometry" />
        </mxCell>
        <mxCell id="4mB-E_8tkrWjStZip_CA-102" value="&lt;p style=&quot;font-weight: 700;&quot; class=&quot;MsoNormal&quot;&gt;&lt;font style=&quot;line-height: 29.64px;&quot;&gt;Down-sampling&lt;/font&gt;&lt;/p&gt;" style="rounded=0;whiteSpace=wrap;html=1;fontSize=9;fillColor=#b0e3e6;strokeColor=#0e8088;fontFamily=Times New Roman;" vertex="1" parent="1">
          <mxGeometry x="-1490" y="-2155" width="80" height="40" as="geometry" />
        </mxCell>
        <mxCell id="4mB-E_8tkrWjStZip_CA-142" value="" style="edgeStyle=orthogonalEdgeStyle;rounded=0;orthogonalLoop=1;jettySize=auto;html=1;entryX=0;entryY=0.5;entryDx=0;entryDy=0;fontFamily=Times New Roman;" edge="1" parent="1" source="4mB-E_8tkrWjStZip_CA-130" target="4mB-E_8tkrWjStZip_CA-97">
          <mxGeometry relative="1" as="geometry">
            <mxPoint x="-1450" y="-1875" as="targetPoint" />
            <Array as="points">
              <mxPoint x="-1450" y="-1880" />
              <mxPoint x="-1140" y="-1880" />
              <mxPoint x="-1140" y="-2100" />
            </Array>
          </mxGeometry>
        </mxCell>
        <mxCell id="4mB-E_8tkrWjStZip_CA-128" value="&lt;p style=&quot;font-weight: 700;&quot; class=&quot;MsoNormal&quot;&gt;&lt;font&gt;Low pass and High pass coefficients (&amp;nbsp;&lt;/font&gt;&lt;span style=&quot;background-color: transparent; color: light-dark(rgb(0, 0, 0), rgb(255, 255, 255));&quot;&gt;phased drift removal )&lt;/span&gt;&lt;/p&gt;" style="rounded=0;whiteSpace=wrap;html=1;fontSize=9;fillColor=#b0e3e6;strokeColor=#0e8088;fontFamily=Times New Roman;" vertex="1" parent="1">
          <mxGeometry x="-1500" y="-2075" width="100" height="40" as="geometry" />
        </mxCell>
        <mxCell id="4mB-E_8tkrWjStZip_CA-143" value="" style="edgeStyle=orthogonalEdgeStyle;rounded=0;orthogonalLoop=1;jettySize=auto;html=1;fontFamily=Times New Roman;" edge="1" parent="1" source="4mB-E_8tkrWjStZip_CA-128" target="4mB-E_8tkrWjStZip_CA-130">
          <mxGeometry relative="1" as="geometry">
            <mxPoint x="-1450" y="-2035" as="sourcePoint" />
            <mxPoint x="-1460" y="-1918" as="targetPoint" />
          </mxGeometry>
        </mxCell>
        <mxCell id="4mB-E_8tkrWjStZip_CA-130" value="&lt;p style=&quot;font-weight: 700;&quot; class=&quot;MsoNormal&quot;&gt;&lt;span style=&quot;&quot;&gt;Phase Unwrapped Signal&amp;nbsp;&lt;/span&gt;&lt;/p&gt;" style="rounded=0;whiteSpace=wrap;html=1;fontSize=9;fillColor=#b0e3e6;strokeColor=#0e8088;fontFamily=Times New Roman;" vertex="1" parent="1">
          <mxGeometry x="-1490" y="-1955" width="80" height="40" as="geometry" />
        </mxCell>
        <mxCell id="4mB-E_8tkrWjStZip_CA-144" value="&lt;p class=&quot;MsoNormal&quot;&gt;&lt;span style=&quot;font-size: 11pt; line-height: 107%;&quot;&gt;&lt;img width=&quot;68&quot; height=&quot;14&quot; src=&quot;data:image/png;base64,iVBORw0KGgoAAAANSUhEUgAAAFUAAAARCAMAAACb4hASAAAAAXNSR0IArs4c6QAAAJlQTFRFAAAAAAAAAAA6AABmADpmADqQAGaQAGa2OgAAOgA6OjpmOjqQOma2OpDbZgAAZgA6ZgBmZjoAZmY6Zma2ZpC2ZrbbZrb/kDoAkDo6kDpmkGZmkGaQkJA6kJDbkNv/tmYAtmY6tmZmtpBmtpCQttv/tv//25A625Bm25CQ27Zm29uQ2/+22//b2////7Zm/9uQ/9u2//+2///bYaI8LAAAAAF0Uk5TAEDm2GYAAAAJcEhZcwAAEnQAABJ0Ad5mH3gAAAAZdEVYdFNvZnR3YXJlAE1pY3Jvc29mdCBPZmZpY2V/7TVxAAABKUlEQVQ4T9WUwVbCMBBFE7REraAIpiragNogShuS//84Z4YUQkl7jpxuzKKL9N3XNzNJGfvHS3MufXzFB3l7JYEwELUwenTQ2Lsu10AY2MaZv7naMVWmB4+1cR+ubPUAkc1VUvbqunwF1yVa++Wzrrl0mdjvYgfsRGwnMCmvgDJp+UAeoFa5+VqwapbJBmPf9PDl89BuFH9838w2qIxNqwbI1UxNupn/gK7JmOtw0iSuktI97bM2T9cO2AmlSd8lyE8Y76o4v4TMJIaHScuWDrDAdZHbsWAaG3jMmKkafRVQzC29RVcH1VdilcdPiQdoAPcF1OSyE0YlZcUpn6R8XsxwM+paAyhUnFLyiwI/EGHcM+xi1l5vLOTcdl3Q835tOKyOW3+eab/UL7CIJ31XxV4lAAAAAElFTkSuQmCC&quot;&gt;&lt;/span&gt;&lt;i&gt;&lt;span style=&quot;font-size: 8pt; line-height: 107%;&quot;&gt;&lt;/span&gt;&lt;/i&gt;&lt;/p&gt;" style="rounded=1;whiteSpace=wrap;html=1;fontFamily=Times New Roman;" vertex="1" parent="1">
          <mxGeometry x="-1390" y="-2150" width="120" height="40" as="geometry" />
        </mxCell>
        <mxCell id="4mB-E_8tkrWjStZip_CA-145" value="&lt;p class=&quot;MsoNormal&quot;&gt;&lt;span style=&quot;font-size: 11pt; line-height: 107%;&quot;&gt;&lt;img width=&quot;85&quot; height=&quot;30&quot; src=&quot;data:image/png;base64,iVBORw0KGgoAAAANSUhEUgAAAGoAAAAlCAMAAACd8YwcAAAAAXNSR0IArs4c6QAAAK5QTFRFAAAAAAAAAAA6AABmADpmADqQAGa2OgAAOgA6OgBmOjo6OjpmOjqQOmaQOma2OpDbZgAAZgA6ZgBmZjoAZjpmZjqQZmY6ZmZmZma2ZpDbZrbbZrb/kDoAkDo6kGY6kGZmkGaQkLbbkNvbkNv/tmYAtmY6tmZmtmaQtpBmttv/tv/btv//25A625Bm25CQ27Zm27aQ29uQ2/+22//b2////7Zm/9uQ/9u2//+2///bOyeUdAAAAAF0Uk5TAEDm2GYAAAAJcEhZcwAAEnQAABJ0Ad5mH3gAAAAZdEVYdFNvZnR3YXJlAE1pY3Jvc29mdCBPZmZpY2V/7TVxAAACUElEQVRYR+2Xa1vCIBTHYTbtYrmyi+myi1iZK7s4hO//xTrHLYUNGHNPb3rinQ74nxu/A4T8j0IEXg/mPjFh3ZnPNNecaWjZYtWnwUhZmbS8TLJrcZtP4nRC9N2TdjO3nOt1O6xW+VkgYzVGxTVpuFT+cs+t1MMwWYc417Ij417lfo4JLil5UzCD/ZZUSYk0lIqsuUrgy6vqV8MA2lPNO5TSQJUSdrO8clgjKM4S8hCrcS4bnivyN6WYixZ6AvJcySlUi75MRFBCMDK48D7de4lp+BkFl3QY0+MMOe9dFT0VuU1OcDILl/xq4GBMNIS0SNaTtzMZh8tVVrhpq8SlzL7ygNkSVAj6hgXCTyxqaeafvDmak/VZyov8HX4TogfAanCKXiGCkwKhtPU5o+X4cKRJ1YFNlivYaXHZe5uxNmwUXJVpzTtDwgcQPb4/QcDkAST1i130g2EK7VkM0LmpoTEsOvT4K6ajlAYP8SENrvMw7XyuQAoIaZKytTgPKTmm62uFTgv0alSmv55oDbEeDGTtrzuscp2BSTBZReHY0VlhSaIA26MxbBRMZK8IoOpjuYmI/ubYrydiM8muSoaGwzv+t6hyY3iepfqp2dxlPCLgwo2pByHfFBZsC8cjrw4tg5Q4K9yTfoDc0CtT/Lsf92TLAjRmuq72hvdA3LMwVhGgbsuCtDUXF8snkALQVKDf/dnSxbcswFQtjvAJ4XHa3VrM+BLZsACj9jjHolxo16dd/JPPprfIDwtEBG2J4Zlne43fVy7zarBgFy+VNSYWfAMmbEK8GX44PgAAAABJRU5ErkJggg==&quot;&gt;&lt;/span&gt;&lt;span style=&quot;font-size:8.0pt;&lt;br/&gt;line-height:107%&quot;&gt;&lt;/span&gt;&lt;/p&gt;&lt;p class=&quot;MsoNormal&quot;&gt;&lt;span style=&quot;font-size: 11pt; line-height: 107%;&quot;&gt;&lt;/span&gt;&lt;/p&gt;&lt;p class=&quot;MsoNormal&quot;&gt;&lt;span style=&quot;font-size: 11pt; line-height: 107%;&quot;&gt;&lt;img width=&quot;93&quot; height=&quot;27&quot; src=&quot;data:image/png;base64,iVBORw0KGgoAAAANSUhEUgAAAHQAAAAiCAMAAAC5kw3/AAAAAXNSR0IArs4c6QAAAMZQTFRFAAAAAAAAAAA6AABmADo6ADpmADqQAGa2OgAAOgA6OgBmOjo6OjpmOjqQOmaQOma2OpC2OpDbZgAAZgA6ZgBmZjoAZjo6ZjpmZjqQfHs6ZmY6ZmZmZma2ZpDbZra2ZrbbZrb/kDoAkDo6kDpmkGY6kGZmkGaQkLbbkLb/kNvbkNv/tmYAtmY6tmZmtmaQttuQttvbttv/tv/btv//25A625Bm25CQ27Zm27a22/+22//b2////7Zm/7aQ/9uQ/9u2//+2///bQ697sgAAAAF0Uk5TAEDm2GYAAAAJcEhZcwAAEnQAABJ0Ad5mH3gAAAAZdEVYdFNvZnR3YXJlAE1pY3Jvc29mdCBPZmZpY2V/7TVxAAACd0lEQVRYR91X2XbTMBC1DE0KLTE2hDUldjegcqAlooHEKNL//1RnJJkqkuzEjekDesk5ljTLnas7kyj6P9Z6TOLcpCLPyZP5I6QlXl1FrPZEh8vL1T9wKsuhZ5U/1+lhAJuLjnqJgQ59M9VAfeOHhDgRSaq39ltVoGbiramjcW57kEVd7z38Mh9ceVqDyobU2w5c6Oyepu6Ve5+QFU/cbdYDvr5TBvj9VLkCj3gCr2a0hEqWV5rTvTh18UP2kFg5hXrzpEqjEhIWs/yP+tgHvG02YI8nkHiVy8tf309uFW/9KncuKWbTdAmJajKNZp+WF5/xYC/s5c/c91/HIDIgEY2/FgR+EeS6zt0zc2/4otNusxarvTyL190EXQcpS+AadWRCZEBBWPab4mNy8KMgg99Z/J5MC6JVtDMZlWzCE+IfJ9uzFdkUPEiayosbWQxW6wwDZQduojrapoVMSlUj2AnnSmcuT4/nmoJaFvCth3BpzIK+XEWoyUxLmSVZATNGvOX5UW477UokdR5sLT6ktzcoIJ6M2uHyw2nEJ4AtPBKESMMbaJlb2ItPTIzjaYXjxQLkq7XDwoHRsiB5ReDtHZH4RMNj+vV2UugTQseqF39xfXbtkrjJkiUrgZZp3fJnJATp72IJn6zfNKmL491y2i6lgRnJviDGhDz9siNIzLQROO63NstGiGWbrY3tmOZmYG1OAzOS00/lWTc9M75b4Q0VvLOEBdBvJVJogLKJtGM1vWOyCIyg5lSgd8qyhxEJG4Y/DxqnyKNy839FT8N2C0QwVYh3q28P4spDkVdtb3GMCvt4C0s6m7cret/R6BnpXkb6tt/R3h2v20wSRQFvEwAAAABJRU5ErkJggg==&quot;&gt;&lt;/span&gt;&lt;i&gt;&lt;span style=&quot;line-height: 107%;&quot;&gt;&lt;/span&gt;&lt;/i&gt;&lt;/p&gt;" style="rounded=1;whiteSpace=wrap;html=1;fontFamily=Times New Roman;" vertex="1" parent="1">
          <mxGeometry x="-1390" y="-2100" width="140" height="90" as="geometry" />
        </mxCell>
        <mxCell id="4mB-E_8tkrWjStZip_CA-146" value="&lt;p class=&quot;MsoNormal&quot;&gt;&lt;span style=&quot;font-size: 11pt; line-height: 107%;&quot;&gt;&lt;img width=&quot;229&quot; height=&quot;42&quot; src=&quot;data:image/png;base64,iVBORw0KGgoAAAANSUhEUgAAAR4AAAA0CAYAAABciVcyAAAAAXNSR0IArs4c6QAAAAlwSFlzAAASdAAAEnQB3mYfeAAAABl0RVh0U29mdHdhcmUATWljcm9zb2Z0IE9mZmljZX/tNXEAABFWSURBVHhe7V07cyJXFj5NTa7JCZdmazGpXDVo4pGBwCTDVpEwyYCjgQ2UrFlkMThiqwyOBhysSXCNnBBYYOWWpmq1IUPV0KTKzQ+Y7v3ObZAAQXfzfuj2Jl4Nffve754+fe55fOfJ2dkZyUsiIBGQCKwTgSfrfJh81m4jkI0dGsl4iChjkPsmp+z2auTsV4lA7Oml/upjVPnPuxSpCrlyuZwx/DypeFaJ/h6NnY0dGEdqnvwN7U7pHN6eGqFKghpGmYLdEh2paaKiRse92sxKyVRqdfJVy9SrSaW266LjeVOlb0uv6K+uNv2mv9Oz2eyI8pGKZ9d3eA3zz2ahFJQQlM6opROMFClB55Qvdemm11MyiYRBKQ/d5GabVDYbM5pNooi/RZ3ZbpW/3lIEcrmai+gFdUqXuveb3xWjEqRhr45UPFu6cds0rW4pT5VAkbQgUe3mfmZdaInISZRa8QuKXR0aheQhuXP31krs8MAo1L10Ug5Sbejv42uDkAoL6ZBoxBzfJgzkXOZDwPMmQwlXnv7W+UpPq1nXWf/IJRXPfHg+mrvYGikdnVIiczWiPMTfSxoMHBVWSpwumlEiX5iod6+ZPEEvUR3KCkone3hrKKHKKG6szK5Slkrp0QC9pwvN5W5cX7++1vONrkJplagfy5KKZ083fGnL6l7Q+XWAopCZIZ1ChL+3KUxsrWQzfuMof07Ragr+GaLYwa1RoAiVknlq+arkxo25G7fyMILaY6WztKnKgbYTgWAkQeF8gzp6SlcV09cjFc927tX2zEpr0zX5KeMhGjplUbOQpkqlzY5lHI+a5Eewy4vfBOGEThZw5HLfKGEfGW3+4/CNE1Y28CGd8r9VFAoUNWMeB/X2gCZnMoKA+gUFPnykLk7SKplxB6l4pIxYItDttIgCUQjMqP64cZ/BgsHfYLGwXnGfucV/B3GkokiKskEVR7RbilzhNzaKB+a44sZgdxllbDbJa38QwHHcT++p0yUK9U9bUvHsz/aubiV+70x+mFY+SaWOD0exFrWTJYqUswaU0swh9tUtSI68fgQ+UFvDU/kLJi2e9cO/a0/U2tczTZl9OcfH8Af1euTm/6CesITkJREYRkBaPFIeJAISgbUjIBXP2iHfwQe2OhTDcckqF2cHVyWnvEEEpOLZIPi78GjVFyC4aiyv2MGloaZnO5LdDShzeXZBDBabY1eDCD2jl33/jvTxLAbn47n7uk3sF5x2eVLITk2HiNMDE2NlFdPu4dqsEgpO048Hxce7Uu0jUjKIXg4hIC2exysOjlbu8frxO9RQIRQ67eJweLmRMCrITK6EkiK3xy6KlavdIPEwYaTzjqYhf7TzCPhJRUoX18RwqEEqnp3f0BUvQPVRwO6sxcKEaJZWDODIVaHQkQ+lEA58QmJsee07Al0NZ/VnnAt2n1EhFc++7/qi6/N4kfx1LXIw3DZjeVJVKp6rlL5OU7wUJg6mW125Wk+E3mXZxKKbtN33ax/5oIVaPnnU2u6N2sbZtXDWslM8om7rqmG0QaFRQUEgaDQMSRi2jbu5gTn5VfK6yHV2ZhKCObZ4hiMXVg5EkxyKhw6AE+pqJ0mdnK51ldu3PTiq5CCwdQfFPP6eVeK4yr0c36OUp0nMWzRWg+9seYkGab48DaKD/I5VQvcvqrNBNvMr4KCHK6QY/M53/kARunJHfzGY0TOfKhzMg8ux4hGqZMAuZ8H0xDU8hsHEUbvtNXSy1lVu8y7jOJe/Z4Vgrmovx/foQc3ZlDVxUWyppCK7e5ipURS0GcNz3RU6dODg0o1DPenKOy6LmUnxrFA2HvXQIrRcyFMbFZXbejTxO6gyH97EWu9YaSSuYf068/dMEoBB1fq8FsQZKuSXKVgmNxH7sEy6V7vI3cQ1gRzt6AgUslH4PA5ihnsOmthlrSkb+1IvFd4qLHezWFfAQS899yrpq9d0oZcpBE5lZiiYdqlfBOjDRw6L3ifyPFA85mbXKTInsMsCZR3jbHqtgvIzWaCkdoCINQzRyPyrZrO/HlkFCbtGbbxoEbAP2lWZj88+WG5QAhI9r7/HqQUxGTWbkvg5oBY+rGrROC9451I64pF49/ycoXCOEtpo2NZvNsc0bW9hxQG5U5Lap77csdvFuY5mWtPsz0X914KqhPt+G7xLU5/rUbHg9x3w8QQt+HjAZ9kK+OgEwyx/62wxWe8PNrxWQfnpdlM5GDZK+TSqudd/scLK+ywI2pt1qiQiI5SmTmcp/D1a0WiBBN5pfo/TsTf2O/ATjTMtzjIXjuSVyxlx1NqUtSP4kE2500v5fyhzyR2SAskHEiYnVzBCiXB9Mh8Ps8bFkYNxKtiYoJiVc2ShVhGVmN4xgDsPJOMQqr7XKCE6ENh3GLA1oS3S6E0rIU4h8VDTge0tKDTL136da3WyL5v6jXC8XoJ+tOxBSPvhLMzOD7fUuAriCz/fZ4hftGo/vydfOrENsU/CIgaOHxURC3a4loNdEscdf4PmPUrNIrcj8hZI0O1ti/wRa3Izu/myQnb6Wc/GnurJeEq5f8c6UOLqXXRoXbJjWklxJYyJGH0cvoj8ha4GGYEWE2H603cXpD9//qPi+SMlOk6IoxZ/9dRLnFs1jNJ/iU8oSWoozi+2Ma3dCLPQUVSjs+OawmAXCBvi4LI3oadTYjaTKoVaeFmMK/KgpUqykISl0HDsG1n3Wh3AsZGfMAfyUT46lfNYcCSrl3jZr+Y/VvRX5glHKcCiEvYIatRZLtMRGyOt2CK1XiJfvU3eqkFnC7TAmUVuR+QNfowkVEakPP3Yuez5/l5IATiw6l+rLq2Z/Fww0KVqAxfjEMZ790m/glECHODVibxTCFCITGS7CwEH189/P9e9rrbC7W6emP2S+r2RGFj0SWJgPThsFQNxy/G4gLByXqBGtWzUIAhuR1Owm+L0fzctJbZyTIJwnnsLnseM4eyLvMq1LmLFzYPIxOeBNhSX2anBymrkPYclk7EgWufIlKFFYPEc0UF1+sfHbu4Dhyy3xpmnX9bAOvDEokYgfU7QlHSzgNLh+TqV24nyZuOGWPZ8PXDM/vT+3zAKyrrqKYsw9XC0K5v9EtGkoFKZ1p8DctDBPsO19KCpnt3eDf4dOOAZAeWHT2/IC0ey0dU+f3zmU9gd4/TCh0x/no8qn3Szwd8TYk5dgCn8zUM+DybzPsdpZjTfcPQxHLnQMmhhElfgKHPOkzv3S8r+BtBwajCs+MPZvYAgFqsTv8hCycAJeDwc2VjhWhex4pxu3vDvxp/30Lk82WoU2COqEq3aWzJcT1UGkbsSLzkrgZiwEP5SimPRCjuP3ufTsMLFRxRNAa2Uk2O5nSRv0epMbIzz7O3wPbU/j12dfz3V8Y4pgWhHPz1Fi5h+Eh7/Lpf7r8v93RBt7IMH9uiXRYnYgMNPKHn45FEI9hd1G+/JAA7qUEKg1TpZcX3julW+/fzmrqvoE6h/Clyf00U3RWF+kTGgpwvLB74b2NlTv1Kik4C3jD5LOQhnwlDyF1R1Up8jwBrj2J0All0avTja1XGjj7saHBhaODUqbJOcgBtY66KCt8z7TesDVixa1Ti2PtgxGMoL+Zj1Ese1U7amnVmk08YXPhl8RDKJa8pfdKnK+53CfvfpVIMnRXj7zI+M8FsVmvD/TB5tmtx6xDFqejRX9AjLg/Y+A9dE58BQ8fxp/ERW851FScae3uoFtayoQVgZzY+fXW8bSsdApwYa7co5677YKYmkq65EPqM77ITWw91mSS+8ZxwMyhRLuprKsoPFMpxOrMBfR6jsQmLhIHNZOP8afiMO+weqBhdKudIBSti2om3ByWWa9qfCyQsltGpeXX4J8qGB45vKkQIp8EMV4Idw981vVkhxOCJNHznOYYmiUS2bQrKNa+UX4UjpZ3UCz0AggY/Jitr4NgvIQYEZ29+3UQGclmnOmcvOarWGxzOPtZfC+T9PvstgLH5RlTj33wqSp5mgENjC4yybQ7LGlq+/zyov/EnnVsRlk+VWHNvx0MjwIoJwN+TVvrxd0Un0XPg9fRZrspvvLEqSWQF+MvdKV4KcFVyGekU281gf8nkUDys1yJ0i4kIhF8udfhCDjwV+U8SrHuDww/delDwg4HTxB3D4lbyhV+RDljLiWmI+VuH0Zp0zsb4emaZwLtdwnr8yNPNrCBNcfA0neAGvUX+DiRocXUBHSXQZuC8DxD1iYAG8wApAzYOIxT3CUjqGWcmPvanBo+RGW1R82vqZ1ELY4weU0TTqxAtwQuIUWlCp0Ezd5Ussc63LWF6tB45iHNqHCyoZy1XgOLm31f0qBns4aV1OarUG9w38OtxH3bFlNQVM0c3CPTg28n6jF8WQbJrPGupmwcdpf2TkI+hEbpsXbcRJRpMCRbrDnbzlcLw/Fm14rWTdbr52SnJ4rmpo9FjV+yV334ljQeGr/el2TZK7JhTSy05Z4aTAgYIT4fcX39HZCzz0f2+BwwvC6Y56v7wV8+GSCZfSL5mYMi+LkglOFPPTtEghn4vvFI1NycTA+WUlyAviNvF24fOBLRykC6pD+FKgr0q2AuSD/hlpRoe/L2Otq1jDYMxB+xj+/05w5N8j63mVU3I89p1fZx1ZueyLxHm7itkFOfwvrCy2GM3wv2O5xQdgYk6Bxapn3SM7JTk+102UTNxAITEOd62GHOw6l0ywIhKy2ldG47d9GG4xgX+8z1zecDKdg/XZ/oSZ8PxHIcLJRVwVKJ3iJH/GHqzVFoyl/YCVNOtz+8Z8/Mhl+XWcTp9D43x6VJW0cCxvdWGyjZJ0uuZ9+N2d4tkHbpTBUUyLXhoXYfPI2JtgBezDWrdR+MxopXO/zjJKVoatDqfW4aaw2ykluUSQuFaL3sP9odP+tjAemLNeBGHmy7VdIuL7MBRbh/DXPeidPra2gV+nBb/OwNFvu3wx9kIlaraP2KYf7JKSXDVue1edbjoEzXa68loCAlN6p4+P3C3FzXydGfw67JPjvuzy2m8ERJHoB24YIHun7/dOr3l1wq8T4sBsiNMYpuXQPpiVSHmY0Jd9zdOXj1s1AuoXsJnfkwZmDPa/sh967yyeVWP42MbvdnAYslAOd6HzxwaMXO9CCEjFsxB88uaRXJe54JheEDzXcPKm7UPAA/5t+iAaBgy4wKTi2b5t2qoZaWYs3XFWunnsam13WHurEH6ck5GK53Hu++pWzWUGAWSNO0j7OURdVYhbH8s2xqvbjy0dWSqeLd2YbZmW6J1uWftkztSszUqDSA4uYxQXI93ekjfGLG8B0wB4lTSQ3Djpw7UtmMh5LI6AVDyLY/joRzCpNuqodTLoSkvSUQehC9SomMeuMar2vnVDzSSYEE5MXqVIwsiD60pee4pAV0O+1jN6ec/1LqNae7rVS1uWyR7IORgWF2gPWlAiInHwkIxBR4rJRammMxnc4I7D7ktbjBxoMwiAn5nztf4pe6dvBv+dfKpoYZymerM8tSOCCLmL4xZzNF+Sr9qlsJo1PLB+plo8oF8AuQ7FwOHUTB7Z8hjvJHZy0gIB0Tv9dYbCw3w8EhuJgBUCXP92wmTt9enkWmwVkarSUbtBGf81heIXFAbdZq7mBqPBeJ3zffg84wdplyjuZMJ5pmeRe7FvCJjsg98pr3/7iipDBM3Sx7NvO72C9XDVfwKteW+n9EIXRbdCwdzgf+BLuuPPsZ7MjXtAtSJzeVawbVsxZPfHPFWe/UCfQGc4TAwvFc9WbM92T2LQD10JHVERLY96DloYbfeK5OxWjYBoh1N6pXhTfvpNv+daHjxXKp5V78CejG92nfDBh4PQRMZAvzXrcPmeLFsuY04Euj/G6ft2lC7QEWYSd7NUPHMC+xhv4yMVU88OqGYfIwZyzc4Q4O4YL3DkRrePifQ0UvE4w1H+SiIgEVgiAlLxLBFMOZREQCLgDIH/A9rdeTy3heu5AAAAAElFTkSuQmCC&quot;&gt;&lt;/span&gt;&lt;span style=&quot;font-size:8.0pt;&lt;br/&gt;line-height:107%&quot;&gt;&lt;/span&gt;&lt;/p&gt;" style="rounded=1;whiteSpace=wrap;html=1;fontFamily=Times New Roman;" vertex="1" parent="1">
          <mxGeometry x="-1390" y="-1963.75" width="230" height="57.5" as="geometry" />
        </mxCell>
      </root>
    </mxGraphModel>
  </diagram>
</mxfile>
